<?xml version="1.0" encoding="UTF-8"?>
<svg width="595px" height="842px" viewBox="0 0 595 842" version="1.1" xmlns="http://www.w3.org/2000/svg" xmlns:xlink="http://www.w3.org/1999/xlink">
    <!-- Generator: Sketch 55.2 (78181) - https://sketchapp.com -->
    <title>A4</title>
    <desc>Created with Sketch.</desc>
    <g id="A4" stroke="none" stroke-width="1" fill="none" fill-rule="evenodd">
        <rect fill="#FFFFFF" x="0" y="0" width="595" height="842"></rect>
        <g id="Scene/Home" transform="translate(-452.000000, -46.000000)">
            <g id="Clock" transform="translate(768.164865, 120.108824)">
                <circle id="Clock-Frame" fill="#F2F2F2" cx="53" cy="53" r="53"></circle>
                <circle id="Time" fill-opacity="0.1" fill="#000000" cx="53" cy="11" r="3"></circle>
                <circle id="Time" fill-opacity="0.1" fill="#000000" cx="11" cy="53" r="3"></circle>
                <circle id="Time" fill-opacity="0.1" fill="#000000" cx="95" cy="53" r="3"></circle>
                <circle id="Time" fill-opacity="0.1" fill="#000000" cx="53" cy="95" r="3"></circle>
                <polygon id="Hand" fill="#AFB9C5" points="53 17 55 52 51 52"></polygon>
                <polygon id="Hand" fill="#AFB9C5" transform="translate(62.213203, 62.213203) rotate(135.000000) translate(-62.213203, -62.213203) " points="62.2132034 50.2132034 64.2132034 74.2132034 60.2132034 74.2132034"></polygon>
                <circle id="Time" fill="#C5CFD6" cx="53" cy="53" r="4"></circle>
            </g>
            <g id="Background-Shape-2" opacity="0.345889137" transform="translate(42.677027, 306.076471)">
                <path d="M0.345831763,216.241593 C11.9016568,119.590796 631.920866,-66.9554258 747.02527,24.5902996 C862.129675,116.136025 751.471066,287.943404 510.25475,331.938901 C269.038433,375.934399 -11.2099933,312.892391 0.345831763,216.241593 Z" id="Background-Shape" fill="#F2F2F2" transform="translate(396.379730, 173.108824) scale(-1, 1) translate(-396.379730, -173.108824) "></path>
                <path d="M244.250742,279.040988 C254.977151,196.932354 830.494674,38.4540404 937.337496,116.225716 C1044.18032,193.997391 1017.13632,357.581099 793.233225,394.956995 C569.330134,432.332891 233.524332,361.149621 244.250742,279.040988 Z" id="Background-Shape" fill="#DDE3E9"></path>
            </g>
            <g id="Hanging-Lamp" transform="translate(60.135811, 0.000000)">
                <g id="Light" transform="translate(0.000000, 206.099940)">
                    <ellipse id="Hanging-Lamp-Light" fill="#F2F2F2" cx="49.5" cy="34.5" rx="42.5" ry="22.5"></ellipse>
                    <path d="M99,50 C99,22.3857625 76.8380951,0 49.5,0 C22.1619049,0 -7.10542736e-15,22.3857625 -7.10542736e-15,50" id="Hanging-Lamp" fill="#DDE3E9"></path>
                </g>
                <rect id="Wire" fill="#DDE3E9" x="47" y="0" width="5" height="213.426471"></rect>
            </g>
            <g id="Hanging-Lamp" opacity="0.7" transform="translate(186.686486, 0.000000)">
                <g id="Light" transform="translate(0.000000, 153.451471)">
                    <ellipse id="Hanging-Lamp-Light" fill="#F2F2F2" cx="37" cy="27.8421053" rx="31.7676768" ry="18.1578947"></ellipse>
                    <path d="M74,40.3508772 C74,18.0657031 57.4345357,0 37,0 C16.5654643,0 -7.10542736e-15,18.0657031 -7.10542736e-15,40.3508772" id="Hanging-Lamp" fill="#DDE3E9"></path>
                </g>
                <rect id="Wire" fill="#DDE3E9" x="35" y="0" width="5" height="176.451471"></rect>
            </g>
            <g id="Lamp" transform="translate(771.129730, 254.154098)">
                <path d="M60,43.423052 L103.359063,14.8933992 C106.027698,13.137475 109.485142,13.137475 112.153777,14.8933992 L218.385255,84.7922161 C222.882842,87.7515651 225.590541,92.7744617 225.590541,98.1583298 L225.590541,522.845902" id="Body" stroke="#CBCBCB" stroke-width="8"></path>
                <rect id="Lamp-Base" fill="#AFB9C5" x="195.590541" y="521.845902" width="59" height="7" rx="3"></rect>
                <g id="Lamp-Top" transform="translate(48.083261, 49.083261) rotate(45.000000) translate(-48.083261, -49.083261) translate(14.583261, 14.583261)">
                    <path d="M33.0303119,1.38390164 C51.2557087,1.38390164 66.0303119,16.1585049 66.0303119,34.3839016 L66.0303119,62.3839016 L0.03031192,62.3839016 L0.03031192,34.3839016 C0.03031192,16.1585049 14.8049152,1.38390164 33.0303119,1.38390164 Z" id="Lamp" fill="#C5CFD6"></path>
                    <ellipse id="Lamp" fill="#F2F2F2" cx="33.2089288" cy="61.4454002" rx="33" ry="6.5"></ellipse>
                </g>
            </g>
            <g id="Big-Leaf-Plant" transform="translate(55.616216, 544.000000)">
                <g id="Big-Ass-Leaf" transform="translate(22.000000, 0.000000)">
                    <path d="M25.2579539,1.17309307 C28.1225306,0.823121436 31.1799041,0.946659994 33.8438766,2.07736611 C39.5085416,4.48200834 41.1187317,11.1741436 41.0410516,16.6135182 C40.9573065,22.4680411 39.714051,28.8626602 44.1651162,33.5797909 C46.2111822,35.7484553 48.7563294,37.4081152 50.7654292,39.6166003 C52.9121851,41.9766643 54.5966293,44.6770468 55.8438343,47.5768289 C58.1338507,52.9031791 59.2578307,59.1668975 57.163736,64.7542738 C55.3199224,69.6736307 50.6810935,74.1137719 51.6834319,79.7075568 C52.728959,85.5429164 58.61221,90.0040977 62.290444,94.3505245 C66.4531656,99.2693182 70.2859018,105.555987 70.9155339,112.006469 C71.5192882,118.188324 68.8284074,124.440381 64.698769,129.113358 C56.447741,138.450738 44.0451661,143.028231 31.539564,143 C26.2300259,142.987569 20.2185507,142.747768 15.6365623,139.894514 C14.2204324,139.012594 13.4733329,138.02316 12.6314834,136.647706 C11.8766749,135.414323 10.8795787,134.61206 9.72545995,133.739319 C7.18986484,131.822394 5.35871537,129.238844 4.19012177,126.346829 C-0.347779789,115.114023 3.27916675,101.217665 9.6312018,91.2428455 C11.1363537,88.8796069 12.3686453,86.6054629 11.6374364,83.7886216 C10.8743978,80.8481806 8.99901449,78.1960629 7.34025921,75.6685039 C5.70114537,73.1704875 3.82987864,70.7874137 2.54875756,68.0865102 C1.20699289,65.2571214 0.829162714,62.2942757 1.0662375,59.1977452 C1.51180331,53.3811147 4.02273241,48.0134805 7.57766153,43.3356252 C11.0017161,38.8298272 15.0221277,34.5184764 15.0311362,28.6145236 C15.0410288,22.3571379 10.8577315,16.7908073 12.6398779,10.4289791 C13.3778032,7.79466143 14.8599543,5.09183557 17.2485499,3.51252303 C19.5392578,1.99784616 22.5638536,1.50223723 25.2579539,1.17309307 Z" id="leaf" fill="#DDE3E9"></path>
                    <path d="M23.3861597,11.1764309 C23.4398778,10.3360403 24.436749,9.83200515 25.2215077,10.0513011 C26.2544664,10.3400972 26.2346007,11.3052716 26.2073293,12.1651664 C26.1237304,14.8082784 26.5062963,17.3769517 27.1416559,19.9415199 C28.4621824,25.2735426 30.9026929,30.1861254 32.8361895,35.3079558 C34.7680009,40.4254986 35.6748339,45.7092068 34.5415523,51.1242976 C33.4732058,56.2299732 31.7948008,61.2033156 30.7014513,66.3154357 C29.7377524,70.8211129 28.7123306,75.5726024 30.1799208,80.0668063 C31.5921035,84.3928044 34.714245,87.9158566 36.9624576,91.8252937 C41.6165172,99.9180775 43.681267,108.896054 43.9574365,118.135184 C44.0854233,122.425481 43.970168,126.755229 42.9748682,130.963076 C42.4020068,133.385966 41.6321776,136.660394 39.5559237,138.333163 C38.5985099,139.104565 36.9610282,139.371304 36.1552196,138.228946 C35.3986826,137.157504 36.0623713,135.498805 36.3025457,134.356816 C37.3426754,129.413332 37.551926,124.361287 37.302904,119.341696 C37.061891,114.479563 36.4874289,109.625549 34.9571817,104.98201 C33.536907,100.672738 31.379247,96.8021749 28.8398113,93.0324782 C26.2521442,89.1908938 23.562037,85.3411131 22.4928221,80.7892312 C21.4064684,76.1661343 22.2890218,71.4619848 23.4691168,66.9271792 C24.717096,62.1306341 26.3517536,57.4716876 28.0416981,52.8051023 C29.688607,48.2578629 30.2723555,43.9553657 29.3631928,39.1961513 C27.5671855,29.7935298 22.7598022,20.9681166 23.3861597,11.1764309 Z" id="middle-thing" fill="#C5CFD6"></path>
                </g>
                <g id="Big-Ass-Leaf" transform="translate(32.000000, 11.000000)">
                    <path d="M90.8923323,1.58227349 C94.4371815,2.65860484 97.957883,4.39521888 100.484813,7.11827966 C105.857908,12.908958 104.209295,21.6609092 101.243138,28.053245 C98.0504357,34.9333908 93.2122671,41.8490652 95.9396345,49.7432112 C97.193196,53.3723397 99.3011711,56.6591395 100.490327,60.3161304 C101.760821,64.2239944 102.30919,68.2938229 102.239325,72.3720051 C102.109984,79.8624039 100.11754,87.8547607 94.7080978,93.373143 C89.9453006,98.2317101 82.1575199,101.069515 80.3765031,108.20631 C78.5184553,115.651265 83.0609213,123.987774 85.0777737,131.041472 C87.360351,139.024107 88.5328812,148.452761 85.8618992,156.408818 C83.3025511,164.033728 76.8418128,170.027718 69.5281945,173.405772 C54.9151643,180.156033 37.9486721,179.117398 23.2958182,172.578162 C17.0747521,169.801475 10.1506305,166.390577 6.28452896,160.632591 C5.08969654,158.852907 4.73639937,157.294118 4.47600508,155.229521 C4.2426077,153.378223 3.49715739,151.910733 2.60478713,150.278208 C0.643995898,146.69213 -0.138196518,142.68415 0.0197662548,138.65605 C0.634485801,123.011122 12.2336238,108.463743 24.9562471,99.9717321 C27.9707605,97.9599181 30.6181436,95.9115216 31.2493822,92.1998602 C31.9086177,88.325468 31.1107853,84.2133878 30.5011993,80.3613088 C29.8990358,76.5543855 28.9638254,72.7626253 28.8887906,68.9019982 C28.8105393,64.857873 29.9334288,61.1573785 31.8482022,57.6186721 C35.4452563,50.9715661 41.2274568,45.9299031 47.869576,42.2471027 C54.2672493,38.6996981 61.2616135,35.6924899 64.392784,28.7150074 C67.7118026,21.3200057 65.7473551,12.5608727 71.200258,5.96432077 C73.4581719,3.232793 76.6252004,0.8074086 80.2615533,0.182273212 C83.7489295,-0.417345716 87.5584437,0.569996664 90.8923323,1.58227349 Z" id="leaf" fill="#DDE3E9"></path>
                    <path d="M83.6512541,13.8108813 C84.1542014,12.8438162 85.5838278,12.76941 86.3866021,13.4404234 C87.4431996,14.3238303 86.9144837,15.4564117 86.4322458,16.4604357 C84.9502268,19.5466855 84.0522837,22.7891134 83.4520845,26.1591764 C82.2036693,33.1656731 82.4845328,40.2624713 82.0629519,47.3413268 C81.6416462,54.4142215 79.9347993,61.1466733 75.7736201,66.9654284 C71.8504189,72.4517974 67.2831774,77.4617029 63.3273648,82.942599 C59.8407636,87.7732777 56.1532511,92.8627051 55.5155862,98.9541078 C54.9012266,104.817274 56.7068601,110.625805 57.2882412,116.433853 C58.4918732,128.456945 56.2042044,140.171178 51.6883608,151.25723 C49.5910773,156.405033 47.1887071,161.472065 43.8211358,165.93348 C41.8823541,168.502498 39.2672836,171.9767 35.9634293,172.869426 C34.4399139,173.281139 32.3854941,172.738768 32.0415379,170.963598 C31.7180544,169.298235 33.362815,167.681804 34.2417421,166.455303 C38.0470052,161.146218 40.9375702,155.273083 43.2752764,149.198186 C45.5398829,143.313954 47.4103318,137.264567 48.0529422,130.963476 C48.6490797,125.115876 48.1532232,119.401324 47.1581268,113.606123 C46.1442823,107.70051 45.0149464,101.731498 46.1486425,95.7805914 C47.2995951,89.7363667 50.7952573,84.6281193 54.5501475,79.8763654 C58.5214952,74.8502305 62.8729252,70.1897143 67.2930034,65.5491295 C71.6002552,61.0273221 74.5361665,56.238113 75.9655983,50.1255641 C78.7899076,38.049307 77.7906897,25.0782485 83.6512541,13.8108813 Z" id="middle-thing" fill="#C5CFD6"></path>
                </g>
                <g id="Big-Ass-Leaf" transform="translate(0.000000, 57.000000)">
                    <path d="M13.3059765,-1.56319402e-13 C19.200266,-1.56319402e-13 24.3823319,3.12436119 27.9530894,7.55793367 C32.133,12.74806 32.977213,19.0862362 34.674537,25.2719426 C35.5191207,28.3503093 36.9717453,31.4062221 39.5173606,33.4977007 C41.832736,35.3997692 44.7720948,35.7804002 47.5435009,36.7097048 C53.0822347,38.5668654 57.5546724,43.0406377 59.3209572,48.4994874 C61.4757949,55.1581758 59.1934169,61.8733613 59.5864189,68.6215035 C59.9471652,74.818799 66.0576058,78.6852277 70.9738392,81.6560327 C75.8214826,84.5855514 80.1886254,87.3278329 81.6486651,93.0347628 C83.196945,99.0875562 83.7163751,105.843666 81.5719185,111.822941 C78.0015318,121.778741 67.5524967,126.162697 57.4560511,126.842473 C48.2931709,127.459233 36.7719075,126.490815 29.8906637,119.839732 C25.7730402,115.859585 24.2818569,110.293173 24.4668644,104.75501 C24.581799,101.311223 25.2639913,97.8993066 26.1460214,94.571411 C26.7711171,92.2126578 27.6157008,89.864045 27.8563219,87.4267028 C28.4958771,80.9422138 22.5025956,79.6967428 17.4009839,77.9163603 C10.9183036,75.6535796 6.37987122,71.3797201 3.22399048,65.4254344 C0.285002382,59.8814769 -0.948134291,53.6581058 0.813701389,47.5542477 C1.71352782,44.4374919 3.34559866,41.6097404 5.55901596,39.2046306 C6.53336448,38.1460346 7.90664718,37.2630865 8.78608199,36.1508907 C9.60693725,35.1122136 9.42823254,33.766424 9.1453452,32.5499259 C7.83731568,26.930639 3.7619584,22.2775971 2.30451394,16.6684507 C0.988698535,11.6054427 1.76654602,5.30420703 6.395443,2.0378788 C8.39530446,0.626538178 10.8615778,0.0155729143 13.3059765,-1.56319402e-13 Z" id="leaf" fill="#C5CFD6"></path>
                    <path d="M21.3376913,14.6413767 C27.5850069,21.2960229 29.2831027,30.3249745 29.7814609,39.0761511 C30.0606151,43.9833868 29.7700594,49.1593434 31.2118042,53.919181 C32.4453787,57.993092 35.3373275,61.1072854 38.3182819,64.0505403 C44.3188091,69.9754389 51.0107852,75.9988444 52.7658888,84.5736503 C53.7957065,89.6058303 53.1005796,94.8035164 54.523567,99.7802864 C55.8174594,104.303997 58.0955633,108.748395 60.8665085,112.568434 C63.097535,115.644601 66.0041955,117.999712 68.4430245,120.867276 C69.1870678,121.742611 70.2529291,123.031168 69.9458228,124.266849 C69.5864899,125.714031 67.7431162,126.172161 66.4352477,125.944726 C63.385884,125.414889 60.8190633,122.503142 58.8252627,120.38633 C55.9097752,117.290969 53.432328,113.961654 51.4186666,110.227085 C49.1832266,106.079656 47.3832523,101.678717 46.6141992,97.0257156 C45.8160904,92.1985167 46.2133058,87.1677853 44.3908963,82.535065 C41.3242463,74.7399845 33.8860201,70.1398585 28.5081649,64.0643023 C21.8077295,56.4937595 22.8070205,47.0715048 23.4933204,37.7589838 C23.8703073,32.6413346 24.2450873,26.8620233 21.6591415,22.1894658 C20.6719877,20.4058395 18.4711201,18.7428117 18.0466881,16.7154534 C17.6579319,14.857947 19.7797242,12.9808841 21.3376913,14.6413767 Z" id="middle-thing" fill="#AFB9C5"></path>
                </g>
                <path d="M28,181 C28,219.05849 34.211229,239 67.0000931,239 C99.7889571,239 106,219.05849 106,181 L28,181 Z" id="Base" fill="#89C5CC"></path>
            </g>
            <g id="Table" transform="translate(228.145270, 526.000000)">
                <g id="Lamp" transform="translate(23.000000, 0.000000)">
                    <rect id="Lamp-Base" fill="#AFB9C5" x="21" y="144" width="38" height="9" rx="2"></rect>
                    <path d="M31,115 C35.2931455,101.08547 37.6987626,86.4188034 38.2168511,71 L41,71 L42.7831489,71 C43.3012374,86.4188034 45.7068545,101.08547 50,115 L56.5,115 C65.0604136,115 72,121.939586 72,130.5 C72,139.060414 65.0604136,146 56.5,146 L23.5,146 C14.9395864,146 8,139.060414 8,130.5 C8,121.939586 14.9395864,115 23.5,115 L31,115 Z" id="Lamp-Body" fill="#DDE3E9"></path>
                    <path d="M4.62222222,1.67861504 C16.0814815,0.559538347 27.5407407,0 39,0 C50.4592593,0 61.9185185,0.559538347 73.3777778,1.67861504 L78,81.1330604 C65,82.3776868 52,83 39,83 C26,83 13,82.3776868 0,81.1330604 L4.62222222,1.67861504 Z" id="Shade" fill="#C5CFD6"></path>
                </g>
                <path d="M21,153 L104,153 L125,153 L125,257 L104,257 L104,175 L21,175 L21,257 L0,257 L0,153 L21,153 Z" fill="#F2F2F2"></path>
            </g>
            <g id="Plant" transform="translate(816.435811, 501.000000)">
                <g id="Succulents" transform="translate(13.000000, 0.000000)">
                    <path d="M3.38092413,0.208187006 C12.213925,21.197225 27.2292006,35.7805339 35.1818951,57.6048833 C39.8977667,70.5473636 41.863552,84.6195065 41.9827844,99.0319481 C42.0475621,106.860255 41.9112966,114.693588 41.8746494,122.521895 C41.8390346,130.156002 41.6315393,137.74129 40.9835037,145.326577 C40.3323712,152.952069 39.603299,160.486743 39.2817329,168.159259 C39.0313966,174.137461 38.9170678,181.09097 36.890634,186.544007 C35.2791907,190.880662 31.1834821,191.51603 30.0967128,186.256476 C29.4928087,183.332706 29.5689419,180.068279 29.6355262,177.063384 C29.7209502,173.208101 29.9452206,169.358561 30.0595494,165.503996 C30.5191876,150.036197 29.9232839,134.565527 30.2347849,119.091626 C30.5390596,103.9731 32.4823921,88.871087 30.3320805,73.8534305 C28.5564992,61.4519104 24.045542,50.802498 18.8615156,40.5931767 C13.873887,30.7708195 8.44546012,21.187174 5.07495258,10.0143908 C4.10715753,6.80560332 3.35898744,3.48051124 3,0.0301404047 C3.15691184,-0.0427294746 3.28388655,0.0164997376 3.38092413,0.208187006 Z" id="Thi-Succs!" fill="#C1DEE2"></path>
                    <path d="M0.973588404,41.6169557 C2.7226644,42.8799919 3.70001184,44.7275773 4.88222633,46.55055 C6.35238241,48.8169596 8.08078375,50.8630865 9.55056393,53.131137 C12.6152999,57.8596264 15.3078921,62.8785444 18.1016022,67.7986018 C23.4055915,77.1374401 27.4326388,87.0907728 29.4271794,97.8948808 C31.4946451,109.09156 32.052109,120.648403 32.9193169,132.012037 C33.8391512,144.05621 34.7653759,156.188167 34.8871684,168.278693 C34.9416743,173.695515 35.2345026,179.445837 34.5841907,184.824509 C34.1793433,188.173053 32.6682138,191.026883 29.2614062,191 C22.0249003,190.94238 18.6274903,182.927289 17.2080811,176.353675 C15.118813,166.674363 14.7019367,156.392862 15.0327312,146.494087 C15.432316,134.55821 17.5039166,122.801595 18.4004449,110.911661 C19.3499755,98.3247808 18.8135622,85.9602344 14.4861685,74.1088605 C12.2999174,68.1197961 9.76257314,62.2743052 7.48422591,56.3250312 C6.51402064,53.7919851 5.71936199,51.1900238 4.40896463,48.831317 C2.95121334,46.2076145 1.14161698,43.8259359 -3.0475622e-14,41 C0.324404167,41.2059254 0.649184237,41.4114405 0.973588404,41.6169557 Z" id="Thi-Succs!" fill="#89C5CC"></path>
                    <path d="M84.3341427,16.5176702 C84.5560133,16.345237 84.7781571,16.1728402 85,16 C84.3609397,18.6926575 83.2065589,20.8798938 82.3241537,23.3413066 C81.5309592,25.5541267 81.1289139,28.058225 80.5946654,30.4769505 C79.3401416,36.1577567 77.8904265,41.7105156 76.7055048,47.4397171 C74.3598951,58.7767524 74.8035283,70.9901843 76.3418843,83.5681524 C77.7947507,95.4496261 80.092478,107.312713 81.1873452,119.191609 C82.0949201,129.04307 82.4850091,139.201741 81.6192928,148.601 C81.0309846,154.984369 79.1025548,162.605994 73.8481376,161.961759 C71.3744617,161.658503 70.0840672,158.681129 69.5641892,155.320205 C68.7291114,149.921644 68.5543005,144.245802 68.2287956,138.877693 C67.5023548,126.895908 67.3576487,114.950973 67.2142162,103.092499 C67.078414,91.904007 66.7045185,80.493842 67.4521172,69.5872699 C68.1731866,59.0630547 70.4284885,49.5797393 73.6530782,40.8297246 C75.3514544,36.2198206 76.9696914,31.5020505 78.8779164,27.1084404 C79.7930343,25.0009936 80.9110333,23.1387509 81.826535,21.0329683 C82.5626976,19.3391662 83.148338,17.6010976 84.3341427,16.5176702 Z" id="Thi-Succs!" fill="#C1DEE2"></path>
                    <path d="M3.20880772,76.3018223 C4.16572159,74.6953252 6.27206517,79.9934093 6.59263271,80.6597751 C6.45704992,80.3283084 6.32092787,79.9973172 6.18360206,79.666614 C8.08298767,82.8249267 9.82062484,86.1127294 10.9009829,89.7341519 C11.9700503,93.3191128 12.888301,96.9765376 13.89141,100.586979 C15.7735895,107.360999 18.2016657,113.942756 19.9069626,120.7778 C21.5685818,127.438224 21.9875459,133.985891 21.5852981,140.875198 C21.1672391,148.035491 20.9114736,155.305643 21.3991881,162.462075 C21.632116,165.880018 22.7427231,169.063767 23.5039187,172.354313 C24.2660416,175.648102 24.8662939,178.985809 25.7672782,182.238759 C25.974095,181.814996 26.0004407,183.231705 26,183.339248 C25.99434,184.151918 25.8808641,184.833382 25.6194022,185.603962 C24.9475372,187.585538 23.69062,189.268993 21.7779741,189.815552 C18.3215161,190.803119 15.1122443,187.659032 13.9975999,184.339008 C12.398575,179.575285 11.5174472,174.310953 10.7554023,169.304056 C10.0567643,164.712777 9.89144111,160.094092 10.0990013,155.439587 C10.5078659,146.260651 12.1689639,137.201885 12.618303,128.025744 C13.1073521,118.035719 11.1280407,108.649277 9.47082403,98.9248264 C8.67258323,94.2391921 7.90974363,89.5977685 6.35630439,85.1336672 C5.7273694,83.3259909 4.90736765,81.7307159 4.04759418,80.0614309 C3.55838288,79.1117083 2.56905129,77.4176151 3.20880772,76.3018223 Z" id="Thi-Succs!" fill="#C1DEE2"></path>
                    <path d="M31.2520927,60.6970481 C30.8556379,72.1418193 30.1720216,83.4997745 28.6461885,94.8239462 C27.0889362,106.380282 25.300327,117.896941 23.8019539,129.46349 C22.3433779,140.722452 20.8145443,152.168401 21.0183676,163.584496 C21.1684795,171.99346 19.7741408,186.218697 29.1133695,190.368969 C38.572085,194.57188 40.6010206,176.62338 41.2221153,170.699078 C42.4123367,159.332874 42.027006,147.846855 41.4493767,136.418583 C40.8563654,124.689401 39.8664321,113.01993 38.6395466,101.333567 C37.2768349,88.3528226 36.2076085,75.3135458 35.3494633,62.2958749 C34.92489,55.8569635 34.820295,49.4286586 34.9374389,42.9881759 C35.048171,36.9106701 34.8172608,30.7703111 32.6564941,25 C32.5432773,25.0821019 32.4308129,25.1642038 32.3175887,25.2459129" id="Thi-Succs!" fill="#69A1AC"></path>
                    <path d="M80.0827466,96.9552251 C78.3816844,99.4332953 76.6669438,101.887253 75.0605101,104.512188 C72.1861393,109.208575 69.5869207,114.431593 68.8049844,121.146824 C67.1686355,135.200365 68.4814231,150.378956 68.7982735,164.862679 C68.863082,167.822444 68.4887518,170.692884 69.6553203,173.509621 C70.713019,176.063863 72.6905254,178.01037 74.5755064,178 C78.6108036,177.976942 77.9951288,168.09535 78.0017787,163.745849 C78.0139471,156.122577 77.1591232,148.422037 77.232697,140.805889 C77.3061571,133.260434 77.7650203,125.694154 78.8589994,118.527917 C79.96657,111.274547 81.5885624,104.309427 83.7291347,97.809562 C84.0261843,96.9075488 86.1579416,89.9374968 84.1438969,91.1387197" id="Thi-Succs!" fill="#89C5CC"></path>
                    <path d="M62.262195,22 C59.6091513,22 59.625416,35.2259973 59.5456053,36.9248132 C59.257379,43.055394 59.3250857,49.1876151 59.1427693,55.3194261 C58.7437159,68.7008304 58.2535042,82.1995075 56.243485,95.4263249 C55.1613125,102.546754 53.9066581,109.63561 52.557063,116.701913 C51.2036854,123.788718 49.3869518,130.866913 48.4965519,138.043518 C47.6417075,144.942523 48.1247324,151.977253 48.2419898,158.910292 C48.3592472,165.885155 48.5699324,172.87396 49.4837837,179.787726 C49.7092206,181.494333 49.9736172,183.194789 50.256548,184.891145 C50.4921976,186.304569 50.3548929,188.057511 50.7535682,189.400818 C51.3928102,191.552324 54.1328514,192.256371 55.9779537,191.920134 C60.9704721,191.008604 64.1594958,184.739838 65.8650239,180.159637 C68.0429859,174.311167 69.1985389,167.967363 70.3389619,161.803978 C71.6310631,154.821324 72.3883191,147.732059 72.7434956,140.623111 C73.4655743,126.17518 72.5388625,111.711667 71.5039711,97.310071 C70.928275,89.3006645 70.263312,81.3265219 69.2458201,73.3667309 C68.2324891,65.4409736 66.9324447,57.5504802 66.0859217,49.6013503 C65.4708876,43.8246382 64.8649315,38.0401352 64.4666346,32.2412807 C64.3713156,30.8586094 64.2911267,22 62.262195,22" id="Thi-Succs!" fill="#69A1AC"></path>
                    <path d="M58.9407927,118.138703 C58.5083549,104.252695 52.9265288,43.2589078 51.6565806,26.4671323 C51.3390091,22.2641696 48.2815387,4.76463908 47.8849122,-1.2490009e-14 C46.809561,1.346742 46.901454,22.3094454 46.9132785,27.1261944 C46.9257786,31.8908335 46.3348929,36.5764535 46.0308351,41.3154647 C45.7210339,46.1510074 38.5722965,108.600882 37.6445823,113.247206 C35.7989512,122.490734 34.5638007,131.976445 33.6110862,141.427558 C32.6830341,150.639478 31.2401108,160.357975 32.4820181,169.618161 C32.7674946,171.749969 33.2191894,173.847606 33.9546715,175.805999 C34.749276,177.922003 35.2938774,179.878687 35.9317231,182.09293 C36.9580872,185.659469 38.8148671,188.78948 41.667943,190.261798 C47.51734,193.280756 50.6582574,186.44667 52.2505069,180.496744 C54.7934439,170.994802 56.4255588,161.337812 57.190771,151.358766 C58.0374031,140.318301 59.2870808,129.255197 58.9407927,118.138703" id="Thi-Succs!" fill="#89C5CC"></path>
                </g>
                <g id="Planter" transform="translate(0.000000, 159.000000)">
                    <rect id="Vase" fill="#FFFFFF" x="10" y="0" width="91" height="91" rx="2"></rect>
                    <rect id="Leg" fill="#C5CFD6" x="0" y="10" width="10" height="113" rx="2"></rect>
                    <rect id="Leg" fill="#C5CFD6" x="50" y="10" width="10" height="113" rx="2"></rect>
                    <rect id="Leg" fill="#C5CFD6" x="101" y="10" width="10" height="113" rx="2"></rect>
                </g>
            </g>
        </g>
        <g id="Group-2" transform="translate(-22.000000, 321.000000)">
            <g id="Group">
                <g id="Head/Front/Chongo" transform="translate(89.540000, 0.000000)">
                    <g id="Head" stroke-width="1" transform="translate(65.514706, 37.557692)" fill="#B28B67">
                        <path d="M10.0240823,41.7861151 C4.43360381,35.2332054 0.649851037,27.2025242 1.28211835,18.2039153 C3.10385652,-7.72358262 39.2463791,-2.01986342 46.276848,11.066111 C53.3073169,24.1520855 52.4719144,57.3457449 43.3856598,59.6845736 C39.762074,60.6172952 32.0427588,58.3325007 24.1862969,53.6036784 L29.1176471,88.4423077 L0,88.4423077 L10.0240823,41.7861151 Z"></path>
                    </g>
                    <path d="M100.29027,34.3713175 C96.3115354,33.159779 90.5358112,32.7489075 88.1061357,33.0268586 C89.4882458,29.7200609 90.0366875,26.0358904 89.5895752,22.4487001 C89.1550013,18.9630801 87.5953094,15.9951757 86.1528289,12.8851705 C85.4879188,11.4516617 84.7344037,10.0259659 83.6109574,8.92949473 C82.4665208,7.81241651 81.0178175,7.07505503 79.498713,6.72327012 C77.9441294,6.36318379 76.3185873,6.39316657 74.7615888,6.71994955 C74.0728093,6.86449193 73.4548024,7.17896928 72.7793043,7.35378743 C72.0875526,7.53290279 71.7519862,7.10054527 71.2498904,6.66603915 C70.0398823,5.61908351 68.2660149,5.10224682 66.7352078,4.91727164 C65.017717,4.70983379 63.2355835,4.96854512 61.5975958,5.53235808 C60.0032606,6.08122848 58.4716177,6.97250806 57.318915,8.27094792 C56.8056739,8.84892212 56.3398004,9.50678529 56.0370197,10.2331108 C55.9128425,10.5311806 55.8923165,10.7077567 55.5944584,10.8169448 C55.3189837,10.9180268 54.9967917,10.9209567 54.7124936,11.0171555 C51.9635053,11.9469146 49.6131472,14.0679765 48.333388,16.7913307 C47.5867458,18.380125 47.2330682,21.1774301 47.3299395,24.3127496 C47.4268107,27.448069 50.2618036,35.6290121 52.9133635,38.613031 C55.2801609,41.2765174 58.7590736,43.0341724 62.1165025,43.8035676 C59.8879996,46.3472205 58.4045601,49.5257856 57.3075839,52.7584565 C56.1160585,56.2699574 55.3786111,59.9185783 55.1062942,63.6361498 C54.8476304,67.1682578 54.823668,70.9035064 55.6528783,74.360218 C56.4285913,77.5927912 58.0874763,80.2446556 60.8568049,81.9270117 C62.1253258,82.6976766 63.4901607,83.2766274 64.8628902,83.8057697 C66.215744,84.3271966 67.5726843,84.8341693 68.9898092,85.1267699 C71.6718329,85.6803282 74.7621461,85.5853013 76.8281133,83.4534965 C77.5727122,82.6849803 78.3916132,81.7192809 78.9348537,80.7804391 C79.1301751,80.4428154 79.2479438,80.2219976 79.0106417,79.8919917 C78.7263437,79.4967464 78.2665072,79.1938911 77.9013128,78.8846876 C75.8187206,77.1217588 74.5295808,74.7682572 74.2046024,71.9713621 C73.8748873,69.1335459 74.6382475,65.4706661 77.4011675,64.2321918 C80.8117223,62.7033631 84.5676885,64.4581858 87.5990245,66.0939563 C88.8873284,61.5533722 91.5325725,57.465069 95.6798317,55.3822914 C100.268073,53.07811 105.53302,52.8084604 110.248133,50.8314526 C111.476809,50.3162762 112.728241,49.7314655 113.632867,48.6817753 C114.010879,48.2430697 114.454369,47.6739829 114.605295,47.0937624 C114.803588,46.3315943 114.311338,45.6925802 113.931097,45.0983938 C111.914912,41.9478582 104.269004,35.5828559 100.29027,34.3713175 Z" id="hair" fill="#191847"></path>
                </g>
                <g id="Bottom/Sitting/Sweat-Pants" transform="translate(0.000000, 227.625293)">
                    <g id="Objects/Seat/Ball" transform="translate(12.100000, 50.786611)" fill="#C5CFD6">
                        <ellipse id="Ballsy-Ball" cx="140.5" cy="70.766129" rx="93.262931" ry="88.9112903"></ellipse>
                    </g>
                    <path d="M328.526196,196.689106 C313.022727,162.398103 301.810774,132.538884 297.310337,116.785089 C289.604498,89.8107679 283.742359,66.0749404 282.260726,57.2108471 C278.727583,36.0732795 309.439683,34.8423967 313.499177,45.3473995 C319.643384,61.2471384 330.369777,113.487045 343.258357,192.39348 L328.526196,196.689106 Z M148.694899,89.0743242 C162.919316,83.4554936 212.732466,65.8712987 236.757349,60.8970517 C243.661136,59.4676526 250.352489,58.1395796 256.643535,56.9393709 C275.34275,53.3719257 285.030697,87.0838359 267.021073,89.674107 C222.169991,96.124906 158.586008,102.786404 153.144608,103.533977 C145.518255,104.581732 139.755297,92.605584 148.694899,89.0743242 Z" id="Skin" fill="#B28B67"></path>
                    <path d="M268.120416,47.6623364 L191.18,8.52092608 L191.18,0 L200.330245,0 C274.76665,18.955162 312.803593,31.102772 314.441073,36.4428302 C314.45869,36.5002829 314.474843,36.557811 314.489531,36.6154143 C314.526992,36.6645499 314.563817,36.7139826 314.6,36.7637121 C329.351722,57.038232 338.18647,156.020055 341.086193,163.431478 L312.818553,167.645849 C302.005431,127.575114 267.41,99.6603812 268.32898,51.6681341 C268.080835,50.2603354 268.018135,48.9252777 268.120416,47.6623364 Z" id="Leg-Back" fill="#1F28CF"></path>
                    <path d="M197.572641,70.9083582 C190.532771,69.5000556 184.049807,68.2431672 178.502473,67.2708072 C142.67024,60.9899835 132.221257,41.8218676 138.399254,-4.97379915e-14 L204.419533,-4.97379915e-14 C215.204058,3.09594947 271.250584,26.5841761 300.330013,39.077077 C319.576268,47.3455189 313.509222,77.1526979 302.610058,84.9097501 C302.550873,85.3856302 302.354724,85.7088819 302.005431,85.8535565 C243.375609,110.137601 196.994039,97.3958248 181.5,101.467014 L174.333315,78.8745286 L197.572641,70.9083582 Z" id="Leg-Front" fill="#2B44FF"></path>
                    <g id="Accessories/Shoe/Flat-Sneaker" transform="translate(174.190746, 112.857306) rotate(64.000000) translate(-174.190746, -112.857306) translate(137.285746, 88.673205)" fill="#E4E4E4">
                        <path d="M3.41478569,30.0484785 C1.94700507,33.8504043 1.21311475,36.6765131 1.21311475,38.526805 C1.21311475,40.6907484 1.57755166,43.8484801 2.30642547,48 C4.84418699,48 27.6514772,48 70.728296,48 C72.5063379,42.1854087 71.479949,39.046298 67.6491294,38.5826678 C63.8183097,38.1190376 60.6359828,37.7004167 58.1021485,37.326805 L26.09437,23.2118396 C25.5890392,22.9889961 24.9987373,23.2179973 24.7758937,23.7233281 C24.7731404,23.7295717 24.770451,23.7358434 24.767826,23.7421421 L22.6406192,28.8464341 C19.0942821,30.4831826 16.2125151,31.3015569 13.9953181,31.3015569 C12.1171753,31.3015569 9.49296715,30.5192793 6.12269364,28.9547241 L6.12269149,28.9547287 C5.12081523,28.4896357 3.93160166,28.9247845 3.46650864,29.9266608 C3.44792852,29.966685 3.4306781,30.0073131 3.41478569,30.0484785 Z" id="shoe"></path>
                    </g>
                    <g id="Accessories/Shoe/Flat-Sneaker" transform="translate(318.230000, 159.615063)" fill="#E4E4E4">
                        <path d="M3.41478569,30.0484785 C1.94700507,33.8504043 1.21311475,36.6765131 1.21311475,38.526805 C1.21311475,40.6907484 1.57755166,43.8484801 2.30642547,48 C4.84418699,48 27.6514772,48 70.728296,48 C72.5063379,42.1854087 71.479949,39.046298 67.6491294,38.5826678 C63.8183097,38.1190376 60.6359828,37.7004167 58.1021485,37.326805 L26.09437,23.2118396 C25.5890392,22.9889961 24.9987373,23.2179973 24.7758937,23.7233281 C24.7731404,23.7295717 24.770451,23.7358434 24.767826,23.7421421 L22.6406192,28.8464341 C19.0942821,30.4831826 16.2125151,31.3015569 13.9953181,31.3015569 C12.1171753,31.3015569 9.49296715,30.5192793 6.12269364,28.9547241 L6.12269149,28.9547287 C5.12081523,28.4896357 3.93160166,28.9247845 3.46650864,29.9266608 C3.44792852,29.966685 3.4306781,30.0073131 3.41478569,30.0484785 Z" id="shoe"></path>
                    </g>
                </g>
                <g id="Body/Hoodie" transform="translate(24.200000, 99.283372)">
                    <path d="M231.024115,111.442758 L269.650928,139.751492 C280.127315,142.57284 288.879997,146.083073 295.908976,150.282192 C297.569342,151.792168 299.576051,154.850121 292.690109,154.32163 C285.804166,153.793139 278.537373,153.546324 277.587247,155.890393 C276.637121,158.234463 280.80412,161.037713 278.883501,164.200477 C277.603089,166.308987 271.553905,161.021978 260.73595,148.339451 L222.485273,132.509054 L231.024115,111.442758 Z M82.7166316,112.419762 L108.022067,112.519081 C92.3971283,162.859877 83.9619832,189.570388 82.7166316,192.650614 C79.9145907,199.581123 85.8440861,210.136168 88.3797738,215.80837 C80.1211237,219.496603 81.0010917,205.837572 70.5830268,210.674894 C61.0739003,215.090178 53.8403315,223.090377 42.8539098,216.324748 C41.5031938,215.492954 40.0230292,212.361099 43.5992941,209.913719 C52.5090743,203.816405 65.3486073,193.145005 67.0834305,189.632432 C69.4491717,184.84241 74.6602388,159.104853 82.7166316,112.419762 Z" id="Skin" fill="#B28B67"></path>
                    <path d="M148.632693,11.5880185 L158.907747,8.88972877 C200.530169,38.871815 222.035309,101.585294 272.446733,131.393444 L262.264076,146.518288 C179.073828,143.548646 151.834039,67.1415081 148.632693,11.5880185 Z" id="Coat-Back" fill="#E87613" transform="translate(210.539713, 77.704009) rotate(5.000000) translate(-210.539713, -77.704009) "></path>
                    <path d="M108.984375,137.775401 C150.969704,137.775401 181.853233,137.775401 201.63496,137.775401 C205.868619,137.775401 205.070867,131.674171 204.458866,128.595457 C197.395634,93.0633753 169.823454,54.7615107 169.823454,4.18248688 L143.098664,0 C120.993829,35.4812831 113.349594,79.1659266 108.984375,137.775401 Z" id="Shirt" fill="#DDE3E9"></path>
                    <path d="M109.728909,34.8764632 C105.847469,33.7629357 102.77377,31.1658418 100.507812,27.0851817 C90.7398542,9.4945087 94.2675211,-0.19045973 104.706371,-3.37396354 C115.14522,-6.55746736 124.454488,-2.48689958e-14 141.086366,-8.8817842e-15 C141.991002,-7.99360578e-15 142.819546,0.0565997473 143.571999,0.169799242 L151.93825,0.646263248 C175.941936,81.8376146 182.562009,136.00722 171.79847,163.15508 L98.8752436,163.15508 C94.5546199,173.210112 90.4201477,181.670005 86.471827,188.534759 L66.6015625,188.534759 C64.7314914,128.188035 79.1072737,76.9686029 109.728909,34.8764632 Z" id="Coat-Front" fill="#FF9B21"></path>
                    <path d="M114.754769,121.457034 C117.04819,140.608285 120.775767,154.507634 125.9375,163.15508 L98.8752436,163.15508 C103.91513,151.426167 109.208305,137.526818 114.754769,121.457033 Z" id="Shade" fill-opacity="0.1" fill="#000000"></path>
                </g>
            </g>
        </g>
    </g>
</svg>