<?xml version="1.0" encoding="UTF-8"?>
<svg width="595px" height="842px" viewBox="0 0 595 842" version="1.1" xmlns="http://www.w3.org/2000/svg" xmlns:xlink="http://www.w3.org/1999/xlink">
    <!-- Generator: Sketch 55.2 (78181) - https://sketchapp.com -->
    <title>A4</title>
    <desc>Created with Sketch.</desc>
    <g id="A4" stroke="none" stroke-width="1" fill="none" fill-rule="evenodd">
        <rect fill="#FFFFFF" x="0" y="0" width="595" height="842"></rect>
        <g id="Group" transform="translate(0.000000, 113.000000)">
            <path d="M1.75702433,415.521956 C16.9728394,337.295843 170.938826,381.860143 271.877203,357.676386 C372.81558,333.492629 492.234089,220.863999 571.267359,276.035151 C650.30063,331.206304 566.210138,464.570967 384.941696,494.666938 C203.673254,524.762909 -13.4587907,493.74807 1.75702433,415.521956 Z" id="Background-Shape" fill="#F2F2F2"></path>
            <g id="Cells" opacity="0.5" transform="translate(45.000000, 53.000000)">
                <path d="M1.99845033,2.85768892 C0.550673736,4.19968479 1.11303324,8.96915712 1.08269318,10.7341907 C1.03611477,13.4819549 1.22029178,16.2051608 1.46771287,18.9430225 C1.63351491,20.7761857 2.56807436,38.2700604 5.16877341,36.9264802 C6.63492498,36.1695279 5.71574922,31.1089201 5.71318527,29.5082692 C5.70720273,25.9496828 5.54781056,22.3998106 5.2922703,18.8491462 C5.05467768,15.5527797 4.9055413,12.2948352 5.04228526,8.99213108 C5.07561659,8.18606213 5.88796114,-0.759916824 1.99845033,2.85768892" id="Fill-5" fill="#89C5CC"></path>
                <path d="M59.64781,0.0154323953 C48.1544884,0.10713529 36.6659052,0.675535128 25.1781118,1.02376896 C19.6502135,1.19136391 14.125869,1.40441503 8.60389379,1.71154067 C6.72229969,1.81628751 2.68664561,1.21231328 1.1189796,2.21748768 C-2.36108101,4.44918829 3.25132128,4.97094614 4.74751436,4.91639873 C27.4818306,4.08988687 50.2240444,3.00131026 72.9777097,2.94992502 C84.1393338,2.92502294 95.2954296,3.24361145 106.458238,3.17206738 C110.725291,3.14479367 115.450402,1.30164455 116.528024,6.28126983 C117.744249,11.9004437 116.346775,18.1567947 115.966508,23.8032423 C115.712601,27.5725475 115.803028,31.263589 115.972431,35.029732 C116.081022,37.4424668 115.79829,40.1611414 116.223573,42.5288153 C116.633062,44.8087389 118.267857,46.1759817 119.76642,43.6221351 C120.661608,42.0959934 120.216186,38.327874 120.275812,36.5598264 C120.355973,34.1787133 120.280551,31.7983908 120.280551,29.4168824 C120.279761,23.6040257 121.098343,17.8140946 120.990147,12.0024237 C120.920648,8.25485842 120.722025,1.4609388 116.007575,0.560511238 C110.816113,-0.431223945 104.434883,0.566045034 99.1221932,0.505173285 C85.9581423,0.354574997 72.8162046,-0.0877333611 59.64781,0.0154323953" id="Fill-7" fill="#89C5CC"></path>
                <path d="M28.1299358,37.0681618 C23.7821419,37.0681618 19.4339519,37.0930361 15.0865541,37.1616287 C11.3579495,37.2204224 5.49565752,36.4798479 2.02534549,37.7510733 C-0.350392098,38.6212955 -0.981465964,41.1486709 2.02534549,41.8217835 C5.30471113,42.5563279 10.2471327,41.3555795 13.6782254,41.2979165 C30.8832085,41.0084706 48.2537841,40.631211 65.4346017,41.6680153 C81.5335219,42.6392421 97.9426309,43.581072 114.06532,42.555951 C115.421753,42.4696448 122.340192,42.2073345 119.183238,39.7361145 C117.341517,38.2937844 109.87678,39.2423982 107.483216,39.1734286 C99.0407707,38.9307162 90.5900063,38.8768219 82.1503342,38.5719238 C73.820793,38.2707945 65.5280942,37.3783363 57.1957799,37.157483 C47.5153524,36.9008259 37.8135326,37.0681618 28.1299358,37.0681618" id="Fill-9" fill="#89C5CC"></path>
                <path d="M23.4930467,12.1055653 C30.2596881,12.403815 36.9543355,22.3114447 30.1077887,27.0997868 C23.6848988,31.5926705 11.6472708,26.6687603 15.2188834,17.9565215 C14.705432,19.2161079 15.8680158,16.588082 15.8826519,16.5705379 C16.5618477,15.762712 17.7813938,14.8683618 18.6184225,14.2315908 C19.576496,13.5027134 20.5741266,12.7004697 21.7291946,12.3352335 C22.4875047,12.0955971 22.3684377,12.9975231 23.4930467,12.1055653 M20.1975428,8.53215186 C17.0305996,9.78057382 15.5851824,11.1888863 13.4087495,13.7371663 C11.9028098,15.5007467 9.98310268,16.4285902 10,18.8117962 C10.0036724,19.3393153 10.6749568,19.9190679 10.7908591,20.4270493 C10.9510655,21.1292118 10.7655426,22.0287455 10.8925209,22.7747683 C12.2026528,30.4726394 21.2999998,33.0679695 27.9590458,31.6146006 C33.7597023,30.3486345 38.0979319,24.7269478 36.7541764,18.6140264 C35.4013228,12.4604345 26.3629159,6.09750975 20.1975428,8.53215186" id="face" fill="#89C5CC"></path>
                <path d="M18,19.0099253 C18,21.6633582 22,21.6633582 22,19.0099253 C22,16.3866755 18,16.2739667 18,19.0099253" id="Fill-13" fill="#89C5CC"></path>
                <path d="M23,18.5073172 C23,20.4975609 26,20.4975609 26,18.5073172 C26,16.5397923 23,16.4557686 23,18.5073172" id="Fill-15" fill="#89C5CC"></path>
                <path d="M23.9385024,23.0810872 C22.8766442,23.5077337 21.529795,22.6230288 20.6580578,23.20594 C19.1142295,24.2389572 20.6618679,25.1737623 21.4894086,25.5888778 C25.2152469,27.4576927 25.8781938,22.304535 23.9385024,23.0810872" id="Fill-17" fill="#89C5CC"></path>
                <path d="M82.9947864,16.6439128 C82.879595,16.6927926 82.4687061,16.866237 82.9947864,16.6439128 M66.1372597,14.1865212 C63.2400579,14.8389086 60.7937254,17.5375456 57.6459526,17.1764659 C55.2336629,16.8997433 53.6003995,14.5779537 51.2189859,14.2405255 C48.1725499,13.8084913 39.8815412,20.7399596 44.2406048,21.9292362 C46.7839197,22.6234079 48.1947173,17.9877126 50.4415431,17.7413427 C52.2188946,17.546612 54.6359345,19.7205796 56.4778091,20.0300202 C59.9137582,20.6075112 62.2734003,18.7197267 65.289752,17.5024625 C68.5673625,16.1795549 70.4321962,17.3708024 73.2826881,18.8411378 C75.5326806,20.0016384 77.6516479,20.757304 80.2262347,20.278361 C82.6424828,19.8293766 85.6778352,17.3510929 88.1099172,17.6053465 C90.4921225,17.8544758 92.192284,20.3339421 94.6425749,20.5641501 C95.6527756,20.6587561 97.1565972,21.0020971 96.9867789,19.4474047 C96.8510035,18.2025471 95.4584149,18.4134397 94.5871564,17.9609075 C92.3466642,16.7972534 90.2510518,14.7360246 87.5470232,14.9118341 C85.5131629,15.0442825 83.6613922,16.46968 81.7870582,17.1516318 C75.6482679,19.3847283 72.1972765,12.8308957 66.1372597,14.1865212" id="Fill-19" fill="#89C5CC"></path>
                <path d="M71.791269,54.0423236 C59.9622533,54.1431117 48.0932988,54.3062052 36.2974997,55.1865437 C33.5009897,55.3950835 4.94590251,57.8979276 5,58.0782467 C5.10012181,58.4117638 8.77291373,58.921202 8.74997855,59 C8.5024368,58.4300889 7.93657061,58.1940615 7.05277539,58.2926506 C34.1348706,58.2926506 61.1311565,56.0415935 88.2488408,56.4465786 C95.0625657,56.5480997 101.901994,56.5055854 108.710974,56.7049627 C110.410945,56.754807 114.622713,57.885833 115.957699,57.1733526 C119.461245,55.3030914 113.096338,55.0872216 112.042111,55.0087901 C98.6970005,54.0177679 85.1739452,53.9184458 71.791269,54.0423236" id="Fill-21" fill="#69A1AC"></path>
                <path d="M0.877322769,59.9038174 C-1.01247313,61.7142762 0.727728013,68.2272514 0.802102807,70.6750594 C0.909861741,74.2141415 0.821119089,77.7782176 1.14608623,81.3080277 C1.51711503,85.3401382 2.09267451,89.6358961 3.19984474,93.5478738 C3.80963353,95.7030091 5.95002177,99.1280052 6.79814797,95.2119962 C7.40371092,92.4150773 6.48416802,88.7046648 6.16427189,85.8553389 C5.73619424,82.0437407 5.63266115,78.2821307 5.61660295,74.4519884 C5.60223509,71.1144716 5.53504423,67.7632483 5.24853224,64.4362129 C5.09978265,62.708799 4.19038176,56.7549656 0.877322769,59.9038174" id="Fill-23" fill="#69A1AC"></path>
                <path d="M45.5444534,93.0768644 C37.1073644,93.2329292 28.6519927,93.4471442 20.2292119,94.0149635 C16.7769529,94.2479918 13.327476,94.594755 9.88793542,94.9881238 C9.18603703,95.0680803 1.41746057,95.4080022 4.88879725,98.4972301 C6.45554893,99.8919791 12.9006137,97.9636168 15.029361,97.7626566 C18.6095993,97.424445 22.1890426,97.2046715 25.7796146,97.0409104 C34.0990581,96.6603688 42.4439384,96.324295 50.7717284,96.4799323 C65.9805868,96.7642695 81.0916723,96.8912592 96.3049027,96.5256828 C98.466241,96.4739462 115.399639,96.9613815 115.974751,94.5383151 C116.438178,92.585581 110.382616,93.4813502 109.278497,93.5168389 C105.228074,93.6472492 101.177254,93.6168914 97.1252415,93.5946575 C79.9605269,93.4997359 62.6960521,92.7643073 45.5444534,93.0768644" id="Fill-25" fill="#69A1AC"></path>
                <path d="M113.001234,57.1291769 C113.253791,64.7063187 114.459992,72.274655 114.845572,79.874611 C115.021687,83.3487852 115.229278,86.8197573 115.388156,90.2951322 C115.439492,91.4162338 115.01719,94.1175243 116.256366,94.7623278 C117.956065,95.6468814 118.185014,93.864566 118.503146,92.6590115 C119.422317,89.1768324 118.800668,84.6536017 118.717107,81.0769635 C118.636543,77.6131958 118.630923,74.1434244 118.392231,70.6860608 C118.147543,67.1538504 117.482802,63.6884817 117.174413,60.168679 C117.044013,58.6801475 117.500039,56.2029973 116.02292,55.2792192 C114.746273,54.4807195 112.946152,55.4869492 113.001234,57.1291769" id="Fill-27" fill="#69A1AC"></path>
                <path d="M30.2667798,69.7062983 C30.2986738,69.7311538 30.3301739,69.7564103 30.3616741,69.7816668 C30.3301739,69.7564103 30.29828,69.7315547 30.2667798,69.7062983 M23.1634862,67.457672 C25.8122587,68.229397 27.9877408,67.9415536 30.5179938,69.907949 C32.615513,71.5383935 34.7669762,73.9237254 35.4627367,76.5600183 C37.070034,82.650833 31.6208944,85.9886941 26.5123505,86.0544411 C21.2797747,86.1213907 13.5346646,84.8838244 13.80281,78.0441357 C14.0083488,72.7891894 17.7710469,67.6617281 23.1634862,67.457672 M23.3501249,64.0155779 C16.4815077,64.3643575 10.9410175,72.2303402 11.0004741,78.8515405 C11.072137,86.8762781 19.9886605,88.9436994 26.3225619,88.9994239 C33.471137,89.0619637 40.5996307,84.0283121 38.6840252,75.8303874 C37.1491783,69.2621054 29.9553216,63.6655956 23.3501249,64.0155779" id="face" fill="#69A1AC"></path>
                <path d="M17,74.5073699 C17,76.4975434 20,76.4975434 20,74.5073699 C20,72.5400147 17,72.4555161 17,74.5073699" id="Fill-31" fill="#69A1AC"></path>
                <path d="M24,73.5074453 C24,75.4975182 28,75.4975182 28,73.5074453 C28,71.5400109 24,71.45547 24,73.5074453" id="Fill-33" fill="#69A1AC"></path>
                <path d="M20.3844853,78.3222923 C18.2191332,80.8130791 25.8260139,85.1796705 27.6199576,81.7144736 C29.0935003,78.8686052 25.8853334,79.8121575 24.7480607,79.6583033 C23.512174,79.4905413 21.3932953,77.1631703 20.3844853,78.3222923" id="Fill-35" fill="#69A1AC"></path>
                <path d="M83.6469792,73.820037 C83.4296874,73.9121532 83.4296874,73.9121532 83.6469792,73.820037 M53.8854872,70.1155363 C51.6011682,70.5483236 44.1046024,73.1033571 44.0034358,75.8414318 C43.8184229,80.818089 51.1602864,75.7207278 52.7545466,75.065988 C57.0854233,73.2879865 59.3610821,76.915062 63.7116411,77.1064413 C67.4902346,77.2728064 70.9645409,74.0058576 74.5238744,74.3921898 C78.2532623,74.7967864 80.0471003,78.8050324 84.3523901,76.6768304 C86.6300172,75.5511863 86.5725451,73.8156694 84.0158241,73.6520837 C82.4703758,73.5532177 81.4087166,74.1984281 79.7975297,73.5266151 C77.2778113,72.4768081 76.2629958,70.7670996 73.2476789,71.0386836 C70.9724138,71.2435627 68.9160149,72.5391453 66.6950727,73.0406227 C61.6095795,74.1885018 58.788723,69.1876243 53.8854872,70.1155363" id="Fill-37" fill="#69A1AC"></path>
                <path d="M100.949288,76.2359518 C100.792994,76.3047891 100.792994,76.3047891 100.949288,76.2359518 M101.522754,74.0974895 C101.547824,74.1089624 101.719394,74.3580877 101.522754,74.0974895 M98.9170847,72.4650631 C98.8191567,72.544144 98.8191567,72.544144 98.9170847,72.4650631 M98.973883,72.4449855 C99.4791917,72.7617189 103.541639,75.6721419 100.590871,76.3576463 C99.0929635,76.7055203 97.8535861,73.5476109 98.973883,72.4449855 M97.6287433,69.2206974 C91.1212286,72.3294373 98.1238675,83.4540303 103.231011,78.9341266 C105.379944,77.0320875 105.66276,73.1878543 103.572192,71.2063246 C102.319497,70.0188819 99.329166,68.4069427 97.6287433,69.2206974" id="point" fill="#69A1AC"></path>
                <path d="M36.3051505,112.029247 C28.0782938,112.031748 19.779209,111.850029 11.5634644,112.363094 C10.1808127,112.449369 4.91371952,112.172622 4.20136024,113.693062 C2.8980801,116.473866 8.31756659,115.093467 9.10493194,115.01011 C25.4633995,113.287528 42.5512912,114.278648 58.9637314,114.769623 C72.3866438,115.170989 85.737725,115.420228 99.1447631,116.147939 C102.668858,116.339244 106.189778,116.550555 109.711492,116.773953 C110.859204,116.846891 113.74793,117.647122 113.990013,115.718648 C114.213841,113.933965 110.610374,114.336998 109.710301,114.286984 C102.551785,113.890619 95.3980311,113.475499 88.2414992,113.051626 C71.0158979,112.030081 53.558135,112.025913 36.3051505,112.029247" id="Fill-41" fill="#89C5CC"></path>
                <path d="M4.13259514,114.854604 C2.66857432,116.398577 3.35483408,122.294511 3.31399879,124.243401 C3.24253703,127.651756 3.0909171,131.057308 3.02285829,134.464862 C2.95215273,138.026213 3.05045992,141.603984 3.24896481,145.160128 C3.33214781,146.653236 4.48725721,153.869657 6.3059401,149.739981 C7.11848678,147.894422 6.28627866,142.754254 6.29875611,140.663182 C6.32106428,136.857519 6.5142757,133.067877 6.69274105,129.267421 C6.8462515,126.000446 6.85192307,122.730268 6.98652829,119.462492 C7.0292541,118.420761 7.1453322,111.648507 4.13259514,114.854604" id="Fill-43" fill="#89C5CC"></path>
                <path d="M114.984316,145.006892 C106.96484,145.826732 98.8165693,145.439179 90.7664849,146.044855 C83.8286486,146.566607 76.8971726,146.77998 69.9414481,146.926846 C54.1906953,147.258583 38.413309,147.582006 22.7082705,148.891137 C19.1290419,149.189225 15.5541858,149.505919 11.9654168,149.665849 C10.1706348,149.745814 2.63930796,148.93112 2.07841373,150.818217 C1.12318422,154.03226 9.17724377,152.76034 10.9143861,152.710065 C14.7345091,152.600014 18.5367439,152.32449 22.346134,152.035112 C38.3596444,150.818217 54.4343722,150.454416 70.482069,149.948498 C79.2099172,149.673766 87.8769455,149.036816 96.5853154,148.457267 C100.925786,148.16868 105.278182,148.15918 109.618255,147.879302 C110.753957,147.806066 114.773633,147.950558 115.590527,147.038876 C116.151818,146.413011 116.293731,144.884965 114.984316,145.006892" id="Fill-45" fill="#89C5CC"></path>
                <path d="M113.002013,115.331749 C113.268033,122.965389 113.688205,130.592332 113.939231,138.225972 C114.014962,140.521422 113.33915,144.635661 114.584674,146.660085 C116.587121,149.915156 118.150176,146.470209 118.516914,144.441846 C119.674405,138.040036 118.430035,130.968144 118.106737,124.526941 C117.983722,122.069585 118.727192,116.600214 117.570085,114.400885 C116.467951,112.305947 112.903217,112.516308 113.002013,115.331749" id="Fill-47" fill="#89C5CC"></path>
                <path d="M98.9929154,125.854446 C102.07588,126.715571 102.526219,133.627152 99.0475624,134.138407 C93.8696653,134.899334 96.1341227,127.279388 98.9929154,125.854446 M98.1293343,123.105993 C97.1887687,123.075605 95.0180488,122.808275 94.4384721,123.597536 C93.9534307,124.258265 94.4436576,125.651587 94.3870162,126.280697 C94.1831872,128.529394 92.4101533,129.827856 93.2027333,132.482682 C93.7408262,134.284597 95.1815907,135.97769 96.9374726,136.603514 C106.203519,139.905929 106.090635,121.44493 98.1293343,123.105993" id="hola-:)" fill="#89C5CC"></path>
                <path d="M15.0626154,124.815648 C15.0392766,124.845611 15.0159378,124.875574 14.9930014,124.905536 C15.0159378,124.875574 15.0392766,124.845611 15.0626154,124.815648 M22.4042839,120.878778 C22.3676661,120.563763 22.3310483,120.248344 22.2944305,119.932925 C27.3625759,122.344121 31.3953631,126.82923 29.7125537,132.849325 C28.4285162,137.442138 23.7893221,139.071062 19.4672141,137.937334 C14.682756,136.68173 12.3963565,132.707204 13.6864299,127.826505 C14.2815698,125.574841 16.1092408,122.549002 18.4716927,121.825036 C19.571434,121.488156 22.0035,122.346955 22.4042839,120.878778 M19.4406561,118.97209 C18.1586306,119.059144 16.9108085,119.597665 15.8645856,120.333778 C16.8440112,119.498869 18.1493756,119.001648 19.4406561,118.97209 M19.477274,116.005772 C16.3104375,116.103354 14.2352945,118.03555 12.3569219,120.356048 C11.7674155,121.084468 9.77436077,123.01545 10.021028,123.996934 C10.2161888,124.772728 10.7268261,125.907266 11.8020213,125.042393 C6.17052506,136.354164 20.7186577,146.002189 29.5998835,138.136141 C37.8883837,130.795253 29.6650712,115.661605 19.477274,116.005772" id="Fill-51" fill="#89C5CC"></path>
                <path d="M17,126 C17,127.333333 19,127.333333 19,126 C19,124.666667 17,124.666667 17,126" id="Fill-53" fill="#89C5CC"></path>
                <path d="M21,127 C21,128.333333 23,128.333333 23,127 C23,125.666667 21,125.666667 21,127" id="Fill-55" fill="#89C5CC"></path>
                <path d="M22.015339,132.005721 C20.9499081,132.109244 17.0500658,131.676121 16.3655624,132.792585 C15.2216138,134.657846 17.0473449,134.722838 17.9440793,134.924312 C18.751801,135.105824 22.2629419,135.00323 22.7577589,134.14534 C23.1950481,133.387259 23.0928196,131.896164 22.015339,132.005721" id="Fill-57" fill="#89C5CC"></path>
                <path d="M70.2883506,128.125128 C70.1030798,128.202761 70.1030798,128.202761 70.2883506,128.125128 M55.3762129,127.019552 C52.9468443,127.200696 50.8891974,128.617203 48.5664284,129.182532 C46.0871036,129.78608 45.0140276,128.676125 42.7597026,127.949558 C40.4145123,127.193928 38.7462882,127.492517 36.8613247,129.116046 C35.7933623,130.036099 33.4501388,132.153693 34.1176645,133.787971 C35.6462471,137.528697 39.1062092,131.442653 40.7335242,131.15959 C43.2722459,130.718077 45.5308978,132.968245 48.4582555,132.324486 C51.1110504,131.74164 53.4648946,129.895165 56.2356964,129.875259 C58.5525651,129.858538 60.736086,131.143666 63.0234529,131.454597 C66.5152769,131.929552 68.8081508,130.672691 72.0360327,129.7395 C74.8351562,128.930523 76.7980042,129.997481 79.430738,130.894841 C80.6340149,131.304904 84.6490028,132.795859 83.9098863,130.092234 C83.7010141,129.328642 78.4099783,127.963094 77.5898304,127.700335 C74.6970881,126.773913 72.8652278,127.135007 70.1097668,128.199975 C67.8117793,129.088576 65.8788264,129.521331 63.4148424,129.032441 C60.7002905,128.493786 58.2315863,126.79979 55.3762129,127.019552" id="Fill-59" fill="#89C5CC"></path>
            </g>
            <g id="Big-Cards" opacity="0.5" transform="translate(225.000000, 0.000000)">
                <path d="M3.8097855,54.6918264 C4.20652188,46.144746 4.75193502,37.6096079 5.03935025,29.0573525 C5.18166651,24.8194401 5.29337285,20.5811295 5.40110387,16.3424209 C5.42495575,15.3985838 5.4496027,14.4551447 5.47067187,13.5113075 C5.5406374,10.3048089 5.16099488,10.0424771 8.38219215,9.75785306 C22.7525562,8.48719587 37.1797673,8.06603192 51.5676228,6.9163897 C68.9194727,5.52989251 86.3619598,4.57252078 103.763104,4.14339533 C111.495885,3.95231906 119.261264,3.55663195 126.995239,3.79746766 C128.708997,3.85080979 132.07251,3.40416901 132.747121,4.73851829 C133.038512,5.31493171 132.427108,7.29854224 132.34959,7.9637265 C132.107095,10.0416809 131.8809,12.1268007 131.741366,14.2151051 C130.918476,26.531563 131.40903,39.1585199 133.789846,51.2882804 C128.204927,48.1335315 121.148744,45.4198504 114.639166,45.9584467 C108.002776,46.5073929 103.038404,50.348424 97.7265886,53.883733 C94.7216484,55.8832666 93.7095334,56.4091244 90.7117488,54.4720887 C88.1285895,52.8025598 85.6845662,50.8937875 83.2473009,49.0204439 C79.4862559,46.1292211 75.9366977,42.994376 72.2893467,39.9634287 C65.5833888,34.3903708 56.3443606,26.4579191 47.0822755,28.7934284 C40.4649671,30.4621612 34.3545114,34.1053487 28.6109771,37.6709115 C20.0779647,42.968103 12.3535312,49.4551424 3.8097855,54.6918264 M118.816427,0.00181717489 C85.846759,0.00181717489 53.1239584,3.20353892 20.2473131,4.9355657 C16.813834,5.116292 13.3918834,5.38260455 9.97033026,5.71340535 C7.69008991,5.93393921 2.11391637,5.00801545 0.619595685,6.95977993 C-0.377413171,8.2618851 0.479267086,8.4573402 0.619595685,9.69455905 C0.796497177,11.253821 0.691548876,13.1012897 0.64583276,14.751711 C0.536114082,18.7284859 0.420829964,22.7048627 0.330590327,26.6820356 C-0.00969658708,41.7133689 -0.222375908,56.7419156 0.385052135,71.7692681 C0.517430105,75.0466242 1.7096269,79.5842875 1.0572778,82.768892 C0.585407981,85.0745457 -0.993189374,86.477762 2.64700604,86.9037029 C6.22916186,87.3232745 10.6091633,86.256432 14.1944994,85.9148832 C17.8005071,85.5709459 21.4061172,85.1979491 25.0164978,84.8997905 C40.7134243,83.6040545 56.5626054,83.7999077 72.3008751,83.36919 C88.1810636,82.9348895 104.066818,82.9070242 119.952174,82.8982666 C126.5989,82.8946839 134.193738,83.2688749 140.679066,81.4365331 C142.960896,80.7916507 143.329805,80.4739864 142.767298,78.2061499 C142.660363,77.7758302 141.971441,77.6169981 141.769097,76.8391584 C141.494403,75.7806755 141.635526,74.4940953 141.571126,73.3922221 C141.36123,69.793619 141.288084,66.1886467 141.118736,62.5876552 C140.836091,56.5711412 139.800919,50.7321688 139.035273,44.7761622 C138.151561,37.8978146 138.196879,30.9139769 138.178991,23.9906467 C138.168655,20.1504118 138.267243,16.3229152 138.574932,12.4934283 C138.772505,10.0373021 139.979808,6.37023003 139.36761,4.07970324 C139.062703,2.93921675 138.563403,2.03478907 137.378362,1.5439619 C136.627823,1.23266681 135.996543,1.47628906 135.254352,1.3974701 C134.374217,1.30392234 133.824829,1.18012084 132.770178,0.940877427 C128.252233,-0.0849632978 123.420636,0.00181717489 118.816427,0.00181717489" id="Fill-67" fill="#69A1AC"></path>
                <path d="M100.06852,16.985133 C100.065912,19.3963143 99.6580982,22.9543405 100.862844,25.2247727 C102.391058,28.1047168 104.302738,27.2044836 104.809244,24.4981702 C105.099235,22.9475236 105.092279,18.35854 104.552296,16.985133 C103.788406,15.0411106 100.06852,13.717026 100.06852,16.985133" id="Fill-69" fill="#89C5CC"></path>
                <path d="M105.030927,17.0176748 C102.797674,17.0990573 96.2938158,16.5449203 94.7828184,18.4011769 C92.1910106,21.5849084 96.7030277,22.1488604 98.6402546,21.9705551 C100.882214,21.7644406 107.809927,22.267458 109.311426,20.4091566 C111.822896,17.3002642 106.786897,16.9514238 105.030927,17.0176748" id="Fill-71" fill="#89C5CC"></path>
                <path d="M17.3394077,97.9173563 C27.2629238,99.6421652 24.1756254,114.780954 14.7857264,111.274523 C11.5140222,110.052633 6.69306862,106.522196 8.50152622,102.36241 C9.85236924,99.2544733 14.2549095,97.6212861 17.3394077,97.9173563 M13.2308768,93.2102404 C6.77707129,94.2972981 2.36493077,101.285355 4.57780125,107.3808 C6.71226923,113.261394 14.8089271,117.567615 20.7799173,115.454314 C26.4800988,113.436636 29.3237894,105.848036 27.4021282,100.29672 C25.3940642,94.4965453 18.8526559,92.2632159 13.2308768,93.2102404" id="Fill-73" fill="#89C5CC"></path>
                <path d="M73.3079959,99.0197024 C70.839708,99.2190568 68.7063336,100.900163 66.222459,101.197834 C63.9000463,101.476076 61.9752933,100.70314 59.8007541,100.085258 C57.1722033,99.3387472 54.7614662,99.0103759 52.0753647,99.6737249 C50.0227212,100.180855 47.9980537,101.539418 45.8658782,101.70341 C41.6702684,102.025563 36.794041,97.3692963 33.5184439,102.635673 C31.9481876,105.160441 34.2282365,106.786754 36.5770267,105.60928 C39.0257313,104.382065 37.82356,103.942553 40.8609609,104.66769 C43.3951923,105.271971 45.4434397,105.600342 47.9820673,104.753183 C50.2816996,103.986076 52.3003722,102.582046 54.7994337,102.424272 C57.2465397,102.269996 59.375518,103.354204 61.7147163,103.822085 C64.5914547,104.397221 67.1368766,103.961983 69.8625442,103.084901 C72.4551257,102.250566 73.4894407,101.794343 76.105602,102.538522 C77.7621845,103.0099 81.3810878,104.507196 82.9933082,103.300577 C85.7813225,101.214544 82.0489163,100.909489 80.5789741,100.612984 C78.2125991,100.136165 75.7638944,98.824234 73.3079959,99.0197024" id="Fill-75" fill="#89C5CC"></path>
                <path d="M129.41042,98.0724778 C129.430582,98.0880051 129.45034,98.1035324 129.469695,98.1190597 C129.45034,98.1035324 129.430178,98.0880051 129.41042,98.0724778 M126.965656,97.5539471 C130.601553,97.7913516 134.533418,104.50569 129.715663,104.743912 C126.324525,104.911852 122.530966,99.032311 126.965656,97.5539471 M126.455574,92.059729 C114.958365,95.3143361 120.214025,111.745914 131.303974,109.847904 C136.340681,108.985729 138.047944,103.069822 136.382617,98.6907101 C135.667695,96.8098618 134.273337,95.2240325 132.6068,94.1416152 C131.377361,93.3431843 127.860416,91.6629653 126.455574,92.059729" id="Fill-77" fill="#89C5CC"></path>
                <path d="M4.93418752,194.04361 C4.60070509,192.546118 4.78117408,190.257377 4.76260314,189.728207 C4.67545237,187.247761 4.6449496,184.766114 4.55027218,182.286468 C4.32526474,176.377251 4.17592001,170.434023 3.72511285,164.538011 C3.29450883,158.902088 2.20670878,153.437023 2.17541373,147.759085 C2.15441831,143.918975 1.09830945,134.188854 4.42667654,131.580364 C10.14654,128.207613 7.88458136,140.107274 7.79069622,142.166777 C7.50864464,148.367293 7.89131574,154.294515 8.50889778,160.455818 C9.0745855,166.102945 8.42412385,171.724463 8.20703921,177.371991 C8.09176251,180.370214 8.02877627,183.364036 7.80535339,186.357057 C7.73594345,187.290419 7.84283813,191.496271 7.35834917,193.736481 C8.60550258,193.68245 9.79183268,193.738796 10.4536672,193.718569 C15.0873151,193.576921 19.7213592,193.452878 24.3542148,193.276818 C42.176547,192.599787 60.0087828,192.905892 77.8275497,192.0508 C94.68132,191.241324 111.596888,191.069665 128.463335,190.860394 C129.938956,190.990438 130.598925,192.555372 129.651754,193.758183 C128.725183,194.934984 124.429443,194.676896 123.09049,194.786133 C118.339981,195.171865 113.598583,195.345524 108.833813,195.39154 C98.7995899,195.487973 88.8033968,195.922521 78.785812,196.499918 C60.9868521,197.525068 43.1617469,197.440239 25.3532795,198.172089 C21.0306014,198.34975 16.7075271,198.482595 12.3828683,198.597034 C10.1022911,198.657455 4.13008663,200.045528 3.00029575,197.292189 C2.20227293,195.34664 3.31160204,194.451144 4.93418752,194.04361 Z M103.523558,124.012741 C108.915814,123.962324 114.278359,124.057557 119.662692,124.369663 C122.050623,124.50811 124.437365,124.641756 126.826881,124.743791 C128.207428,124.803011 131.361098,124.345655 132.571701,124.992676 C137.324983,127.533543 127.641345,127.812038 126.464017,127.792031 C121.524153,127.708002 116.593796,127.31947 111.654328,127.197028 C93.4865622,126.746074 75.1833162,127.863255 57.0317917,128.615512 C48.300077,128.977636 39.5731159,129.029253 30.8445702,129.524622 C26.0738579,129.795515 21.3055225,130.105221 16.5340179,130.359307 C14.3342532,130.476547 12.1336963,130.590186 9.93076257,130.646205 C8.57398356,130.681017 5.81090805,131.248811 4.55672926,130.730634 C3.4887362,130.289283 2.62515131,129.672273 3.21223058,128.364627 C3.84446979,126.957346 6.59605725,127.556351 7.76070843,127.533543 C11.9653369,127.451115 16.1608541,127.212633 20.3579559,126.952945 C29.8878925,126.363544 39.3976259,125.674108 48.9469734,125.509652 C67.14445,125.195945 85.3177622,124.1832 103.523558,124.012741 Z M128.55534,130.27916 C128.558567,127.7579 131.550611,127.250927 132.87768,128.965512 C134.146912,130.605671 133.330071,135.571366 133.36097,137.533636 C133.463174,143.999842 134.06808,150.428836 134.642879,156.865433 C135.21332,163.249211 135.616987,169.635791 136.057098,176.029573 C136.26111,178.984581 138.508412,190.778606 135.241842,192.500393 C131.072867,194.697543 131.8596,183.518528 131.742739,181.480633 C131.367991,174.920794 130.89698,168.352153 130.309505,161.80872 C129.359958,151.23031 128.547475,140.900384 128.55534,130.27916 Z" id="Image-Border" fill="#69A1AC"></path>
                <path d="M73.2625161,161.073966 C78.9730276,163.110107 84.6513981,165.237118 90.3047395,167.428507 C93.3297858,168.600904 96.3386066,169.811402 99.3569253,171.000468 C100.868657,171.595795 107.155007,173.09086 107.516714,174.605371 C108.026825,176.743786 101.325738,174.117203 100.259611,173.775089 C97.24802,172.809468 94.2740244,171.728355 91.3000288,170.653194 C84.6456394,168.248073 78.0197433,165.766751 71.339235,163.434657 C70.714325,163.216486 70.0891443,162.999067 69.4637001,162.782386 C62.3726672,165.977767 55.2957724,169.20394 48.2419263,172.481296 C44.459827,174.238702 40.6979106,176.036986 36.9462833,177.85948 C34.1650137,179.210872 29.1311848,183.066209 26.0673559,182.999136 C24.9082297,182.973338 24.1270365,182.724095 24.0059396,181.314361 C23.8516006,179.511711 26.7460522,178.771124 27.9154676,178.184528 C31.9251181,176.17272 35.9597004,174.211713 40.0057591,172.275313 C48.0416813,168.429898 56.1527943,164.738078 64.2927964,161.119681 C64.3396394,161.098857 64.3864837,161.078026 64.4333294,161.057189 C59.918899,159.524382 55.3918295,158.028062 50.8548755,156.563393 C48.2619788,155.726364 30.0824164,151.225295 30.7452831,148.809062 C31.4896724,146.100721 47.5911973,152.486595 50.0677462,153.278379 C56.1647797,155.227804 62.2448806,157.232261 68.2932554,159.327861 C82.8078807,152.785793 97.4764781,145.815045 112.616367,141.054782 C113.569707,140.755531 114.172421,141.741789 113.955951,142.569294 C113.666268,143.676999 110.270413,144.573561 109.328153,144.995846 C105.599478,146.666333 101.851809,148.295545 98.1231344,149.967223 C90.0001491,153.608639 81.8617299,157.215923 73.7399319,160.859721 C73.5807871,160.931123 73.4216484,161.002538 73.2625161,161.073966 Z" id="Image-X" fill="#89C5CC"></path>
                <path d="M20.1722526,207.358675 C23.8820851,208.009786 26.4988595,211.572886 26.0919287,215.304603 C25.5418406,220.346457 20.5230277,222.657208 15.886627,221.999368 C10.6257912,221.252867 9.5192875,216.799981 12.0680424,212.516106 C12.6323672,211.567741 13.281321,210.432947 14.3071503,209.933432 C15.0122597,209.590263 15.9107502,209.893851 16.4786342,209.617179 C18.4697872,208.647043 17.2727226,207.101001 20.1722526,207.358675 M18.4832329,204.065122 C13.9563752,204.644195 5.59195078,209.889101 6.01549097,215.136778 C6.38287551,215.745141 6.93533643,215.994107 7.67287373,215.883676 C7.49531113,217.020448 7.55304864,218.14495 7.84648171,219.257578 C8.2763493,220.701896 9.13410716,221.88577 10.2837163,222.82622 C12.650954,224.763324 15.8870225,225.238695 18.8347989,224.899088 C24.3392395,224.265393 28.6774617,220.498845 28.9867132,214.766694 C29.288451,209.171494 24.4104228,203.315454 18.4832329,204.065122" id="Fill-117" fill="#89C5CC"></path>
                <path d="M39.8830057,210.801599 C37.8624117,211.837397 34.6658916,213.428562 33.4809171,215.395931 C32.2290615,217.473612 33.5253733,219.746814 36.1628465,218.76389 C38.2566163,217.983713 39.5883358,215.504341 41.8217689,214.70971 C43.7927923,214.008654 44.587103,214.365839 46.6702505,215.064232 C48.8167383,215.783546 50.692948,216.478897 53.0133265,216.302396 C55.929733,216.08063 58.4554756,214.44496 61.3101155,214.07294 C63.7135052,213.7595 65.6955443,214.664063 67.9974321,215.023911 C70.6679525,215.441197 72.4139409,214.463599 74.9125377,213.954639 C76.6121028,213.608105 79.6075863,215.017444 80.8472459,214.490226 C83.6346114,213.304935 80.6859446,211.855655 79.1429598,211.376746 C76.5436481,210.570323 74.9440111,211.28203 72.4717733,211.950752 C69.7874833,212.676914 68.6280809,212.131057 66.0622097,211.464236 C60.8710612,210.114998 56.8605596,213.377209 51.9400826,212.784184 C47.3843039,212.234903 44.6583116,208.356082 39.8830057,210.801599" id="Fill-119" fill="#89C5CC"></path>
                <path d="M125.446928,207.93343 C130.478032,212.629274 124.82621,219.310367 119.278567,215.557475 C117.326494,214.236473 117.2952,212.114828 118.814712,210.216701 C120.204296,208.480595 123.25758,207.803734 125.446928,207.93343 L125.446928,207.93343 Z M123.582001,204.138752 C118.881656,205.048986 114.447899,207.196255 114.022468,212.596949 C113.606939,217.866371 119.036142,220.313634 123.597053,219.967911 C133.836722,219.191709 133.096376,202.307641 123.582001,204.138752 L123.582001,204.138752 Z" id="Fill-121" fill="#89C5CC"></path>
            </g>
            <path d="M475.115851,19.005709 C470.975764,19.0907884 460.752179,20.6922816 459.23217,25.9007743 C458.078418,29.8544607 461.505473,28.9863786 463.342385,27.5477645 C465.827389,25.6023142 468.006314,24.4380468 471.085295,23.8461313 C482.81417,21.5899367 494.083708,29.6806623 505.700022,30.7038891 C510.100298,31.0915232 515.410588,31.3440314 519.611718,29.8285274 C522.60368,28.7493394 522.994181,26.3962363 519.579681,26.0377202 C516.678633,25.7333455 513.468475,26.6928765 510.494262,26.6655783 C498.186996,26.5536558 487.246916,18.7595705 475.115851,19.005709" id="Fill-79" fill="#C1DEE2" opacity="0.5"></path>
            <g id="Cards" opacity="0.5" transform="translate(0.000000, 256.000000)">
                <path d="M46.9861751,0.0270600592 C39.7188796,0.107586243 32.4551838,0.372059492 25.2022869,0.824821906 C18.3049556,1.25587383 10.8212811,0.928637525 4.03633883,2.24745115 C2.1097256,2.62166106 -0.492822097,4.35376348 2.06892956,6.25876035 C3.869555,7.59810025 10.4573163,6.05744489 12.6075079,5.92718194 C20.5259403,5.44718273 28.4483722,4.8720521 36.3780035,4.59573676 C43.8848757,4.33402667 51.391348,4.2416584 58.9018199,4.16784273 C60.0485088,4.15679012 61.9519242,3.79402755 63.0938135,4.12244807 C64.7344545,4.59455255 64.3452922,4.72284182 64.4680803,6.77704897 C64.6908587,10.4990165 64.6292647,14.2344051 64.5544719,17.9599253 C64.482079,21.565051 64.3468921,25.1697819 64.3600908,28.7764865 C64.3692899,31.3497717 63.5353707,36.4631844 64.8444438,38.697786 C66.7286612,41.9144912 68.6832717,38.4206812 68.824058,36.2831847 C69.0936319,32.1949019 68.9728436,28.0564877 68.9740435,23.9630734 C68.9748434,20.1207113 69.0028407,16.2783491 68.865654,12.4379607 C68.7660637,9.66375475 69.1680247,4.82113113 67.6529716,2.29916159 C66.1099211,-0.269386822 62.3946813,0.284428057 59.6837441,0.162059837 C55.4549541,-0.0297819527 51.2185648,-0.0163609221 46.9861751,0.0270600592" id="Fill-173" fill="#89C5CC"></path>
                <path d="M1.14623306,5.19403715 C1.15397288,12.4564273 0.3347128,19.6703724 0.1052271,26.9244237 C0,30.2595877 -0.213653536,33.9219544 0.609089464,37.1959665 C1.43957228,40.5017458 4.07730337,41.2180973 4.38109135,37.5275372 C4.99640714,30.0542919 4.84548063,22.3050686 5.32457556,14.7718627 C5.49369066,12.1121498 6.59429324,7.23786252 5.56683197,4.74731021 C4.66204686,2.55338459 1.14236315,2.13286564 1.14623306,5.19403715" id="Fill-171" fill="#89C5CC"></path>
                <path d="M68.0174658,37.0099654 C55.465102,38.5492348 42.3427005,37.9880927 29.7008332,38.2299516 C23.6356805,38.3460881 17.5717213,38.3534618 11.505773,38.4120831 C9.38871772,38.4323609 4.01254287,37.6865066 2.18110306,38.7888815 C-0.734323171,40.5438328 2.42892821,41.8980211 4.35902073,41.9367333 C16.3298109,42.1796982 28.4338619,41.6698037 40.4022653,41.3059094 C45.7796336,41.142581 51.1745047,41.0625758 56.5375524,40.6393228 C59.8392358,40.3786609 63.44722,40.1261102 66.653433,39.3043063 C67.3364439,39.1288111 68.8237926,39.1653112 68.976943,38.3022143 C69.07122,37.7683551 68.9001689,36.8971471 68.0174658,37.0099654" id="Fill-175" fill="#89C5CC"></path>
                <path d="M15.9368779,47.3848356 C12.4089025,47.4060574 1.77750757,45.7120653 0.31643498,49.2685748 C-1.63139362,54.0118359 5.96722975,52.9045618 8.01080044,52.8504672 C12.6522805,52.727298 17.2905423,52.7139825 21.9332292,52.716063 C26.4886218,52.7181436 31.0436121,52.6877674 35.5982002,52.5758333 C36.917671,52.5429604 39.9890612,53.1092889 40.7481592,51.4664786 C41.3250254,50.2181425 40.8692448,49.2332053 39.8052203,48.5724194 C37.2451251,46.9816231 30.5942679,47.9041435 27.5968968,47.7610009 C23.7161239,47.5762472 19.8224781,47.3848356 15.9368779,47.3848356" id="Fill-177" fill="#89C5CC"></path>
                <path d="M58.4429714,48.2229183 C56.36137,48.3394313 52.1508202,47.5320508 50.2860176,48.4281845 C48.1666217,49.447087 48.9133734,51.0422989 50.7432888,51.743332 C52.0104408,52.2285423 57.2086299,51.9740121 58.4429714,51.4117781 C59.7296437,50.8253032 61.1845219,48.0641791 58.4429714,48.2229183" id="Fill-179" fill="#89C5CC"></path>
                <path d="M80.7728543,5.00730241 C78.6228964,5.59676558 79.2751534,17.7927907 79.2197276,19.7262139 C79.0679092,25.0233516 78.4718813,31.6857309 80.233457,36.7873179 C81.3568331,40.0394038 83.514422,39.5985111 83.146925,36.1745653 C82.8240096,33.1694274 82.2701535,30.1988221 82.0303768,27.1740087 C81.4881681,20.329731 80.7503626,13.0293019 81.2624486,6.17940254 C81.480537,6.57733034 83.5200449,10.2691044 84,9.99364686 C83.8550094,10.0795768 81.6476176,4.77681749 80.7728543,5.00730241" id="Fill-181" fill="#89C5CC"></path>
                <path d="M104.967999,1.0662057 C100.657404,1.13031152 96.3468101,1.2072385 92.0374095,1.32743691 C88.6109785,1.42359564 83.2268143,0.857060472 80.0844934,2.3074546 C76.3429151,4.03430507 78.1180061,7.8822568 81.6323759,7.96359105 C84.7412722,8.0357101 88.0566854,7.33014544 91.1938334,7.22196687 C99.6673961,6.92988474 108.15608,6.86778223 116.633621,6.79486186 C124.300614,6.72835207 132.293497,7.55131051 139.893243,6.39259785 C141.020531,16.4656252 137.97172,26.5811226 139.008681,36.769941 C139.169438,38.3513514 139.097416,40.5858398 141.098522,40.9460344 C143.624077,41.400785 143.727933,38.8834297 143.82383,37.0808542 C144.097196,31.9339584 143.949172,26.7830559 144.323609,21.6293488 C144.670589,16.8534654 145.353806,11.972208 144.776434,7.18871198 C144.066557,1.30219525 141.263656,1.77417433 136.30884,1.52937024 C125.844119,1.01291774 115.444259,0.911550417 104.967999,1.0662057" id="Fill-183" fill="#89C5CC"></path>
                <path d="M89.8594658,37.1170913 C87.6446118,37.169336 83.9660282,36.5303726 82.5468365,38.5186765 C81.0702672,40.5874146 82.8220883,42.3919226 84.9691324,42.8166453 C87.5105971,43.3191713 90.824452,42.6302183 93.4622147,42.6227011 C96.2091151,42.6151839 98.956818,42.6437493 101.703718,42.6538976 C113.480562,42.6971216 125.307963,42.8640038 137.076381,42.4080846 C138.719867,42.3445641 143.384301,42.860621 144.521821,41.3846155 C145.531345,40.0754921 144.82516,38.9013028 143.495846,38.2345257 C141.314697,37.1403947 136.834833,37.5564727 134.408926,37.4696488 C131.412855,37.3629043 128.413172,37.3279493 125.415496,37.2843494 C113.583682,37.1133327 101.690076,36.8430888 89.8594658,37.1170913" id="Fill-185" fill="#89C5CC"></path>
                <path d="M99.6624735,47 C95.226582,47.0695675 90.4938606,46.8902544 86.1019887,47.5096659 C82.2403723,48.0543015 81.7650406,51.4910121 85.9218715,51.8931645 C89.7418913,52.2629513 94.3732464,51.5721122 98.2118433,51.3451807 C99.5752419,51.2644526 101.160758,51.3790344 101.814188,49.9914039 C102.496291,48.5416463 101.192258,47.1514117 99.6624735,47" id="Fill-187" fill="#89C5CC"></path>
                <path d="M133.430448,47.2983623 C131.127139,47.3556252 124.399892,46.3676441 123.259042,48.9923243 C121.359981,53.3623462 130.467143,51.7021144 132.214169,51.6377917 C134.41612,51.5569961 142.998035,52.8399203 143,49.3421771 C143.001964,45.9122864 135.539293,47.2461982 133.430448,47.2983623" id="Fill-189" fill="#89C5CC"></path>
                <path d="M0.16781115,68.7533499 C0.173579461,76.8361333 -0.346392547,84.9946842 0.41584851,93.0567313 C0.731045488,96.3912932 0.67707058,102.778881 2.67373013,105.605802 C4.09108647,107.612441 6.05684435,107.471673 6.83103405,105.062271 C7.34853393,103.451616 6.52078134,100.230306 6.42848837,98.5071968 C6.33949158,96.8534742 6.23566198,95.2005492 6.15655372,93.5464278 C5.95342678,89.2851113 5.96949565,85.0301752 6.03006291,80.7664661 C6.08197771,77.1092947 6.99213473,72.270551 6.1338925,68.7533499 C5.3337454,65.4754141 0.16781115,64.7089673 0.16781115,68.7533499" id="Fill-191" fill="#69A1AC"></path>
                <path d="M81.4787398,62.263832 C67.526897,62.6036012 53.5437285,62.3000433 39.6041781,62.9707214 C32.7295697,63.3012451 25.8819251,64.0273957 19.0418146,64.751235 C15.6812386,65.1071836 12.3226452,65.4739185 8.96801712,65.8753238 C7.95568077,65.9962847 -0.456267291,66.3129403 2.70763078,69.4190158 C4.08913483,70.7753958 8.48544237,69.3585354 10.2250113,69.1586032 C13.5931214,68.772607 16.9679724,68.4359196 20.3408408,68.0896016 C26.7590454,67.4304803 33.1851805,66.8060293 39.6307455,66.4597113 C54.8110325,65.6430327 70.0539709,65.8880363 85.2493259,65.3437122 C89.3597366,65.196556 93.457855,65.0910041 97.5698519,65.2481762 C98.649598,65.2893954 106.584126,65.6807848 103.13909,62.8355071 C101.510152,61.4895282 95.3683276,62.1840903 93.3325521,62.1436416 C89.3815457,62.0642851 85.4281601,62.1675256 81.4787398,62.263832" id="Fill-193" fill="#69A1AC"></path>
                <path d="M103.720466,104.017337 C103.718298,104.020562 103.716113,104.023775 103.713911,104.026975 C102.949815,105.137747 100.126208,104.828587 98.8897831,104.91158 C95.1267002,105.163707 91.4333705,105.589293 87.7037691,106.140745 C80.2724676,107.239323 72.9057376,107.914675 65.3939211,108.097968 C50.537297,108.460228 35.6192901,108.121568 20.784987,109.125353 C17.4994142,109.34798 14.2636652,109.729512 11.031902,110.339571 C8.72406917,110.775777 4.27660822,112.268082 4.00676317,108.507821 C3.6811156,103.976629 15.2083221,103.984495 18.5042582,103.682023 C32.6561762,102.383631 47.0408704,102.657391 61.2362347,102.852484 C68.100742,102.94649 74.9524944,103.153383 81.8114214,102.739597 C88.6636757,102.326223 95.7482876,102.434755 102.550346,101.70798 C101.674275,98.3578846 101.802471,94.1686727 101.556665,90.745704 C100.9253,81.957472 101.094302,73.1389533 100.68774,64.3416746 C100.508774,60.4657743 105.86183,59.8785287 107.449412,63.0157501 C109.052937,66.1848315 108.011024,72.4726477 108.114657,75.9862885 C108.354608,84.121195 109.883996,93.2280265 108.268513,101.273647 C107.706576,104.071829 105.31331,105.542466 103.720466,104.017337 Z" id="Wireframy-Stuff" fill="#69A1AC"></path>
                <path d="M111.85648,67.5453898 C109.966255,67.7927541 108.389411,69.349694 109.233311,71.3243963 C110.296339,73.8106755 113.462355,72.8392154 115.553812,72.6818366 C122.201612,72.1805984 129.142511,73.1815431 135.709978,72.426431 C137.503564,72.2200388 140.105655,71.2799779 138.495405,68.9606505 C137.284834,67.2176129 132.874442,67.5235635 130.999727,67.3566118 C124.587757,66.7856827 118.260098,66.9380836 111.85648,67.5453898" id="Fill-199" fill="#C1DEE2"></path>
                <path d="M122.837868,78.0963835 C120.296707,78.2767934 114.381442,78.1348654 113.310572,81.1852831 C111.389904,86.6575801 118.913434,84.7293454 121.204124,84.4181796 C123.865229,84.0565322 130.138365,85.0247874 131.555347,82.3020868 C134.089061,77.4335011 125.066234,77.93418 122.837868,78.0963835" id="Fill-201" fill="#C1DEE2"></path>
                <path d="M116.919647,90.2087695 C115.694447,91.5099905 115.692455,93.8335691 116.919647,95.1347901 C118.422161,96.7279923 121.695737,96.3970802 123.670003,96.5134496 C126.423616,96.6767898 134.332234,98.222598 135.699677,94.7810272 C137.54445,90.1372552 130.382905,90.2345823 128.027333,89.9709528 C125.304799,89.6666999 119.176008,87.8124071 116.919647,90.2087695" id="Fill-203" fill="#C1DEE2"></path>
                <path d="M20,15.5038034 C20,20.1653989 27,20.1653989 27,15.5038034 C27,10.8674955 20,10.7967694 20,15.5038034" id="Fill-205" fill="#89C5CC"></path>
                <path d="M34,16.0052006 C34,21.3369349 42,21.326262 42,16.0052006 C42,10.6920451 34,10.6378898 34,16.0052006" id="Fill-207" fill="#89C5CC"></path>
                <path d="M25.8075197,23.0745201 C21.7715105,24.2315805 25.4896365,27.7828562 27.3637238,28.5940717 C30.3420993,29.8838017 34.4069709,30.8342588 37.3861371,28.900896 C38.5714776,28.1315762 39.5338254,27.1092392 38.665182,25.6161919 C37.7396042,24.0266202 36.4724207,24.7335072 35.0632969,24.8801422 C33.2781694,25.066619 31.8354385,25.0378671 30.1115944,24.4435234 C28.8250375,23.999922 27.2107129,22.6736359 25.8075197,23.0745201" id="Fill-209" fill="#89C5CC"></path>
                <path d="M99,15.5 C99,18.8333333 104,18.8333333 104,15.5 C104,12.1666667 99,12.1666667 99,15.5" id="Fill-211" fill="#89C5CC"></path>
                <path d="M110,16.5 C110,19.8331454 115,19.8335213 115,16.5 C115,13.1664787 110,13.1668546 110,16.5" id="Fill-213" fill="#89C5CC"></path>
                <path d="M109.471854,24.1613672 C106.651839,24.550365 98.4958196,25.4352097 98.0393943,29.1553141 C97.3354625,34.8947009 106.2722,30.2496834 108.311887,29.7989134 C110.90973,29.2250165 113.229664,29.3748557 115.82322,29.4862961 C117.247065,29.5472335 119.140976,29.7943222 118.991693,27.4728569 C118.746915,23.660929 111.936784,23.8232897 109.471854,24.1613672" id="Fill-215" fill="#89C5CC"></path>
                <path d="M36.9231862,74.0746419 C34.7580809,74.6559037 31.9257729,78.4232949 33.4154183,80.7288004 C35.8579742,84.5103282 36.9351596,78.7043629 37.9574328,78.1455532 C39.8174251,77.128553 41.3273012,80.8443875 43.2711067,78.8952063 C46.3383393,75.8196746 38.8541927,73.5540841 36.9231862,74.0746419" id="Fill-217" fill="#69A1AC"></path>
                <path d="M61.3181362,72.0005853 C58.7764095,72.0229111 53.4105421,75.4696899 53.0304479,78.014431 C52.8048436,79.5267052 53.8515331,80.9794441 55.5533742,80.9998114 C57.8707227,81.0268373 58.6072063,78.1409434 60.6159837,77.5373655 C62.7829293,76.8863943 62.4612797,78.3853514 64.3327328,79.1624433 C65.702298,79.7315535 67.4151741,79.4934124 67.8909049,77.8804766 C68.7884177,74.8383027 63.9297512,71.9528005 61.3181362,72.0005853" id="eye" fill="#69A1AC"></path>
                <path d="M42.2349513,86.402407 C38.3220042,88.8463833 44.7604485,94.0846139 46.9924845,94.7398647 C50.3621743,95.7281943 57.144039,93.8832565 57.9425997,89.4961806 C58.2604504,87.7502436 57.2356965,86.1687485 55.4277237,86.4812721 C53.9391752,86.7388418 52.9844429,88.7289248 51.6056473,89.4416463 C49.7445683,90.4035477 48.0900136,90.3381065 46.5086275,88.8900108 C45.2203092,87.7103916 44.5303214,84.9757055 42.2349513,86.402407" id="Fill-221" fill="#69A1AC"></path>
                <path d="M45.6486361,120.347158 C42.0815974,121.12243 38.4555562,120.602171 34.8712583,121.331189 C31.216318,122.074943 29.0320235,123.482222 25.6363729,122.0643 C25.4766248,121.995533 25.317278,121.926765 25.1579313,121.857998 C22.5297137,120.704504 19.7750624,120.362713 17.0240234,122.201835 C15.3960377,123.289836 10.4538809,127.053632 11.0495246,129.350386 C12.3403535,134.329485 17.9014338,126.521911 19.3194993,125.760966 C22.0235772,124.309888 23.8775382,126.163747 26.6614901,126.686872 C29.9961314,127.313557 32.6793377,125.517414 35.8205152,124.802313 C39.4943203,123.965641 43.6273008,123.674198 47.3649248,123.22639 C48.8415913,123.049559 54.4347818,124.239893 54.9397143,122.366796 C55.8070903,119.149047 47.0506465,120.043844 45.6486361,120.347158" id="Fill-223" fill="#C1DEE2"></path>
                <path d="M71.0007585,129.818182 C71.2290947,129.989927 71.0459542,129.85214 71.0007585,129.818182 M80.7826639,120.070048 C83.7726493,119.769103 93.3391876,117.648823 95.3034288,120.715656 C96.5826615,122.713372 94.5523954,130.086339 92.6156646,131.039919 C91.0676162,131.801455 87.4617913,130.95951 85.7632218,130.89979 C82.6026721,130.789326 79.4354413,130.740144 76.2784286,130.544588 C75.2196719,130.479012 71.8127078,130.672226 70.9826803,129.742067 C70.0025247,128.643675 70.0461483,122.788315 69.8154541,121.336283 C72.5645272,122.219603 77.9082221,120.360064 80.7826639,120.070048 M87.1674302,117.063326 C83.3379852,117.228046 79.5093263,117.513769 75.7085707,118.023541 C73.5898784,118.307702 71.4432827,119.063384 69.4865086,119.421318 C68.8557349,119.536856 67.8319557,119.216784 67.058521,119.587599 C64.7983467,120.671158 66.7775221,127.999628 67.3226207,129.95753 C68.1597222,132.965032 70.2666244,133.452166 73.2184882,133.735546 C77.106884,134.109484 81.0750599,133.991994 84.9756389,133.944374 C88.7355219,133.898705 93.8052921,134.725817 95.9149453,130.980979 C97.2786741,128.559754 98.7414404,122.921028 97.5757862,120.222668 C96.042279,116.672214 90.3165828,116.932175 87.1674302,117.063326" id="Fill-225" fill="#C1DEE2"></path>
                <path d="M130.547602,132.328826 C130.341895,132.590076 130.341895,132.590076 130.547602,132.328826 M131.390562,131.324439 C131.326995,131.419723 131.031662,131.727834 131.390562,131.324439 M122.215912,131.04835 C123.911704,130.73282 125.608286,130.420804 127.306052,130.114645 C125.698307,132.33937 124.005278,131.419723 121.258845,131.226031 C121.577867,131.166674 121.89689,131.107707 122.215912,131.04835 M114.125068,130.261086 C114.555037,130.118941 114.984611,129.976796 115.41458,129.834651 C115.401551,130.157992 115.471831,130.461026 115.625419,130.742973 C114.889457,130.664481 114.154285,130.580131 113.419902,130.490705 C113.654826,130.414165 113.890144,130.337625 114.125068,130.261086 M110.375768,127.524405 C110.351683,126.940595 111.239654,127.341256 111.74859,127.302206 C110.767439,128.155856 110.309831,128.230053 110.375768,127.524405 M123.784569,120.90412 C123.913678,120.741278 124.084639,120.749479 124.297452,120.928722 C124.065293,121.005652 123.171004,121.38054 123.784569,120.90412 M132.480291,119.893095 C132.503192,119.893095 132.985673,120.537043 132.480291,119.893095 M132.236287,119.68222 C132.362632,119.777504 132.362632,119.777504 132.236287,119.68222 M131.150901,119.556867 C132.928818,119.853263 132.793786,121.915927 131.150901,119.556867 M110.262452,119.416284 C109.901183,119.71268 110.024764,119.425266 110.262452,119.416284 M117.061809,115.02502 C114.043338,115.198797 108.502697,115.023849 105.981711,116.613608 C102.691993,118.688768 104.422925,125.831942 104.717468,128.963427 C105.15257,133.59212 107.355718,134.910085 111.765567,135.395877 C117.028248,135.975782 122.435437,136.083952 127.725361,135.946494 C132.489373,135.822703 135.20264,134.202875 136.075213,129.244593 C136.342513,127.727469 137.020829,125.380515 136.999509,123.927434 C136.9849,122.919533 136.476755,122.459905 136.284473,121.602739 C135.1904,116.72295 133.360761,116.144217 128.301022,115.93139 C124.576991,115.774796 120.715955,114.836015 117.061809,115.02502" id="quare" fill="#89C5CC"></path>
            </g>
            <g id="Profile" opacity="0.5" transform="translate(234.000000, 251.000000)">
                <path d="M62.1136941,3.96484497 C69.7542441,4.12930549 78.4232013,8.40090912 77.2148131,17.4502098 C76.3298407,24.0794781 70.6478619,29.4609916 64.0671567,29.9249768 C56.9944509,30.4235225 49.5165912,24.9403137 48.5557752,17.6659153 C47.4747099,9.48380612 54.6421219,3.8015762 62.1136941,3.96484497 M58.3667083,0.281167818 C55.2693048,0.748331016 52.3094415,2.39134716 49.5818245,3.86314958 C48.5408423,4.42525496 43.2624455,7.85191291 47.4024031,8.70321456 C37.4276007,24.9534228 60.9025551,40.0472433 74.1009048,29.4860182 C80.027705,24.7432789 83.1479008,15.751579 79.3168191,8.71314575 C75.3544848,1.43358316 65.9577439,-0.870453025 58.3667083,0.281167818" id="face" fill="#89C5CC"></path>
                <path d="M56,14.5 C56,17.8333333 61,17.8333333 61,14.5 C61,11.1666667 56,11.1666667 56,14.5" id="Fill-231" fill="#89C5CC"></path>
                <path d="M65,14.5 C65,17.8333333 70,17.8333333 70,14.5 C70,11.1666667 65,11.1666667 65,14.5" id="Fill-233" fill="#89C5CC"></path>
                <path d="M59.040104,21.7532257 C58.3945124,23.9593488 65.7535851,25.090847 65.9984775,22.5375158 C66.1151462,21.317548 59.488887,20.2141353 59.040104,21.7532257" id="Fill-235" fill="#89C5CC"></path>
                <path d="M81.8837452,19.8308486 C90.8295341,18.815921 100.053341,19.2850083 109.042447,19.5283078 C111.292184,19.5897846 113.541528,19.6493986 115.79166,19.6847944 C117.221915,19.7075222 120.311219,20.3565691 121.559542,19.7235434 C126.671758,17.1314543 116.643433,15.878071 115.223417,15.7588431 C106.28196,15.0632228 92.4830696,14.8150798 83.5152284,15.1433291 C80.8630345,15.2405743 80.2896723,20.0115533 81.8837452,19.8308486" id="Fill-237" fill="#89C5CC"></path>
                <path d="M122.585027,64.3865655 C122.662714,54.9721484 123.002546,45.4940054 123.73161,36.107691 C124.028414,32.2817606 124.38458,28.4609757 124.679791,24.6350452 C124.818831,22.8329077 125.463834,20.3088069 124.39693,18.7275331 C123.297358,17.098366 120.885471,16.7595499 119.432124,18.2034764 C117.69233,20.4394252 118.197894,24.1921302 117.981565,26.8967219 C117.648905,31.0555312 117.246924,35.2111741 117.047327,39.3786913 C116.661282,47.4453645 116.570846,55.6521555 117.223817,63.7073501 C117.532175,67.5083443 118.200683,71.217114 119.089902,74.9243005 C119.49507,76.6116522 122.716099,84.1285408 122.039225,85.1651756 C120.989452,86.7725731 113.231892,86.1649998 111.549467,86.2097267 C107.231257,86.3249083 102.911453,86.399717 98.5924455,86.4816503 C94.8945371,86.5517093 91.1966287,86.6019776 87.4983218,86.6344342 C86.0298354,86.6474961 77.4017808,86.3878426 79.3156735,88.5493785 C57.9134607,90.0301157 36.1020956,87.5582623 14.8301581,86.7104304 C13.7556851,86.6672867 11.9975651,86.3644896 10.3748996,86.2774107 C10.1804825,85.499242 10.0207258,84.8037982 9.98128467,84.3205102 C9.70161092,80.926412 9.62870452,77.5208352 9.32552543,74.1275285 C8.77095868,67.9191984 7.69568882,61.7734068 7.0558654,55.5757636 C6.41763557,49.3844534 6.48177727,43.17454 6.11007412,36.9681889 C6.04633082,35.9046388 5.89573726,27.1935818 3.68145423,25.0771686 C4.73122677,25.4721902 6.4240099,25.5236459 7.39888406,25.4456707 C15.2899067,24.813557 23.123162,23.4523554 30.9464574,22.2839148 C33.1846442,21.9498484 38.2637904,22.1865447 40.1203141,21.0758929 C41.7270438,20.1140668 42.3628832,16.7429257 39.5677394,17.015641 C31.7667541,17.8452655 24.0079988,19.1328458 16.2683665,20.4006355 C14.1983026,20.7394516 12.133418,21.1020165 10.0689317,21.4724977 C8.69008436,21.719881 5.05074008,21.7008819 3.98144616,22.5261525 C2.68267633,23.5279557 2.54483143,24.209546 2.98505863,24.6627522 C2.37312291,24.495719 1.63967651,24.7581431 0.758823728,25.6332861 C-0.906470096,27.7853225 0.659224815,33.0852614 0.85762585,35.6085706 C1.09626485,38.6353541 1.21339317,41.6672833 1.35243325,44.6996083 C1.62055352,50.5675391 2.23926197,56.3543281 3.19023239,62.1514084 C4.25594076,68.6459115 5.16229087,75.166934 6.230788,81.6594581 C6.50886817,83.3499763 6.87140821,84.9985383 7.33434396,86.6316636 C4.45593538,88.0934017 6.41285482,90.4176169 8.6956619,90.8300542 C8.71199612,90.8328249 8.72912714,90.8351998 8.74546136,90.8379705 C9.45699599,92.5609454 10.4521883,94.15726 11.2294582,91.8484816 C11.2888192,91.6715531 11.3167069,91.45346 11.323878,91.2084517 C17.2197353,91.871043 23.7004373,91.4593972 29.505062,91.6949061 C42.0784287,92.2051093 54.7294827,92.9706121 67.3155981,92.5827151 C72.2983325,92.4291396 77.296206,91.9897869 82.2371088,91.3295705 C85.1318516,90.942861 88.0377495,90.4817386 90.8862784,89.8405212 C91.090257,89.7950027 91.4006072,89.7467135 91.7587649,89.6881331 C91.8173291,89.6865499 91.87669,89.6849666 91.932067,89.684175 C96.2937026,89.6188658 100.651753,89.5028925 105.009803,89.3227975 C108.667872,89.1719927 112.342275,89.0944133 115.98879,88.7520349 C118.253669,88.5390874 123.040393,88.5786687 124.430794,86.3173879 C125.695302,84.2611383 123.581414,78.9647617 123.281024,76.6551917 C122.75315,72.5886068 122.551163,68.4840239 122.585027,64.3865655" id="Hola-:)" fill="#C1DEE2"></path>
                <path d="M78.7048247,37.0215286 C75.2587469,37.3193837 72.0722675,38.9518208 68.5942816,38.972102 C65.6752789,38.9888042 62.8011839,38.1087595 59.8660302,38.2387978 C56.4231039,38.3903102 54.5287066,40.6363528 51.5127977,41.3879499 C49.1118096,41.9860462 47.5991281,40.131709 45.4872828,39.3117126 C42.8207876,38.2757811 40.8511501,38.8106478 38.5655828,40.3770717 C36.8862699,41.5283275 32.9698428,44.1115946 33,46.439955 C33.0899907,53.4922423 41.2466533,43.7501122 42.8909067,43.6320041 C45.0756285,43.475322 47.5164033,45.987406 49.8409694,46.1305674 C52.9143917,46.3202562 54.884817,44.3215646 57.7147921,43.5934301 C60.5766754,42.8569444 63.670188,43.7592586 66.5391619,44.0392186 C69.8126994,44.358548 72.6773401,43.62246 75.8441232,42.8342772 C78.9132123,42.0703523 81.5284969,42.1109147 84.6468269,42.7523571 C86.7515815,43.1854202 91.9947565,45.702674 92.915365,42.4660344 C94.1692362,38.0582554 81.1140852,36.81474 78.7048247,37.0215286" id="Fill-241" fill="#89C5CC"></path>
                <path d="M79.3399074,51.0092435 C72.2425756,51.6907513 65.1020857,52.2887372 57.9722863,52.4800927 C54.8843035,52.5632225 43.0130509,51.2535354 44.0658713,55.1367185 C44.9682322,58.4662255 61.1228285,56.3699418 64.4131397,56.116239 C68.0455481,55.8370482 71.6724134,55.4464948 75.2870043,54.9939861 C76.5678896,54.8336083 79.6614156,54.9994758 80.5653603,53.9364334 C81.4269387,52.922014 81.0020887,50.8445523 79.3399074,51.0092435" id="Fill-243" fill="#89C5CC"></path>
                <path d="M30.5476863,68.4478023 C30.3892157,68.5156856 30.3892157,68.5156856 30.5476863,68.4478023 M32.0162579,68.4276741 C33.7520543,68.3720256 33.3799592,67.4425772 35.1114831,67.9268376 C35.9100505,68.1502209 35.9920046,67.8186979 36.6111273,68.5938303 C37.819077,70.1058119 36.6814292,73.3985458 35.4905696,74.6168928 C31.0817476,79.1283683 25.7908506,68.6281666 32.0162579,68.4276741 M32.0162579,64.0014474 C19.9464718,64.4130884 24.9965557,83.3446304 35.501445,79.4800195 C39.839965,77.883973 42.5669793,70.6938706 40.0151372,66.6532367 C38.7737844,64.6877789 37.1910208,64.3381011 35.1114831,64.2019398 C34.6286917,64.1703662 34.0212212,64.882746 33.7198164,64.8503831 C33.0035916,64.7734224 33.0703978,63.961191 32.0162579,64.0014474" id="have-a-nice-day-:)" fill="#89C5CC"></path>
                <path d="M61.7611407,69.3842396 C61.5349814,69.3143183 65.7666899,70.5459153 65.3037574,70.0638261 C66.2916732,71.0922014 64.9632939,73.5243194 63.8455612,73.9487542 C61.1389987,74.9775385 59.6199762,70.7646751 61.7611407,69.3842396 M63.638997,64.0657195 C59.6669226,64.6291792 56.6015263,66.2848022 56.0585809,70.705794 C55.5576831,74.7865837 58.3124167,78.9188943 62.6576129,78.9986292 C72.1285405,79.1720014 72.4171589,62.839847 63.638997,64.0657195" id="espero" fill="#89C5CC"></path>
                <path d="M105.52189,69.7044264 C106.041099,76.6504109 99.0151596,70.2927303 105.52189,69.7044264 M102.506734,62.2732185 C101.892394,63.3502733 102.416188,64.4927823 103.343428,65.1187126 C95.0559533,66.914196 96.9329754,79.6989307 105.366394,77.8101653 C109.65493,76.8495171 110.443485,72.2265689 109.804312,68.4094522 C109.500199,66.5943718 105.087878,57.7494315 102.506734,62.2732185" id="hola" fill="#89C5CC"></path>
            </g>
            <path d="M362.149585,321.286109 C359.413021,321.819032 352.943852,325.129243 353,328.684286 C353.087904,334.233632 358.586103,328.171804 359.809058,327.356969 C366.378936,322.977582 374.888629,328.652434 381.729614,329.85995 C384.866039,330.413316 391.001636,331.436377 393.772194,329.134014 C398.698859,325.039868 387.304725,326.064831 385.853582,325.900342 C377.965989,325.008016 370.119189,319.726796 362.149585,321.286109" id="Fill-251" fill="#C1DEE2" opacity="0.5"></path>
            <g id="List" opacity="0.5" transform="translate(496.000000, 281.000000)">
                <path d="M2.03138216,7.69009349 C2.02908142,12.6513833 1.79248786,17.7155187 2.65488479,22.6172876 C2.91601965,24.1012611 3.12193657,26.9436878 4.59863312,27.7138154 C6.08184846,28.4871822 7.51981577,27.6182581 7.88831885,26.0063349 C8.31817521,24.1308191 7.37525212,21.324024 7.27977109,19.3549754 C7.14862847,16.6651975 7.13980894,13.9721804 7.13865857,11.2791633 C7.13789165,9.33440899 7.74145446,6.2057151 5.57606743,5.20519709 C3.96592751,4.46098338 2.03138216,5.84454065 2.03138216,7.69009349" id="Fill-253" fill="#C1DEE2"></path>
                <path d="M78.321871,0.0335758787 C62.3164067,1.67285467 46.0805454,2.01358329 30.017284,2.86842193 C22.5919298,3.26345795 13.6183238,2.75940486 6.62288572,5.69200422 C5.32442852,6.23668728 0.671755534,9.26784451 4.44876166,10.5020304 C5.6260823,10.8870095 6.82200888,9.59288433 7.78872609,9.15922972 C9.39873384,8.43794705 11.262495,8.21468331 12.9793879,7.93308941 C27.5755511,5.54155262 42.8427157,5.95790932 57.5889141,4.8403838 C61.3675037,4.55396257 65.1476768,4.25909353 68.918349,3.88055087 C71.6122518,3.61022072 77.274396,1.62900648 79.7604665,2.64234225 C84.0085593,4.37374248 83.9091956,15.6238212 83.9931203,19.4929214 C84.0366661,21.4938472 82.1333179,28.6765031 85.9170538,27.9483818 C88.9454677,27.3654824 87.8489048,19.9036462 87.6129656,17.8624927 C86.9938232,12.5122085 85.9372432,-0.753680218 78.321871,0.0335758787" id="Fill-255" fill="#C1DEE2"></path>
                <path d="M84.6588328,28.0067788 C70.8243022,29.2285036 56.6710798,28.0298013 42.7798228,28.5102031 C35.4983665,28.7626826 28.2243949,29.163657 20.9421507,29.3988697 C17.7926569,29.500936 14.6400117,29.5051567 11.4889421,29.5270281 C9.98175473,29.5370045 3.12298844,30.4306593 7.36604006,33.3529759 C9.24470621,34.6468377 15.2316989,33.6046881 17.3872999,33.5793634 C20.6250347,33.5421437 23.8611937,33.4105321 27.0965649,33.2865945 C34.5911389,32.999965 42.0809858,32.6028277 49.5794992,32.4044509 C56.75223,32.2145157 63.9285062,32.1738427 71.1008431,31.9839074 C74.6698755,31.8891317 78.2873616,31.7820773 81.8244854,31.2725137 C82.6225935,31.1574014 85.2150661,31.066079 85.7693298,30.1954466 C86.2932606,29.3723939 85.9253272,27.8874458 84.6588328,28.0067788" id="Fill-257" fill="#89C5CC"></path>
                <path d="M16.4111755,16.9278803 C16.3364451,17.1052068 16.3364451,17.1052068 16.4111755,16.9278803 M22.4244033,15.0949805 C22.6438497,15.1881855 22.6438497,15.1881855 22.4244033,15.0949805 M22.1428792,15.0440337 C25.3835693,18.3567602 20.3999605,22.3108634 17.3644824,19.077914 C14.1423761,15.6467067 20.0567541,15.0550919 22.1428792,15.0440337 M18.7060712,10.0322909 C7.54395779,12.0243501 11.4959707,26.9438622 21.9210604,24.7875095 C26.4978036,23.8412419 29.1153449,19.2169317 27.5400754,14.775082 C26.9244391,13.0397315 25.5832458,11.1349533 23.7149856,10.5879664 C22.7834256,10.3154603 21.9594141,10.7443612 21.0721387,10.6440474 C20.2259849,10.5484728 19.7562509,9.84232649 18.7060712,10.0322909" id="Fill-259" fill="#C1DEE2"></path>
                <path d="M61.2809065,14.0955041 C54.6208936,14.1154828 47.9593159,14.3840854 41.3004768,14.5039577 C39.2578329,14.5405853 34.0082263,13.6726214 34,16.7301037 C33.9910119,19.9969923 39.8388185,18.7905004 41.7848271,18.7464732 C48.3900669,18.5966329 55.0121298,18.3217407 61.5911567,17.7245993 C63.2527366,17.5736491 69.0058641,17.8341123 69,15.6882511 C68.9937357,13.4147481 62.6228464,14.0955041 61.2809065,14.0955041" id="Fill-261" fill="#C1DEE2"></path>
                <path d="M77.4455883,38.0154163 C60.8158758,38.4330879 44.2114425,38.5785731 27.5951595,39.3756112 C21.3800503,39.6735797 15.1732358,39.8953066 8.94904199,39.8953066 C7.75025862,39.8953066 5.33649744,39.4606924 4.20841661,40.1674929 C1.14648294,42.0845832 4.63302687,43.7302238 6.62849757,43.8337208 C20.2788285,44.5430995 34.1266527,42.7777558 47.7690839,42.3792368 C55.7557066,42.1460921 63.7443041,42.0772168 71.726187,41.6967453 C73.9037463,41.5928799 76.0817007,41.4724402 78.2557052,41.3144322 C79.5058368,41.2238262 82.812267,41.4724402 83.8226419,40.7877388 C88.2346387,37.7977409 78.9331067,37.977848 77.4455883,38.0154163" id="Fill-263" fill="#89C5CC"></path>
                <path d="M1.08942693,45.9099407 C0.940442812,50.2612398 0.925017689,54.5367087 1.46226344,58.8641868 C1.67370049,60.5669899 1.7707659,62.4992684 3.65451201,62.9320162 C5.36519577,63.3246654 6.23276488,61.953768 6.58716649,60.4335924 C7.45210204,56.7214896 6.6910039,51.3788408 6.68084589,47.5226211 C6.67633122,45.6161486 6.67445011,43.4821858 4.45097507,43.0510261 C2.75458776,42.7218995 1.1541372,44.020937 1.08942693,45.9099407" id="Fill-265" fill="#89C5CC"></path>
                <path d="M95.1765454,56.0060931 C68.1107557,57.3756664 41.0803114,58.5712894 13.9950618,59.670822 C11.8826816,59.7566577 -4.52668807,59.5849863 1.20997897,65.0799907 C2.9820114,66.776955 7.54711958,65.6276681 9.83860929,65.5198038 C13.2821981,65.3572477 16.7273754,65.2330517 20.1709642,65.0647986 C33.824192,64.3974829 47.5127652,64.2174558 61.1556675,63.4684823 C68.6635727,63.056395 76.1544009,62.4114878 83.6229894,61.5717411 C87.1753941,61.1725671 91.5852211,61.2139657 94.9124483,59.8770556 C96.6241156,59.1892305 98.4712072,55.8382198 95.1765454,56.0060931" id="Fill-267" fill="#89C5CC"></path>
                <path d="M79.2368776,34.1745538 C77.2071901,36.2573312 78.2508168,40.3662253 78.4039343,42.9404626 C78.614226,46.4831531 78.8699439,50.0278529 79.2991427,53.5508529 C79.5783569,55.8393764 79.4307219,59.4013556 80.6157179,61.3780452 C82.0031736,63.6930906 85.0584739,63.4371135 86.3131755,61.2004284 C87.4229834,59.2225333 86.8614222,55.0605953 86.8324434,52.8685153 C86.7928913,49.8373771 86.6096203,46.8014166 86.4349646,43.7763061 C86.288896,41.2478795 86.8449748,37.1960477 85.4951132,35.0320971 C84.1237133,32.8331857 81.1389019,32.2255918 79.2368776,34.1745538" id="Fill-269" fill="#89C5CC"></path>
                <path d="M18.1791896,49.7586982 C17.9386934,49.9384624 17.9386934,49.9384624 18.1791896,49.7586982 M22.9673576,49.1761857 C27.4351277,50.0486157 20.2107493,55.1129934 17.9276179,51.6370426 C17.5712248,51.0939253 17.3857104,50.426503 17.9580755,49.9545264 C18.4806009,49.5234748 18.8089098,50.2865164 19.3025598,50.0815087 C20.1526031,49.7281 22.0603547,49.1432927 22.9673576,49.1761857 M22.3510861,45.0182785 C19.3009776,45.2527369 15.1069301,45.4355609 13.5971047,48.4043472 C11.5687093,52.3916697 15.0377084,56.2967596 19.0505926,56.9033681 C22.9123757,57.4874104 28.6783505,55.4105604 28.9872773,51.0377012 C29.2364757,47.5120284 25.7825076,44.7478673 22.3510861,45.0182785" id="Fill-271" fill="#89C5CC"></path>
                <path d="M47.6920076,47.2379289 C44.5276857,47.2894892 38.3080472,46.3422186 35.5512066,47.9038162 C32.823302,49.4490264 34.0398,52.2005078 36.5282896,52.8588009 C38.1732771,53.2936661 40.8615436,52.5918065 42.5743125,52.521061 C44.8269545,52.4283324 47.0815784,52.4083477 49.335806,52.3767721 C53.1268086,52.3252118 56.9162258,52.3687782 60.7076248,52.3687782 C64.5798859,52.3687782 68.5183428,52.4758957 72.3838654,52.1877176 C77.2748296,51.8231983 77.1432306,48.1152534 72.3600824,47.6516104 C64.2342403,46.8642167 55.844011,47.108029 47.6920076,47.2379289" id="Fill-273" fill="#89C5CC"></path>
                <path d="M39,89 C39,91.25 41.0144032,89 40.9999223,89 C41.0144032,89 39,86.75 39,89" id="Fill-275" fill="#89C5CC"></path>
                <path d="M5.00034677,74.4996544 C5.09324947,79.6988389 5.15432096,84.902893 5.35604196,90.0980193 C5.4200745,91.7407213 4.99257403,94.9486165 6.80140067,95.7861998 C8.81453922,96.7183358 9.44042951,94.3946915 9.67250119,92.8201649 C10.4068396,87.8319995 9.68693627,82.1365145 9.61624139,77.0891015 C9.59255305,75.3944563 9.9256703,73.0351012 8.17717489,72.1902134 C6.75106296,71.5007493 4.97147661,72.7806609 5.00034677,74.4996544" id="Fill-277" fill="#89C5CC"></path>
                <path d="M87.4712055,74.1970797 C87.5989121,74.4955794 87.5989121,74.4955794 87.4712055,74.1970797 M87.6516606,74.14583 C87.7551744,74.1888641 88.1743854,74.3629563 87.6516606,74.14583 M46.7696604,70.094762 C39.0005732,70.2152573 31.2267269,70.3068024 23.4627956,70.6362085 C20.1491643,70.7770471 16.797459,70.8905005 13.4953293,71.1999544 C11.1565521,71.4190368 5.34629495,71.5101907 3.82928243,73.4032972 C0.698882475,77.3107881 7.33724995,76.2451088 8.76700946,75.9278305 C11.3691321,75.3500007 14.025193,75.1649544 16.6836335,75.0260718 C22.4518505,74.7248335 28.2224472,74.5636515 33.9978031,74.4486332 C49.6593214,74.1364408 65.3323412,74.1837782 80.9970323,74.1137501 C82.5136482,74.1070994 85.2545825,73.503058 86.6553898,74.1106204 C88.0585769,74.7197477 87.9792559,76.216941 88.1252064,77.9555163 C88.3191461,80.2684003 86.7787339,84.6762597 87.9522868,86.6217895 C89.7730985,89.6396494 92.420434,87.0771679 92.8253673,84.8769548 C93.3841832,81.8367955 92.4981685,78.1863352 91.6303977,75.2803638 C90.406476,71.1803935 88.7070253,71.0172553 84.7029055,70.6968473 C80.0249545,70.3224512 75.3636608,70.0955444 70.6702422,70.0525104 C62.7052324,69.980135 54.7342736,69.9723106 46.7696604,70.094762" id="Fill-279" fill="#89C5CC"></path>
                <path d="M77.8161651,91.5197027 C61.0594739,93.5551294 43.8259584,92.3558136 26.9797394,92.427715 C22.883151,92.4453822 18.783013,92.4794841 14.6903686,92.6873819 C12.5286856,92.7966721 7.40469638,92.1733894 5.92374043,93.9175126 C2.80209827,97.594757 8.42539251,98.1297036 10.4782223,97.9772726 C14.6288429,97.6687128 18.7893234,97.527786 22.9505927,97.494095 C37.6079154,97.3757658 52.3480612,98.0910823 66.993552,97.3346793 C73.1291663,97.0179021 79.1279253,95.9200701 85.1499536,94.6932263 C86.4841943,94.4212335 95.6172161,92.6052088 90.4092206,90.4284445 C87.3313563,89.1420252 81.0494212,91.1248612 77.8161651,91.5197027" id="Fill-281" fill="#89C5CC"></path>
                <path d="M28.1319871,84.7396715 C28.0118731,84.8951318 28.0118731,84.8951318 28.1319871,84.7396715 M28.0163368,84.7128118 C27.975352,84.8243201 27.8487453,85.0998349 28.0163368,84.7128118 M26.9288181,83.3002388 C26.9539771,83.332796 27.0566421,83.4650594 26.9288181,83.3002388 M26.8870217,83.2896578 C27.3021454,83.788596 27.5817351,84.3453231 27.725385,84.9594322 C24.1532106,85.9337047 22.7767691,83.0239101 26.8870217,83.2896578 M26.6609963,83.1533247 C26.6622137,83.1541386 27.1645824,83.366981 26.6609963,83.1533247 M20.792859,78.8179342 C18.4810701,81.7171478 16.5726371,85.0957652 19.4549675,88.4072336 C22.0321434,91.3678987 27.2173352,91.7500382 30.4880072,89.7734127 C33.8572862,87.7365564 33.5663344,83.4487808 31.2159954,80.6500874 C29.7028024,78.8480496 28.4760975,78.8981062 26.2803648,78.603871 C24.7854324,78.4036446 22.0613603,77.2332153 20.792859,78.8179342" id="Fill-284" fill="#89C5CC"></path>
                <path d="M45,84.476192 C45,88.2913161 61.1539551,86.649196 64.0277141,86.6451741 C66.4349872,86.6415544 80.9910895,87.9957104 79.9464462,84.0695832 C79.0879221,80.8436597 64.7500148,82.4471701 61.6964726,82.4423439 C59.0571445,82.4387242 45,80.5906855 45,84.476192" id="Fill-286" fill="#89C5CC"></path>
            </g>
            <g id="Checkmark!" opacity="0.5" transform="translate(287.000000, 400.000000)" fill="#89C5CC">
                <path d="M22.1488744,8.07057958 C30.3446299,9.23406152 38.8699399,13.0021833 38.7982276,22.3285506 C38.7381987,30.1700407 32.010935,38.5156802 23.372819,38.0469789 C15.5988772,37.6259355 8.27897934,29.3149564 7.3056251,22.1926666 C6.80122133,18.5025304 7.74476257,14.529598 9.96502549,11.4940681 C12.8742105,7.51680314 17.4903913,7.523105 22.1488744,8.07057958 M18.2776157,3.00151641 C12.3500657,3.03302574 8.01307959,5.12957766 4.34446878,9.55427507 C3.02866789,11.1407697 1.49853569,12.8485753 0.496979959,14.6461825 C-0.438503711,16.324842 -0.274532198,20.5939621 2.93560298,18.5927259 C2.14515554,26.8576226 7.08605637,34.8795037 14.1888027,39.1143574 C21.9095646,43.7182641 30.6363139,42.8206421 37.0618216,36.3679256 C42.9438464,30.4611082 45.0138357,20.4840733 40.7106914,13.1790294 C36.4099644,5.87753034 26.4451698,2.92313696 18.2776157,3.00151641" id="Fill-292"></path>
                <path d="M35.4635401,0.570880366 C31.7145702,3.32486841 28.2915458,6.9512452 25.4483779,10.6294787 C22.6692849,14.2247414 20.83221,18.7139334 17.4939553,21.8488685 C15.8081128,20.0083557 13.832939,15.0376945 10.4700095,17.0098435 C7.679375,18.6461209 9.47625388,21.4603424 10.835355,23.3080354 C14.345139,28.0792479 18.2425553,29.9995403 22.7437071,25.2853701 C26.8317558,21.0044026 29.1531721,15.2933877 32.9753702,10.7659016 C34.6520592,8.77939224 37.2421119,6.80764211 38.5773342,4.61450389 C39.7875908,2.62639896 38.2907887,-1.51176326 35.4635401,0.570880366" id="Fill-294"></path>
            </g>
            <g id="Whiteboard-Stuff" opacity="0.5" transform="translate(404.000000, 66.000000)">
                <path d="M37.884316,37.7438268 C38.0119936,37.7243014 38.1364212,37.7105302 38.2559597,37.7029332 C41.4137352,37.5019367 44.6129817,37.5850526 47.7771374,37.511527 C54.255781,37.3608796 60.9900295,37.7161199 67.4311897,36.9548906 C68.7403168,36.784663 69.1980926,38.4697568 68.61072,39.3432724 C67.9515707,40.3238796 65.8421336,40.2739302 64.8655719,40.4189833 C62.0064671,40.8437533 59.1094802,40.9920032 56.2248549,41.1202733 C53.1950811,41.2549369 50.1629148,41.355635 47.1311472,41.4403492 C44.5053167,41.5130756 38.6782458,42.6151598 36.2490037,41.5122764 C34.355986,40.6528852 34.4001406,39.698625 35.1727971,38.9593103 C34.704342,37.9261856 34.7815318,36.2343305 34.6810021,35.4223622 C34.2607097,32.0198072 34.0074975,28.6608081 34.0015161,25.2290826 C33.9895533,18.5070884 34.0031111,11.5257568 35.856146,5.01914455 C35.1140547,4.69307469 34.666248,4.21236139 34.6682418,3.51946293 C34.6782107,-0.595570724 49.7230034,0.387034419 52.7739114,0.305516953 C56.5234459,0.207216479 60.2737779,0.194429425 64.0241098,0.214808792 C66.5023994,0.227995441 69.8543707,-0.308661211 72.3222926,0.266756197 C77.1273431,1.38602297 76.8230897,9.65165428 76.9215833,13.6484077 C77.0982337,20.8175492 76.9957525,28.3543184 76.4151588,35.5066769 C76.2149816,37.9761766 74.424552,41.1062075 72.3821065,37.7020541 C71.2432497,35.8039759 71.7508704,31.3700651 71.7492753,29.2729883 C71.7436927,21.8177365 72.9080701,14.1371129 71.7943351,6.72022226 C71.4290715,4.28868412 71.5100197,4.1244504 69.0444904,4.17559862 C67.0889744,4.21635735 65.1334584,4.2814914 63.1779424,4.32264973 C59.1955325,4.40656477 55.2115275,4.46130934 51.2307126,4.60756127 C49.7190158,4.66350463 44.286318,5.61574052 40.0494996,5.61214416 C40.0514934,5.64610977 40.0550822,5.68007538 40.0558798,5.71484018 C40.1140986,8.58913005 38.7096681,12.0775981 38.5186623,15.1017362 C38.0592915,22.3751721 38.6075857,29.8188356 37.9288972,37.0555087 C37.9083398,37.2749707 37.8970366,37.5085721 37.884316,37.7438268 Z" id="Wireframy-Stuff" fill="#89C5CC"></path>
                <path d="M93.8862759,39.9315877 C93.391815,39.4292957 92.9467766,38.691684 92.661014,37.7713973 C91.6353736,34.4675263 91.5385321,30.9022579 91.4624994,27.4762423 C91.3000874,20.1539066 91.3807915,12.8187054 91.3366368,5.49379414 C90.6694589,4.60172959 91.0656353,3.58147924 91.8981665,2.86964401 C94.1475322,0.947558138 100.628315,1.43534064 103.483141,1.28494767 C107.592105,1.0685091 111.70387,1.01877598 115.818037,1.0036571 C120.174307,0.981774529 124.53658,1.05975607 128.890849,1.19304085 C130.505943,1.24237611 141.738366,1.52366668 136.71781,4.23471887 C136.430393,4.38993523 136.106864,4.51962308 135.753886,4.6272751 C135.962582,5.85911833 135.987902,7.13096788 135.954322,7.74364955 C135.741031,11.6419309 135.649391,15.5473739 135.475317,19.4476446 C135.281633,23.8010836 135.096754,28.1541247 134.946289,32.509553 C134.866255,34.8119978 135.657795,40.1656694 133.827409,41.8279494 C132.593917,42.9485292 131.751057,42.7239777 131.183089,41.9628837 C126.802815,43.2291716 116.695256,42.4131621 114.854263,42.4140444 C111.555647,42.415238 93.6411548,44.5263097 93.6115019,40.7270967 C93.6092075,40.4323753 93.7054159,40.1681897 93.8862759,39.9315877 Z M96.7968765,38.5879137 C101.794707,37.5255277 111.112543,38.2352994 113.073098,38.2281066 C116.724666,38.2137834 120.377434,38.2643123 124.026201,38.409533 C125.163494,38.4547625 127.945162,38.2367971 130.142213,38.4792152 C130.122572,38.2812449 130.109335,38.1002962 130.101409,37.9439912 C129.902124,34.0234293 130.119017,30.0618874 130.246271,26.1413256 C130.373926,22.1897303 130.56961,18.2413179 130.722476,14.2905183 C130.801177,12.2584401 130.285636,8.0165763 130.844163,5.09203322 C128.191692,5.04184434 125.410083,4.72271455 123.620987,4.72250137 C119.421184,4.72210351 115.224182,4.67475757 111.024779,4.75751349 C106.489231,4.84703312 101.904863,4.89994917 97.4013293,5.49555309 C97.1544742,5.52824565 96.8578574,5.59128954 96.5296838,5.66772949 C97.2154083,8.52273934 96.3830931,13.1140947 96.3802109,15.7591177 C96.3718072,23.1705471 96.6459249,30.5417922 96.8127966,37.9142309 C96.8182666,38.1557707 96.8126032,38.3801606 96.7968765,38.5879137 Z" id="Wireframy-Stuff" fill="#89C5CC"></path>
                <path d="M52.5361995,41.4069332 C49.8593792,42.9431351 51.3029105,49.0883322 52.2303565,51.2137943 C53.7548113,54.7084884 56.8481493,57.4430602 60.1858443,59.2571564 C66.9322408,62.9234909 76.6569371,61.9496938 81.7590804,68.3062305 C81.8118393,68.3720066 83.5754942,70.087244 83.9769379,67.8660369 C84.3065819,66.042989 81.0141088,63.2589878 79.7383746,62.3451286 C76.1103072,59.7467794 71.4572096,58.9088157 67.2606948,57.6108087 C62.7853114,56.2263976 57.8739728,53.6743641 55.9976598,49.1416537 C55.333215,47.5361728 56.5998254,39.0635149 52.5361995,41.4069332" id="Fill-135" fill="#C1DEE2"></path>
                <path d="M113.919614,44.0873064 C111.444798,44.7737005 113.081602,48.1996396 113.0776,49.9150218 C113.072798,52.0550273 112.392864,54.2947551 111.081819,56.0024973 C107.757385,60.3335759 101.247784,60.9825742 96.3673846,62.224276 C92.8236423,63.1266008 84.3450738,65.0611305 84.0133107,69.8827778 C83.6427285,75.2673729 91.1280087,68.7146613 91.7603196,68.4460548 C98.7565593,65.8641352 107.807809,65.3655244 113.207664,59.6821649 C115.43676,57.3362813 116.754208,54.2050856 116.963511,50.9733635 C117.081569,49.153836 117.101579,43.2127269 113.919614,44.0873064" id="Fill-137" fill="#C1DEE2"></path>
                <path d="M80.8838046,73.5627596 C91.1240028,70.9054858 100.662371,77.9731531 101.869487,88.140386 C103.143444,98.8700733 94.9339391,107.508072 84.1072907,107.981677 C74.5836438,108.398136 63.061133,101.681171 63,91.3331069 C62.9429677,81.6355645 72.3643639,75.769522 80.8838046,73.5627596 Z M85.8121338,80.7956014 C84.0607408,81.8011304 83.7396653,79.1923912 82.4999242,78.8479516 C81.2550108,78.5027291 79.2545556,79.7924208 78.2177246,80.544317 C76.4571807,81.8214836 71.5801759,89.255118 69.2164717,85.2181285 C62.0433995,97.4195125 79.9265462,106.550687 90.095527,101.933238 C101.26394,96.8621465 99.0900161,78.3222897 85.8745982,78.2256117 C86.4284236,78.9673312 86.9281395,80.1509512 85.8121338,80.7956014 Z" id="Fill-139" fill="#89C5CC"></path>
                <path d="M76,87.5073663 C76,89.4975446 80,89.4975446 80,87.5073663 C80,85.539935 76,85.4555965 76,87.5073663" id="Fill-141" fill="#89C5CC"></path>
                <path d="M83,88.0098234 C83,90.6633922 87,90.6633922 87,88.0098234 C87,85.3863483 83,85.2743544 83,88.0098234" id="Fill-143" fill="#89C5CC"></path>
                <path d="M77.7744565,94.1985594 C74.1177118,96.2692405 84.5749683,100.383614 84.9878725,96.1792789 C85.1660519,94.3651839 83.3411374,94.8544967 82.1247989,94.7211189 C80.9609379,94.593217 78.8785176,93.5797802 77.7744565,94.1985594" id="Fill-145" fill="#89C5CC"></path>
                <path d="M77.0013015,108.81875 C77.1437606,114.244705 77.0752636,119.66745 78.0083529,125.017966 C78.1857893,126.033978 78.3089381,129.720032 79.0372651,130.474818 C80.8287528,132.331889 80.8582648,128.772636 80.9278548,127.408724 C81.1763386,122.523279 80.7114335,117.485752 80.608688,112.590274 C80.5864629,111.536543 80.8396832,109.354043 80.3886232,108.334018 C79.6730483,106.714899 76.9317114,106.234179 77.0013015,108.81875" id="Fill-147" fill="#C1DEE2"></path>
                <path d="M73.5211346,104.598234 C65.6467722,113.432016 54.8034403,112.781429 43.8793908,113.554874 C38.1076821,113.963735 32.2716391,114.802996 27.6271799,118.534597 C25.4669848,120.270559 23.6044859,122.4449 22.3529634,124.922795 C21.8059218,126.006176 19.2109705,132.256757 23.1081925,130.77369 C24.4903817,130.247955 25.8509929,126.114274 26.7448804,124.891681 C28.4475425,122.562971 30.6261188,120.640728 33.2394513,119.39101 C38.2807055,116.980528 44.3001613,117.021613 49.766182,116.715666 C55.4799497,116.396156 61.6128897,116.097389 66.8651286,113.61391 C69.3358067,112.445565 71.6538406,110.988426 73.642211,109.110858 C74.3526858,108.439529 75.8763306,107.299506 75.9898147,106.273166 C76.1196822,105.100036 74.9916336,102.95242 73.5211346,104.598234" id="Fill-149" fill="#C1DEE2"></path>
                <path d="M33.2275401,131.561396 C25.9445178,131.816258 18.670938,132.125057 11.3981452,132.607607 C9.90778328,132.706423 4.93859887,132.391036 6.20430483,135.591018 C7.21860075,138.156109 13.2788024,136.459361 15.2833943,136.335018 C22.8618923,135.863585 30.4714723,135.699715 38.0338392,134.98536 C39.7327258,134.825196 47.4115518,134.889015 44.2407951,131.734323 C42.7323348,130.232736 35.3116074,131.486872 33.2275401,131.561396" id="Fill-151" fill="#89C5CC"></path>
                <path d="M1.4765494,134.712793 C-0.845722885,137.80673 0.221288597,145.326453 0.396802235,149.045791 C0.566744012,152.65021 -0.123370837,159.240502 4.5144079,159.79937 C3.0418445,159.603403 5.63236212,159.890096 6.05383364,159.913079 C6.99547824,159.964289 7.94150073,159.980821 8.8843393,159.991305 C11.0625392,160.015498 13.241933,159.986063 15.4197349,159.941708 C20.3532203,159.841709 25.2994413,159.696145 30.2265589,159.419533 C32.2976994,159.303002 43.5333582,159.400178 43.9783111,157.217527 C44.546641,154.428427 33.7738447,156.006243 31.8455826,156.095355 C27.1489014,156.313902 22.4450563,156.35987 17.7443951,156.42237 C15.414561,156.453418 13.082339,156.476805 10.7525049,156.430434 C9.79056277,156.411483 5.98060346,156.812287 5.39595599,156.161081 C4.89727439,155.606648 5.28650871,150.510703 5.27576298,149.731272 C5.24153583,147.190154 5.24432176,144.642989 5.33347155,142.103081 C5.39356805,140.393008 6.3049654,137.139394 5.56231586,135.53295 C4.83996381,133.971264 2.73459613,133.438202 1.4765494,134.712793" id="Fill-153" fill="#89C5CC"></path>
                <path d="M39.0009337,134.861149 C39.1341416,140.342419 39.1755228,145.934587 40.4804087,151.295195 C40.9147138,153.079332 41.5232139,156.758112 43.329797,157.681614 C45.2258423,158.651194 46.8629598,157.267307 46.9867092,155.403512 C47.1427753,153.060198 45.8780882,149.983939 45.6187663,147.579709 C45.3156986,144.774449 45.1395331,141.966455 45.0358831,139.147528 C44.957456,137.027573 45.6069431,133.849007 43.5698078,132.481911 C41.7399723,131.253828 38.9414236,132.490501 39.0009337,134.861149" id="Fill-155" fill="#89C5CC"></path>
                <path d="M54.4249157,133.895067 C52.1842339,136.165189 53.1856712,143.352722 53.4659023,146.269643 C53.671016,148.406136 55.9700794,158.915828 59.414977,153.435432 C60.9387341,151.011122 59.0028036,144.600855 59.0164259,141.774074 C59.0253778,139.973633 59.6520059,137.697185 59.3495897,135.967512 C58.949871,133.681576 56.4573703,131.830529 54.4249157,133.895067" id="Fill-157" fill="#89C5CC"></path>
                <path d="M108.115697,152.898841 C108.621063,153.440718 108.844784,154.21238 108.516666,154.96759 C107.728387,156.780938 104.827407,156.389491 103.251644,156.519579 C97.9929958,156.953994 92.7100495,157.243736 87.4326797,157.289464 C82.3337582,157.334009 77.2332434,157.204315 72.1347202,157.253985 C67.8870131,157.295377 63.462451,158.148439 59.2541778,157.977353 C57.4971789,157.905608 55.6210817,157.335586 56.0664058,155.085458 C56.4611431,153.089199 58.4882043,153.07343 60.1408428,152.906681 C65.1190727,152.404463 70.1000908,152.226676 75.1038134,152.244415 C85.6155342,152.280682 96.1188902,152.226676 106.630213,152.172275 C107.062234,152.207548 107.469238,152.3712 107.804417,152.620573 C107.254643,151.959349 107.518906,150.979887 107.416262,150.023971 C107.139826,147.447046 106.961776,144.914273 106.468653,142.337742 C106.074314,140.276833 105.777166,136.776284 103.850482,135.47974 C101.746544,134.064147 97.0758193,134.532463 94.5647966,134.468208 C87.8084568,134.295545 81.0134797,134.770958 74.2878107,135.376853 C71.2207303,135.653191 68.1158094,135.863697 65.083383,136.409278 C63.3948956,136.713605 58.440565,139.169903 57.0918463,137.658517 C53.844326,134.018813 68.1150127,132.524378 70.0524515,132.326092 C76.9402377,131.62204 83.8363886,131.093804 90.7620153,131.028366 C95.4391137,130.992099 103.442998,130.597105 106.881713,134.399616 C108.947013,136.682857 109.671561,140.444371 110.477367,143.293298 C111.09636,145.481535 112.775287,149.427143 111.582313,151.687126 C111.042586,152.709697 110.173447,153.58168 108.854603,153.219405 C108.546461,153.1348 108.304917,153.026569 108.115697,152.898841 Z" id="Wireframy-Stuff" fill="#89C5CC"></path>
                <path d="M142.96349,123.037507 C143.263849,123.420615 143.263849,123.420615 142.96349,123.037507 M96.22504,100.399289 C92.03041,102.845562 99.79419,110.023697 101.771681,111.133841 C106.222335,113.63196 112.337739,114.008736 117.307229,114.711233 C123.596378,115.600931 130.44111,115.928235 136.48502,117.973195 C139.060831,118.844687 140.697224,120.204167 142.383543,122.293849 C143.237887,123.352542 145.29526,127.916201 147.168904,126.835741 C150.941355,124.660176 140.776308,115.530088 138.536402,114.548571 C133.444692,112.316806 127.425945,111.691881 121.981953,110.825534 C116.919799,110.019344 111.748606,109.420144 106.811468,107.999318 C104.096661,107.218062 102.1671,105.957921 100.602201,103.54608 C99.6268361,102.042934 98.8268129,98.8890187 96.22504,100.399289" id="Line" fill="#C1DEE2"></path>
                <path d="M119.390553,153.650973 C118.15181,151.283078 117.582301,146.733851 117.471808,145.835389 C116.995385,141.964549 116.959496,138.139266 117.024965,134.244469 C117.063357,132.106501 119.51786,131.086755 121.108289,132.286226 C123.235245,131.398192 126.834033,131.264741 128.767959,131.070035 C131.945952,130.749952 135.150763,130.630952 138.338221,130.440866 C145.778778,129.997464 153.211447,129.197453 160.665808,129.032503 C162.896476,128.986159 165.883979,128.78547 167.667804,130.427121 C169.698911,132.29656 170.103555,136.934028 170.712098,139.432636 C171.373095,142.146073 172.162664,144.907031 172.439131,147.690768 C172.503925,148.342823 172.678734,149.462774 172.600073,150.47038 C173.528798,150.596517 174.083704,151.494246 173.989674,152.474885 C173.815748,154.295232 171.286527,154.543443 169.806776,154.831321 C164.885976,155.789606 159.625605,155.571635 154.636969,155.712236 C144.200233,156.00522 133.039003,157.686144 122.641311,156.685444 C120.861746,156.5141 118.949922,155.887245 119.390553,153.650973 Z M123.147712,151.508969 C123.561131,151.505724 123.969478,151.513345 124.350202,151.506782 C129.59953,151.415274 134.844913,151.256607 140.090692,151.055524 C145.440589,150.850907 150.790486,150.622333 156.144327,150.561065 C160.400111,150.512815 164.782621,150.878984 169.068669,150.714017 C168.147388,148.308692 168.286778,144.522269 167.795586,142.031393 C167.307726,139.558313 167.122363,136.625334 166.124951,134.302673 C165.002518,131.689778 164.026403,132.294204 161.103581,132.492145 C158.097936,132.695584 155.096236,132.981498 152.093747,133.227746 C145.493634,133.76894 138.888,134.111409 132.283155,134.570129 C128.857379,134.807915 125.579481,135.783106 122.229004,136.165526 C122.178563,137.357897 122.009976,138.561132 122.028982,139.431379 C122.084985,141.997932 122.338578,144.546418 122.562197,147.102366 C122.653091,148.141838 123.083533,149.935963 123.147712,151.508969 Z" id="Wireframy-Stuff" fill="#89C5CC"></path>
            </g>
        </g>
        <g id="A-Human/Sitting" transform="translate(443.000000, 571.500000) scale(-1, 1) translate(-443.000000, -571.500000) translate(293.000000, 395.000000)">
            <g id="Head/Front/Chongo" transform="translate(82.000000, 0.000000)">
                <g id="Head" stroke-width="1" transform="translate(54.000000, 31.000000)" fill="#B28B67">
                    <path d="M8.26227388,34.4901268 C3.65436435,29.0813759 0.535634794,22.4528771 1.05677633,15.0254539 C2.55833022,-6.37502057 32.3485306,-1.66718886 38.1433414,9.13393292 C43.9381521,19.9350547 43.249578,47.3329958 35.7603014,49.2634576 C32.7735882,50.033323 26.4110012,48.1474609 19.935372,44.244306 L24,73 L0,73 L8.26227388,34.4901268 Z"></path>
                </g>
                <path d="M82.6634951,28.3699763 C79.3840534,27.3699763 74.6234565,27.0308443 72.6208149,27.2602642 C73.7600087,24.5308439 74.2120576,21.4899413 73.8435286,18.5290858 C73.4853344,15.6520661 72.1997702,13.2023672 71.0108165,10.6353788 C70.4627695,9.45216518 69.8416903,8.27540043 68.9156982,7.37037661 C67.972405,6.44834378 66.7783223,5.83972796 65.5262119,5.54936581 C64.2448581,5.2521517 62.9050174,5.27689939 61.6216732,5.54662502 C61.0539519,5.66592985 60.5445644,5.92549845 59.9877902,6.0697928 C59.4176191,6.21763405 59.141031,5.86076752 58.7271824,5.50212755 C57.7298424,4.63797369 56.2677456,4.21137833 55.0059895,4.0587004 C53.5903607,3.88748186 52.1214506,4.10102137 50.7713517,4.56639079 C49.457233,5.01942668 48.1947879,5.75508602 47.2446815,6.82681415 C46.8216464,7.30387223 46.4376536,7.8468704 46.188089,8.44637714 C46.0857368,8.69240304 46.0688185,8.83814839 45.8233112,8.9282719 C45.5962532,9.01170466 45.3306889,9.014123 45.0963584,9.0935252 C42.8305256,9.86094542 40.8932607,11.6116631 39.8384289,13.8595111 C39.2230147,15.1708968 38.9314987,17.4797836 39.0113441,20.0676663 C39.0911894,22.655549 41.4279109,29.4080735 43.613439,31.8710732 C45.5642539,34.0695065 48.4317213,35.5202692 51.1990566,36.1553256 C49.36223,38.2548487 48.1395162,40.8784262 47.2353419,43.5466625 C46.2532361,46.4450442 45.6454006,49.4566043 45.4209456,52.525076 C45.2077438,55.4404668 45.187993,58.5235291 45.8714634,61.3766879 C46.5108389,64.0448435 47.8781623,66.233684 50.1607604,67.6222954 C51.2063292,68.2583997 52.331284,68.7362639 53.4627459,69.1730163 C54.5778253,69.6034004 55.6962731,70.021854 56.8643276,70.2633656 C59.0749653,70.7202709 61.6221325,70.641836 63.3249903,68.8822511 C63.9387204,68.2479202 64.6136933,67.450835 65.0614552,66.675918 C65.2224473,66.3972445 65.3195173,66.2149822 65.1239229,65.9425963 C64.8895924,65.6163621 64.5105756,65.3663863 64.2095669,65.1111707 C62.493006,63.6560549 61.4304424,61.7134822 61.1625814,59.4049338 C60.8908162,57.0626093 61.5200101,54.03928 63.7973259,53.0170472 C66.6084499,51.7551569 69.7042766,53.2035819 72.2028323,54.5537417 C73.264707,50.805958 75.4450295,47.4314855 78.8633764,45.7123675 C82.6451998,43.8105035 86.9847925,43.5879355 90.871188,41.9561196 C91.8839153,41.5308947 92.9153983,41.0481938 93.6610301,40.1817828 C93.9726032,39.8196765 94.3381465,39.3499541 94.4625461,38.871042 C94.625988,38.2419509 94.220254,37.7145107 93.9068437,37.2240711 C92.2450186,34.623629 85.9429367,29.3699763 82.6634951,28.3699763 Z" id="hair" fill="#191847"></path>
            </g>
            <g id="Bottom/Sitting/Baggy-Pants" transform="translate(0.000000, 187.000000)">
                <g id="Objects/Seat/Cube-2" transform="translate(10.000000, 42.000000)" fill="#C5CFD6">
                    <path d="M59,0 L174,0 C182.836556,-1.623249e-15 190,7.163444 190,16 L190,108 C190,116.836556 182.836556,124 174,124 L59,124 C50.163444,124 43,116.836556 43,108 L43,16 C43,7.163444 50.163444,1.623249e-15 59,0 Z M75,28 C72.790861,28 71,29.790861 71,32 L71,92 C71,94.209139 72.790861,96 75,96 L158,96 C160.209139,96 162,94.209139 162,92 L162,32 C162,29.790861 160.209139,28 158,28 L75,28 Z" id="Seat"></path>
                </g>
                <path d="M299.158964,161 C279.443095,136.924175 266.102867,119.075435 259.13828,107.453779 C247.213216,87.5546842 237.453121,69.8481647 234.373078,63.0843539 C227.028322,46.9551796 251.281896,39.4026181 256.77103,46.9258 C265.079054,58.3124345 282.822044,94.1429674 310,154.417399 L299.158964,161 Z" id="LegLower" fill="#B28B67"></path>
                <path d="M258.757567,154 L222.065197,61.6367769 C214.217429,44.7995771 252.115758,33.7320765 257.883274,41.5677718 C270.977322,59.3572261 302.098846,129.534043 306,134.834115 L258.757567,154 Z" id="LegLower" fill="#2F3676"></path>
                <g id="Lower-Leg" stroke-width="1" transform="translate(220.172961, 98.499284) rotate(39.000000) translate(-220.172961, -98.499284) translate(192.672961, 26.499284)" fill="#B28B67">
                    <path d="M4.8104618,137.955033 C3.80382537,125.354418 1.93361965,81.7337126 3.80483649,61.543304 C4.34254917,55.7413902 4.90906557,50.1318704 5.47997786,44.8696433 C7.17693121,29.2284421 36.1790278,29.7228704 33.8758977,44.5827954 C28.1401936,81.5898816 18.0447004,133.45317 17.3211185,137.93445 C16.3069876,144.215156 5.44310141,145.874127 4.8104618,137.955033 Z" id="LegLower"></path>
                </g>
                <g id="Accessories/Shoe/Flat-Sneaker" transform="translate(189.500000, 140.000000) rotate(30.000000) translate(-189.500000, -140.000000) translate(159.000000, 120.000000)" fill="#E4E4E4">
                    <path d="M2.67813181,25.4019242 C1.55937727,28.3884109 1,30.6229931 1,32.1056708 C1,33.908957 1.3004142,36.5404001 1.90124261,40 C3.99318117,40 22.7937852,40 58.3030548,40 C59.768738,35.1545073 58.9226607,32.5385816 55.7648228,32.1522232 C52.606985,31.7658647 49.9837155,31.4170139 47.8950143,31.1056708 L21.6799926,19.4188835 C21.1755635,19.1940064 20.584344,19.4206282 20.359467,19.9250573 C20.35562,19.9336867 20.3518954,19.9423702 20.3482945,19.9511052 L18.6632131,24.038695 C15.7398812,25.4026522 13.3643706,26.0846307 11.5366811,26.0846307 C10.0517269,26.0846307 8.00099246,25.4849054 5.38447792,24.2854549 L5.38448339,24.285443 C4.38038273,23.8251478 3.19325534,24.2659892 2.73296014,25.2700899 C2.71312074,25.3133681 2.69483298,25.3573409 2.67813181,25.4019242 Z" id="shoe"></path>
                </g>
                <g id="Accessories/Shoe/Flat-Sneaker" transform="translate(288.000000, 132.000000)" fill="#E4E4E4">
                    <path d="M2.67813181,25.4019242 C1.55937727,28.3884109 1,30.6229931 1,32.1056708 C1,33.908957 1.3004142,36.5404001 1.90124261,40 C3.99318117,40 22.7937852,40 58.3030548,40 C59.768738,35.1545073 58.9226607,32.5385816 55.7648228,32.1522232 C52.606985,31.7658647 49.9837155,31.4170139 47.8950143,31.1056708 L21.6799926,19.4188835 C21.1755635,19.1940064 20.584344,19.4206282 20.359467,19.9250573 C20.35562,19.9336867 20.3518954,19.9423702 20.3482945,19.9511052 L18.6632131,24.038695 C15.7398812,25.4026522 13.3643706,26.0846307 11.5366811,26.0846307 C10.0517269,26.0846307 8.00099246,25.4849054 5.38447792,24.2854549 L5.38448339,24.285443 C4.38038273,23.8251478 3.19325534,24.2659892 2.73296014,25.2700899 C2.71312074,25.3133681 2.69483298,25.3573409 2.67813181,25.4019242 Z" id="shoe"></path>
                </g>
                <path d="M208.862091,66.2500522 C178.365272,61.2817352 157.938089,57.8844191 147.580542,56.0581041 C118.057451,50.8523866 109.448266,34.9653306 114.538476,0.302228659 L168.93427,0.302228659 C176.132679,2.38099361 206.210425,15.2374805 259.167508,38.8716893 C268.695532,43.6015333 266.921101,57.5474982 265.179547,62.1420768 C265.10852,62.3294612 249.046098,89.8530148 216.99228,144.712738 L172.494227,116.36549 L208.945659,69.5903876 C209.908306,67.6514874 209.88045,66.5380423 208.862091,66.2500522 Z" id="Leg-and-Butt" fill="#5C63AB"></path>
            </g>
            <g id="Body/Hoodie" transform="translate(22.000000, 82.000000)">
                <path d="M190.781205,92.2114854 L222.679476,115.635084 C231.330944,117.969562 238.558965,120.874047 244.363541,124.34854 C245.734683,125.597945 247.391836,128.128197 241.70538,127.690906 C236.018925,127.253615 230.01796,127.049392 229.233339,128.988954 C228.448719,130.928516 231.889854,133.24802 230.303794,135.864997 C229.246421,137.609648 224.250967,133.234999 215.31743,122.74105 L183.729774,109.642447 L190.781205,92.2114854 Z M68.3079281,93.0198914 L89.2053198,93.1020711 C76.3021447,134.755739 69.3363474,156.856914 68.3079281,159.405597 C65.9939846,165.140133 70.8906002,173.873732 72.9845874,178.567103 C66.1645409,181.61887 66.8912241,170.316929 58.2879189,174.319492 C50.4352209,177.972846 44.4616931,184.59248 35.3890352,178.994371 C34.2736052,178.306117 33.0512757,175.714714 36.0045784,173.68967 C43.3623323,168.644547 53.9653015,159.814672 55.3979297,156.908251 C57.3515741,152.944826 61.6549068,131.648706 68.3079281,93.0198914 Z" id="Skin" fill="#B28B67"></path>
                <path d="M122.731734,9.58031077 L131.216685,7.34914009 C165.5935,32.1628362 183.361709,84.0563407 224.996623,108.72736 L216.58973,121.240539 C147.889238,118.771641 125.383314,55.5469019 122.731734,9.58031077 Z" id="Coat-Back" fill="#E87613" transform="translate(173.864178, 64.294840) rotate(5.000000) translate(-173.864178, -64.294840) "></path>
                <path d="M90,114 C124.671756,114 150.175573,114 166.511451,114 C170.007634,114 169.348845,108.951637 168.84345,106.404206 C163.010588,77.0037663 140.241304,45.3115155 140.241304,3.4607303 L118.1718,0 C99.917485,29.3584068 93.6048263,65.5045499 90,114 Z" id="Shirt" fill="#DDE3E9"></path>
                <path d="M90.6148413,28.8579585 C87.4095228,27.9365884 84.8712423,25.7876656 83,22.4111902 C74.933557,7.85607578 77.8467271,-0.157592785 86.4671964,-2.7917309 C95.0876658,-5.42586901 102.775319,-2.04281037e-14 116.510031,-7.10542736e-15 C117.257085,-6.21724894e-15 117.941303,0.0468325343 118.562683,0.140497603 L125.471587,0.534739944 C145.293986,67.7151944 150.760885,112.536948 141.872285,135 L81.6518141,135 C78.0838152,143.319871 74.6695413,150.319871 71.4089926,156 L55,156 C53.4556832,106.067091 65.327297,63.6864104 90.6148413,28.8579585 Z" id="Coat-Front" fill="#FF9B21"></path>
                <path d="M94.7652287,100.497634 C96.6591508,116.344024 99.7374079,127.844812 104,135 L81.6518141,135 C85.813785,125.295103 90.1849231,113.794314 94.7652283,100.497633 Z" id="Shade" fill-opacity="0.1" fill="#000000"></path>
            </g>
        </g>
    </g>
</svg>