<?xml version="1.0" encoding="UTF-8"?>
<svg width="595px" height="842px" viewBox="0 0 595 842" version="1.1" xmlns="http://www.w3.org/2000/svg" xmlns:xlink="http://www.w3.org/1999/xlink">
    <!-- Generator: Sketch 55.2 (78181) - https://sketchapp.com -->
    <title>A4</title>
    <desc>Created with Sketch.</desc>
    <g id="A4" stroke="none" stroke-width="1" fill="none" fill-rule="evenodd">
        <rect fill="#FFFFFF" x="0" y="0" width="595" height="842"></rect>
        <g id="Background-Shape-2" opacity="0.504510789" transform="translate(-28.000000, 453.000000)" fill="#F2F2F2">
            <path d="M630.159963,153.795486 C639.349631,222.535529 416.484537,267.372306 224.659384,236.0818 C32.8342312,204.791294 -55.1660535,82.5983388 36.3697112,17.4891288 C127.905476,-47.6200812 620.970294,85.0554431 630.159963,153.795486 Z" id="Background-Shape"></path>
        </g>
        <path d="M499.663291,293.553408 C504.699839,291.376482 511.096049,294.542571 508.028861,300.834517 C504.743478,307.572193 493.927275,307.090703 487.828432,306.634117 C488.441247,306.634117 490.740391,300.418162 491.464173,299.498604 C493.598736,296.785909 496.566802,294.894429 499.663291,293.553408 Z M436.628132,414.136439 C435.334132,415.130439 436.522132,414.230439 436.628132,414.136439 Z M502.75877,324.969059 C505.516388,327.315587 505.45021,331.199928 502.966044,333.701304 C500.008019,336.679131 494.9117,336.297969 491.11896,335.793933 C489.40333,335.565737 480.242692,334.347022 482.502104,332.955906 C482.33104,333.010448 481.972681,333.14586 481.586852,333.335188 C481.346489,334.061777 481.096137,334.785233 480.837044,335.504927 C480.889487,335.539407 480.933814,335.575768 480.990002,335.610248 C480.928819,335.579529 480.886365,335.547557 480.832674,335.516838 C478.237378,342.710016 474.723709,349.504479 470.259201,355.799293 C471.833735,355.272688 473.455716,354.896541 475.087063,354.776801 C479.918046,354.421343 489.818502,358.67995 484.115345,364.788572 C478.646932,370.644548 470.977793,363.652609 465.183485,362.440163 C459.102614,370.05149 452.457983,377.302971 445.52679,384.285507 C445.92136,384.432204 446.259741,384.712434 446.440169,385.130583 C449.136604,383.935691 451.973512,382.172817 454.431457,381.784132 C457.978215,381.2243 465.194723,381.150325 467.681387,384.42907 C470.739927,388.460735 467.080167,391.413486 463.188785,391.952003 C457.546186,392.733134 450.376503,389.620521 445.097883,387.494665 C444.477309,387.571148 443.815531,387.356118 443.440315,386.843304 C443.323567,386.798167 443.206819,386.753656 443.093193,386.710399 C436.080838,393.652813 428.827496,400.341327 421.624099,406.877503 C421.697144,406.877503 421.77019,406.876876 421.846357,406.876876 C423.692469,405.799843 425.657202,404.93972 427.758661,404.545393 C432.620236,403.626969 438.268453,403.917228 441.981905,407.594689 C445.680997,411.256477 446.738594,417.37701 442.520692,421.050082 C434.078022,428.402496 423.168041,410.057823 419.153667,409.105545 C411.837269,415.674319 404.145654,421.766642 396.345408,427.722297 C397.206969,427.50852 398.086635,427.364331 398.990025,427.326089 C406.349502,427.008872 423.066901,436.887111 413.617203,445.248851 C405.382431,452.535439 397.094592,437.245704 391.054926,431.733901 C383.707936,437.280811 376.324735,442.78509 369.128206,448.52885 C372.930935,447.729538 376.563225,447.772795 380.520161,449.198391 C384.614448,450.675393 391.162933,454.168542 388.238622,459.647745 C385.264364,465.219731 377.339254,462.19802 373.235603,460.16432 C370.997418,459.055314 366.580983,455.476279 362.623423,453.858848 C351.107228,463.643677 341.004492,474.556318 333.104355,487.621146 C328.172232,495.778513 324.293336,504.566553 321.410853,513.656764 C319.570984,519.458826 316.035464,529.180337 316.238368,536.868148 C314.161881,521.39222 320.333278,503.259443 326.660131,489.855457 C332.477538,477.529758 340.775367,466.876657 350.337442,457.397134 C348.426401,450.454721 329.846657,439.612293 341.594474,433.871041 C347.832049,430.836791 353.749347,436.724114 354.765739,442.684158 C355.463728,446.779768 353.810531,451.793176 352.132985,455.644918 C355.135961,452.759873 358.24632,449.978268 361.441586,447.29885 C365.857397,443.595686 370.368104,440.011636 374.917519,436.477738 C368.098703,429.364177 362.320628,409.746875 372.101839,407.100683 C386.544843,403.206311 378.330673,429.121563 377.082035,433.993916 C376.799842,433.995797 376.585076,433.899252 376.433367,433.708671 C376.489556,434.163809 376.556982,434.650919 376.643762,435.143044 C385.349272,428.416915 394.170904,421.838109 402.730322,414.932684 C402.022344,414.349656 400.960377,412.208128 400.098192,411.052731 C398.152189,408.447915 396.301706,405.736524 395.002497,402.740516 C392.95036,398.006084 391.123601,390.530169 397.346817,388.134741 C404.115063,385.524283 406.821487,394.013287 406.607346,398.981557 C406.458758,402.417657 405.352464,405.631203 404.688812,408.972013 C404.481538,410.013939 404.819919,414.77721 403.496362,412.6664 C403.524457,413.420574 403.505727,413.964733 403.452036,414.348402 C404.98911,413.102103 406.515571,411.840758 408.033291,410.569382 C407.975229,410.395728 407.935273,410.207655 407.935273,409.991997 C407.935273,408.507472 409.454866,408.015346 410.476877,408.50371 C412.481566,406.789108 414.468775,405.050684 416.424143,403.274018 C420.568375,399.510043 424.775663,395.635733 428.959852,391.673028 C428.138247,390.888762 428.534066,389.883196 427.770523,389.056301 C427.008229,388.231286 425.448679,387.715338 424.542168,386.938595 C422.262153,384.983886 420.431649,382.214193 419.144303,379.51534 C417.01912,375.056122 414.455664,365.801033 421.436179,364.094581 C428.63146,362.332334 431.76804,371.276475 431.936606,376.774485 C431.969695,377.839607 430.674857,387.35361 429.885093,390.791591 C437.62915,383.425385 445.267697,375.762024 452.235101,367.923127 C450.253512,367.80088 444.845658,363.444474 443.767458,362.276539 C441.136576,359.427855 437.04229,353.223316 442.068685,350.316956 C446.537563,347.739724 451.651987,352.07983 453.293323,356.123406 C453.563029,356.789186 454.317206,362.894046 454.25852,365.612333 C457.146622,362.284689 459.911108,358.930087 462.496414,355.554798 C464.22016,353.311083 465.842142,351.000289 467.370476,348.633699 C467.043332,348.424938 466.743659,348.075121 466.465837,347.64506 C459.32175,346.04393 450.721127,334.315676 459.392923,330.84635 C463.521547,329.196947 467.692,333.266854 469.501902,336.514881 C469.872748,337.179406 470.358468,340.448121 470.758032,343.027233 C475.210678,335.15511 478.738082,326.75889 481.541276,318.107517 C480.921951,317.918816 480.415628,317.411645 480.388783,316.583496 C476.993734,314.40498 474.317277,312.598849 472.075346,308.634263 C470.68249,306.171756 468.234534,300.584097 472.763346,299.495153 C478.656921,298.078334 481.837828,307.133438 482.08381,311.524323 C482.112529,312.034002 482.03324,313.50787 481.943338,314.85761 C482.146242,314.840683 482.34977,314.854475 482.547679,314.900239 C484.165291,309.537015 485.517566,304.089784 486.652579,298.621866 C483.538474,297.436377 483.862496,280.772453 486.095686,278.514319 C491.087744,273.457654 494.012055,281.293416 493.548186,285.329469 C493.000658,290.088352 490.609515,294.318121 487.831294,298.037584 C487.533493,298.431285 487.613406,298.415612 487.571577,297.843242 C487.517261,298.122217 487.412376,298.32471 487.265036,298.467646 C487.266285,300.987828 487.390524,303.574463 487.149537,305.791848 C486.45904,312.141831 485.381465,318.50874 483.974873,324.738982 C483.632746,326.254227 483.25316,327.755052 482.837988,329.240831 C485.497588,327.205251 489.031236,325.458049 490.405987,324.925802 C493.973972,323.545971 499.434893,322.140436 502.75877,324.969059 Z M315.828432,536.868148 C315.873761,539.097495 316.167933,541.151967 316.828432,542.868148 C316.367285,540.929454 316.040736,538.92262 315.828432,536.868148 Z" id="Leaf-Bottom" fill="#F2F2F2" transform="translate(412.328432, 409.868148) scale(-1, 1) rotate(-3.000000) translate(-412.328432, -409.868148) "></path>
        <path d="M153.702387,158.658046 C157.299921,157.103099 161.868643,159.364591 159.677794,163.858838 C157.331092,168.671464 149.605232,168.327542 145.248916,168.00141 C145.686641,168.00141 147.328887,163.561442 147.845874,162.904615 C149.370562,160.966975 151.490609,159.615919 153.702387,158.658046 Z M108.628711,246.226253 C107.334711,247.220253 108.522711,246.320253 108.628711,246.226253 Z M156.580064,181.724236 C158.593564,183.420957 158.545243,186.229634 156.731407,188.038321 C154.571579,190.19152 150.850458,189.91591 148.081155,189.551453 C146.828473,189.38645 140.139754,188.505225 141.789483,187.499341 C141.664579,187.538779 141.40292,187.636693 141.121204,187.773591 C140.9457,188.298971 140.762904,188.822085 140.573725,189.342479 C140.612017,189.367411 140.644382,189.393703 140.685409,189.418635 C140.640735,189.396423 140.609737,189.373304 140.570534,189.351092 C138.675556,194.552313 136.11002,199.465232 132.850221,204.016867 C133.99988,203.636091 135.184184,203.364108 136.375326,203.277527 C139.902711,203.020503 147.131615,206.099804 142.967405,210.516807 C138.974595,214.751129 133.374907,209.695419 129.144142,208.818727 C124.704141,214.322302 119.852506,219.565681 114.791635,224.614591 C115.079733,224.720665 115.326805,224.923292 115.458547,225.225646 C117.427372,224.361647 119.498765,223.086954 121.293455,222.805904 C123.883152,222.401103 129.152347,222.347613 130.968007,224.718398 C133.201227,227.633602 130.529021,229.768669 127.687694,230.158058 C123.567702,230.722876 118.332695,228.472216 114.478464,226.935059 C114.025347,226.990363 113.542144,226.834879 113.268177,226.464075 C113.182932,226.431438 113.097688,226.399253 113.014723,226.367975 C107.894591,231.387874 102.598499,236.224184 97.3388764,240.950342 C97.3922111,240.950342 97.4455458,240.949889 97.5011598,240.949889 C98.8491148,240.171111 100.283682,239.549176 101.81808,239.264047 C105.367802,238.599956 109.491897,238.809836 112.203306,241.468923 C114.90423,244.116677 115.676444,248.542293 112.596706,251.198207 C106.432217,256.514568 98.4661989,243.249958 95.5350691,242.561388 C90.1929368,247.311117 84.5768374,251.716335 78.8814196,256.022732 C79.5104957,255.868155 80.1527915,255.763895 80.8124097,255.736243 C86.1859957,255.506871 98.3923509,262.649597 91.4925715,268.695778 C85.4798806,273.964542 79.4284423,262.908887 75.0185279,258.92343 C69.6540588,262.934272 64.2631504,266.91429 59.0085418,271.06747 C61.7851377,270.489506 64.4372859,270.520784 67.3264774,271.5516 C70.3159563,272.619586 75.0973903,275.145401 72.9621785,279.107287 C70.7904985,283.136261 65.0039103,280.951331 62.0075936,279.48081 C60.3733633,278.678913 57.1486647,276.090995 54.2590174,274.921469 C45.8503672,281.996652 38.4737664,289.887332 32.7054124,299.334207 C29.1041798,305.232611 26.2719699,311.58704 24.1673001,318.159962 C22.8239036,322.355299 20.2424124,329.384699 20.3905644,334.943578 C18.8743999,323.753292 23.3804992,310.641899 28.0001057,300.949786 C32.2477367,292.037357 38.3064687,284.334346 45.2883014,277.479922 C43.8929377,272.460023 30.3267754,264.620113 38.9045468,260.468747 C43.4589664,258.274751 47.7795338,262.531738 48.5216613,266.841308 C49.0313041,269.802749 47.8242074,273.427829 46.5993324,276.212934 C48.7919816,274.126825 51.0630374,272.115511 53.3960891,270.178086 C56.6203319,267.500413 59.9138643,264.908869 63.2356595,262.353589 C58.2568414,257.209937 54.0379291,243.025119 61.1797659,241.111718 C71.7254514,238.295788 65.7278036,257.034508 64.8160991,260.557594 C64.6100539,260.558954 64.4532408,260.489145 64.3424687,260.351341 C64.3834954,260.68044 64.4327274,261.032658 64.4960909,261.388502 C70.8524944,256.524994 77.2936863,251.768011 83.5434204,246.774857 C83.026484,246.353284 82.2510793,244.804794 81.6215474,243.969353 C80.200656,242.085871 78.84951,240.125327 77.9008815,237.958983 C76.4024952,234.535624 75.0686716,229.129962 79.6126066,227.397884 C84.5545006,225.510322 86.53062,231.648524 86.3742627,235.240966 C86.2657699,237.72553 85.4579997,240.049172 84.9734288,242.464834 C84.8220859,243.218227 85.0691578,246.662438 84.1027511,245.13616 C84.1232644,245.681486 84.1095888,246.074954 84.0703856,246.352377 C85.1926937,245.451207 86.3072524,244.539157 87.4154292,243.619855 C87.3730349,243.494289 87.3438604,243.358298 87.3438604,243.202361 C87.3438604,242.128935 88.4534047,241.77309 89.1996348,242.126215 C90.6633763,240.886426 92.114354,239.629411 93.5420832,238.344745 C96.5680302,235.623102 99.6400184,232.821677 102.69514,229.956337 C102.095239,229.389252 102.384249,228.662151 101.826742,228.064242 C101.270146,227.467693 100.131427,227.094623 99.4695297,226.532978 C97.8047573,225.119573 96.4681986,223.116872 95.5282313,221.165394 C93.9765103,217.941036 92.1047811,211.248895 97.2016648,210.014999 C102.455362,208.740758 104.745563,215.20806 104.868643,219.183545 C104.892804,219.95371 103.947366,226.833066 103.370713,229.31899 C109.025104,223.992657 114.602456,218.451457 119.689767,212.783332 C118.242892,212.694937 114.2943,209.544921 113.507043,208.700414 C111.586082,206.640596 108.596603,202.154237 112.266669,200.052716 C115.52966,198.189179 119.264001,201.327409 120.462436,204.251226 C120.659365,204.732636 121.210034,209.14692 121.167184,211.11245 C123.275956,208.706307 125.29447,206.280672 127.182154,203.840078 C128.440762,202.2177 129.625066,200.546818 130.740993,198.835592 C130.502126,198.684641 130.283317,198.431697 130.080463,198.12073 C124.864146,196.962989 118.584325,188.48256 124.916113,185.97397 C127.930664,184.781325 130.975756,187.724181 132.297272,190.072754 C132.568048,190.553257 132.922701,192.916789 133.214447,194.781686 C136.465585,189.089535 139.04115,183.018422 141.087926,176.762814 C140.635721,176.626369 140.266025,176.259645 140.246423,175.660829 C137.767499,174.085595 135.81326,172.779623 134.176295,169.912922 C133.159289,168.132341 131.371892,164.092033 134.678644,163.304643 C138.981889,162.280174 141.304456,168.82771 141.484062,172.002658 C141.505031,172.371195 141.447138,173.436915 141.381495,174.412881 C141.529647,174.400641 141.678255,174.410614 141.82276,174.443705 C143.003873,170.565682 143.991249,166.626915 144.819989,162.673189 C142.546198,161.815989 142.782785,149.76669 144.413368,148.133886 C148.058363,144.477528 150.193575,150.143387 149.854876,153.061764 C149.455094,156.502802 147.70918,159.56125 145.680638,162.250709 C145.463196,162.535384 145.521545,162.524052 145.491003,162.110184 C145.451344,162.311905 145.374761,162.458322 145.26718,162.561676 C145.268091,164.383962 145.358806,166.254298 145.182847,167.857638 C144.678674,172.449164 143.891873,177.052929 142.864838,181.557873 C142.615031,182.653511 142.337873,183.738724 142.034731,184.813056 C143.976662,183.341175 146.556786,182.077814 147.560572,181.692958 C150.165768,180.695234 154.153107,179.678924 156.580064,181.724236 Z M19.9970115,334.484568 C20.0423399,335.9708 20.336512,337.340448 20.9970115,338.484568 C20.5358644,337.192106 20.2093149,335.854217 19.9970115,334.484568 Z" id="Leaf-Top" fill="#C1DEE2" opacity="0.2" transform="translate(90.122964, 242.714073) rotate(-3.000000) translate(-90.122964, -242.714073) "></path>
        <g id="Plant-Right" opacity="0.7" transform="translate(399.000000, 324.000000)">
            <path d="M79.9047528,113.040378 C66.2530447,113.763024 50.2943362,123.453253 50.3969417,138.364313 C50.4717916,149.198479 51.9215094,159.856965 51.4184788,170.735674 C51.0157194,179.430065 49.1251777,187.934396 46.1884145,196.124248 C43.3645394,203.999655 36.5431303,211.167853 35.436189,219.380461 C34.7305556,224.613392 36.1801359,231.717944 38.4174204,236.528898 C41.1381257,242.378219 39.9806746,242.014971 36.3655703,247.542924 C29.2817053,258.37603 23.0341453,269.378157 19.1082064,281.839931 C13.4530146,299.789359 10.6714461,320.367962 15.4148106,338.86673 C16.0178728,341.21586 17.3353725,349.734582 20.6839214,349.987756 C24.4238591,350.27121 22.1932685,345.554422 21.8310908,343.993101 C19.5216852,334.030746 17.4849615,325.324509 17.9135797,314.914948 C19.5678962,274.751412 45.2035015,245.709474 60.1509621,210.198324 C60.9846805,208.360426 62.6955789,204.012856 63.9005736,201.136619 C65.8029769,196.595678 67.3104972,188.177093 70.1621387,184.658557 C75.5325909,178.03009 71.2830113,190.667575 70.3556501,193.092328 C69.1832784,196.159421 67.8821244,199.424932 66.6353083,202.135537 C60.9464558,214.690583 54.5660296,228.413437 48.6881887,241.356913 C80.3924105,245.15732 98.2859955,205.641673 104.022858,180.295993 C108.749645,159.413931 111.985935,111.412785 79.9047528,113.040378" id="Leaf-Me-Alone!" fill="#69A1AC" transform="translate(60.000000, 231.500000) scale(-1, 1) rotate(6.000000) translate(-60.000000, -231.500000) "></path>
            <path d="M210.80537,78.1211996 C187.982635,79.932006 173.33094,94.991753 166.510526,116.055531 C162.834567,127.406956 162.413232,139.068178 160.370472,150.73361 C157.297501,168.284374 150.685653,181.584667 137.763871,194.088576 C133.761608,197.961058 130.812263,201.937087 128.715679,206.190925 C124.553629,210.438027 120.930652,215.244115 118.268925,221.120186 C114.86881,228.624383 113.90672,237.627904 117.832452,245.109372 C118.887892,247.120537 121.521026,251.158021 124.250033,252.992399 C114.032868,274.752382 108.415067,298.584143 109.048331,322.385598 C109.430981,336.75335 110.132365,351.126994 110.950647,365.477066 C111.170985,369.330186 112.42574,375.692843 114.310394,369.230849 C116.035261,363.320262 113.872239,354.041458 113.672084,347.866532 C112.69822,317.785763 111.865642,290.435094 124.248351,262.330974 C125.546836,259.385362 126.923534,256.463322 128.357419,253.564853 C128.441517,253.516026 128.519729,253.457097 128.598782,253.399851 C128.653446,253.441944 128.703065,253.487403 128.757729,253.528654 C128.849397,253.365336 128.974704,253.17087 129.121036,252.953674 C129.532279,252.529385 129.891381,251.99313 130.232822,251.394579 C131.331152,249.872525 132.574133,248.084448 132.580861,247.105384 C132.580861,247.097807 132.576656,247.086022 132.576656,247.078445 C140.242263,234.565276 149.022178,222.741577 157.990476,211.149386 C157.923197,211.23357 167.718185,197.897078 166.203566,205.272473 C165.473588,208.826738 158.268843,215.595164 155.359024,219.35989 C148.922101,227.735396 141.3633,238.347681 135.081959,248.609759 C134.236766,249.095503 133.042563,251.480447 132.178869,253.256738 C131.702028,254.156669 131.257146,255.064177 130.819832,255.854668 C153.076582,263.208176 170.390004,248.395931 182.195796,231.167594 C182.210092,231.147389 182.222707,231.126343 182.236163,231.106139 C185.828864,226.345511 189.509028,221.618557 194.10671,217.855515 C201.777363,211.576201 209.992135,210.468334 219.036121,207.377925 C243.699779,198.951066 254.18606,166.987092 257.516373,143.269822 C261.273908,116.512653 242.894113,75.4828606 210.80537,78.1211996" id="Leaf-Me-Alone!" fill="#89C5CC"></path>
            <path d="M187.087285,8.28187838 C160.498481,29.1635113 144.586107,61.0733802 131.288496,91.3053591 C116.436639,125.071454 104.873047,159.852852 99.4843227,196.372108 C95.9443747,220.365462 91.8946121,244.44009 89.9250364,268.625714 C89.2249833,277.215152 88.8748455,285.868946 89.0407006,294.486685 C89.0545865,295.194866 89.4310473,314.437622 92.9380414,310.458848 C94.9325477,308.196212 92.5847722,290.502543 92.6250129,287.616161 C92.8548439,271.35938 94.6480975,255.202131 97.0075499,239.126854 C100.892071,212.659438 103.8149,186.195152 110.209077,160.179766 C111.163144,156.295431 112.0616,152.201098 113.539379,148.477679 C115.109085,144.518959 113.591965,146.130097 117.057176,144.962594 C120.424285,143.827288 124.27953,144.598829 127.821221,143.078763 C141.869801,137.048323 151.32577,117.815648 158.339102,105.310098 C166.360518,91.0095004 172.210631,75.380055 177.309925,59.8610252 C181.055021,48.4585852 184.191433,37.0431561 186.706808,25.3142977 C187.499429,21.6177491 188.064185,17.7150456 189.314089,14.1464607 C189.650899,13.1838012 190.889167,11.5711488 190.976475,10.6889811 C191.161137,8.82194319 190.19407,7.57272465 190.321563,6 C189.227765,6.73737876 188.148642,7.49851591 187.087285,8.28187838" id="Leaf-Me-Alone!" fill="#89C5CC" transform="translate(140.000000, 158.500000) rotate(-8.000000) translate(-140.000000, -158.500000) "></path>
            <path d="M38,328 C38,368.316787 70.6832133,401 111,401 C151.316787,401 184,368.316787 184,328" id="Base" fill="#89C5CC"></path>
            <path d="M116.857294,328.232365 L113,328.232365 C113.267642,323.392844 113.62115,318.561789 114.430188,313.776147 C117.524558,295.473303 127.199937,268.591213 148.420279,265.620466 C149.203131,265.50975 152.082849,265.491157 155.57117,265.695686 C157.224419,264.771923 159.076327,264.213271 161.027565,264.084806 C179.094613,262.752829 199.271153,277.328505 207.986064,292.49664 C215.01153,304.726145 213.827993,320.785081 209.488635,333.777767 C206.582823,342.476182 200.240879,354.878099 189.6648,354.998958 C176.432916,355.150242 175.794849,338.796344 175.538949,329.235863 C175.198872,316.525461 173.592762,305.452985 163.577306,296.789222 C161.24306,294.770973 158.691635,292.995286 156.33382,291.004928 C152.641788,287.889659 148.561698,284.700014 148.086094,279.546212 C147.429508,272.435859 151.443098,271.156282 157.571231,272.477271 C158.615876,272.702085 169.138923,277.424009 167.580795,273.69177 C167.105191,272.551646 165.367764,271.648167 163.174937,270.971192 C157.500522,270.354223 150.733481,269.63837 148.787294,270.066022 C127.791706,274.672159 119.617215,303.755053 117.446273,322.232845 C117.211978,324.227323 117.022514,326.228307 116.857293,328.232365 Z" id="Leaf-Me-Alone!" fill="#69A1AC"></path>
        </g>
        <g id="Plant-Left" opacity="0.5" transform="translate(-61.000000, 195.000000)">
            <path d="M178.22298,111.444518 C182.425309,105.452509 190.223629,90.2347729 196.138329,88.0936482 C199.947942,86.7145659 198.837195,100.980115 198.884241,103.700243 C199.067454,114.223987 198.04293,124.681002 196.777726,135.11639 C194.498335,153.936569 187.044926,170.697369 176.822023,186.715278 C171.561534,194.957467 165.391397,203.299596 156.84547,208.442327 C152.911771,210.810658 148.178543,211.207195 144.293769,213.247706 C139.769382,215.623126 142.233354,213.702848 140.194367,218.417487 C137.362802,224.963133 136.457106,233.407714 135.146985,240.392151 C129.131553,272.454512 114.568305,441.944513 117.093014,474.558062 C117.317249,477.448784 113.286509,478.140055 113.085292,474.611088 C112.015789,455.899518 121.270437,326.322179 125.939564,283.946664 C130.608691,241.571148 135.333634,204.134499 140.071325,189.473898 C145.818851,171.687472 156.199212,150.297922 164.840137,133.71131 C168.853782,126.005544 173.228734,118.565238 178.22298,111.444518 Z" id="Leaf" fill="#69A1AC"></path>
            <path d="M209.414132,319.277765 C220.349167,311.249697 232.185522,326.401056 222.290441,334.430358 C216.820206,338.868469 211.101395,337.289712 207.88186,333.591199 C205.791868,336.13879 203.835706,338.802543 201.956089,341.052489 C196.229376,347.9085 190.816767,354.92815 185.643881,362.111477 C174.898009,377.034662 165.688992,392.800688 156.060308,408.278421 C146.558057,423.5541 137.131786,438.908021 128.519073,454.570722 C121.222883,467.840829 111.497988,483.452044 109,498 C112.790111,467.146303 127.171863,437.490438 144.298022,410.29054 C161.284824,383.314089 180.779154,353.852808 207.081026,332.563583 C204.404139,328.627042 204.329828,323.00793 209.414132,319.277765 Z" id="Leaf" fill="#C1DEE2"></path>
            <path d="M1.9131966,244.030768 C8.03244063,245.227492 18.0312164,259.070175 23.0752982,264.344345 C29.0698505,270.611956 34.5083971,277.292338 39.6348672,284.291716 C50.6711078,299.357587 60.5410853,315.375735 68.9339235,332.079859 C82.6164473,359.310923 93.5779281,387.264554 101.533144,416.917658 C106.40282,435.069395 109.555733,453.882964 111.42432,472.565152 C111.77721,476.088501 115.4712,503.252852 110.148387,503.985007 C105.361077,504.644266 106.839698,483.358557 106.608745,480.463176 C103.998072,447.797866 96.1772343,416.014794 85.2985211,385.226103 C82.9289815,378.519078 80.7275953,370.304171 76.9381423,364.268497 C74.2092052,359.921096 76.9185722,361.437175 72.1228242,359.791894 C68.0049102,358.378312 63.3131333,358.72373 59.0962962,356.993389 C49.9356343,353.236662 42.6005721,345.943735 36.1708879,338.607909 C23.6757579,324.351374 13.774003,308.928035 8.61263648,290.66039 C5.74946717,280.531578 3.11836073,270.343849 1.65825821,259.901833 C1.28055511,257.202878 -2.02816228,243.259967 1.9131966,244.030768 Z" id="Leaf" fill="#69A1AC"></path>
            <path d="M26.061363,13.7160319 C49.111288,53.6904115 68.0527721,97.6012194 80.2834249,142.076227 C87.6937407,169.023152 92.875997,196.674657 98.0249813,224.126418 C105.997255,266.632047 113.538111,309.134396 115.683127,352.395051 C117.841152,395.906414 122.108499,446.091658 107.860834,488 C114.977614,445.451647 108.201957,400.162237 107.002263,357.34982 C106.428958,336.911865 104.767627,316.673726 102.588271,296.3552 C100.473423,276.645138 97.0183596,257.028931 93.8009172,237.47379 C92.2336415,227.950082 90.5876488,218.440705 88.9117997,208.936528 C88.4115013,206.100946 88.2001646,197.686783 86.4014385,195.749671 C84.5910631,193.799805 75.3542884,193.004911 72.454369,191.574216 C66.6149274,188.69262 61.1221445,184.599523 56.2608889,180.274642 C46.9417982,171.983953 38.8346584,161.151161 32.435855,150.472492 C17.6306837,125.76373 11.7115834,95.6100441 12.0107586,66.9941546 C12.0682413,61.4382419 21.003398,1.60995132 17.4148953,0.786066265 C17.6309536,0.533029377 17.8353283,0.27176118 18.0280364,0 C20.7448404,4.54878452 23.4108122,9.12839556 26.061363,13.7160319 Z" id="Leaf" fill="#89C5CC"></path>
            <path d="M274.846162,157.887288 C275.201814,157.374304 277.516546,153.806661 276.35092,154.034666 C278.724178,153.570439 273.086653,157.969398 279,155.270217 C276.192302,157.921907 277.812715,161.366495 277.85019,164.93538 C277.91133,170.729664 276.941861,176.476433 275.850557,182.146394 C274.126127,191.108872 271.55719,199.823019 267.828427,208.1592 C259.70147,226.325634 245.90148,243.814146 229.518328,255.171668 C221.430419,260.779333 213.503908,262.688536 204.279644,265.270093 C198.453207,266.901031 197.991162,269.91496 194.898475,275.568863 C188.459734,287.344734 182.135661,299.078246 176.457263,311.251437 C169.676879,325.787507 163.094762,340.339599 156.885915,355.131559 C135.969422,404.957486 118.945337,456.577892 110.004808,510 C109.785907,478.518515 117.068634,446.095278 126.255091,416.088186 C132.946871,394.2257 141.658313,373.150925 150.949917,352.289498 C153.201461,347.235572 156.613471,340.734509 157.569628,335.154756 C158.23913,331.245304 156.192265,327.485558 155.255097,323.367253 C151.601499,307.329812 151.862999,289.362708 155.071402,273.239515 C158.608912,255.460636 168.839228,247.208854 186.145128,244.690591 C192.474243,243.769436 200.51871,244.107045 206.322196,241.408429 C212.645007,238.469723 215.253262,228.810237 218.848644,222.609606 C228.505717,205.953401 239.979718,189.979083 253.15504,175.944848 C256.803162,172.05859 260.726377,168.473254 264.88847,165.150086 C267.513083,163.053353 273.057504,160.47018 274.846162,157.887288 Z" id="Leaf" fill="#89C5CC"></path>
            <path d="M80.7914533,476 L142.208547,476 C144.96997,476 147.208547,478.238576 147.208547,481 C147.208547,481.244141 147.190665,481.487955 147.155046,481.729484 L142.408062,513.917935 C140.96096,523.730477 132.540739,531 122.622066,531 L100.377934,531 C90.4592609,531 82.03904,523.730477 80.5919379,513.917935 L75.8449542,481.729484 C75.4420714,478.997608 77.3300935,476.456384 80.0619696,476.053501 C80.3034985,476.017881 80.547312,476 80.7914533,476 Z" id="Base" fill="#C1DEE2"></path>
        </g>
        <g id="Maceta" transform="translate(-51.000000, 639.000000)" fill="#F2F2F2">
            <path d="M15.4177215,48.4556962 C15.4177215,69.7431274 17.0976047,87 39.6455696,87 C62.1935345,87 63.8734177,69.7431274 63.8734177,48.4556962" id="Base"></path>
            <path d="M46.353417,35.1741665 C45.5269187,36.603205 44.7899627,38.0608242 44.1390143,39.5403256 C44.1160396,36.4933476 44.2845204,33.4240409 44.7446025,30.3127562 C45.5310424,24.9833358 46.7322042,19.6816031 47.8609075,14.3883552 C48.6720893,10.5844334 48.6208382,3.75184321 51.6994412,0.720495335 C52.5436123,0.0653705071 52.7468496,1.35061199 52.7468496,1.90838357 C52.7574533,2.02627925 52.7444932,-0.368253357 51.9250641,0.0488472497 C47.0544384,2.56440155 45.4762567,10.4741295 43.916926,14.4343524 C41.6418466,20.2148131 39.7060851,26.1238872 38.9090415,32.1379063 C38.7075715,33.6571528 38.5980001,35.1759528 38.5726691,36.6920733 C38.4071338,36.2865836 38.2516131,35.877968 38.0795978,35.473818 C35.2684432,28.8805917 31.4746806,22.4472391 26.743081,16.51405 C25.578443,15.0541979 10.9341658,0.649489986 9.78778975,2.85422841 C9.90089571,3.17442235 10.1377113,3.44013419 10.4988257,3.65136394 C10.5200331,3.67547897 10.5206222,3.66208173 10.5082512,3.62635577 C11.3683278,5.01564911 13.8136552,7.16143971 14.5753532,8.37880186 C16.4922637,11.4423031 17.9820814,14.6933656 19.4960519,17.8823543 C22.69483,24.6216105 25.6620943,31.428746 28.5386382,38.2501718 C29.2084376,39.839084 29.9065135,41.4190647 30.6187276,42.994133 C23.2768544,32.4045113 13.4825846,22.7906549 -1.42108547e-14,17.2870705 C4.60494447,19.6298004 7.62404905,24.037491 10.733874,27.4122547 C14.4846328,31.4827815 18.4350943,35.4438975 22.1929222,39.5099586 C26.6252623,44.3066155 31.8405077,49.35782 36.1037779,54.6658048 C40.2333239,63.3356026 44.2462293,72.0147785 46.7233678,81.1284714 C45.7083596,77.9796744 46.6438402,73.6282523 46.4700576,70.3236008 C46.3322097,67.6932768 46.0247028,65.0843884 45.6035009,62.4804124 C46.1242596,63.6549034 46.5731489,64.8302875 46.7763862,65.923502 C46.5908217,64.089867 46.3769808,62.2678429 46.1472343,60.4551969 C46.7369169,58.7582137 47.3159959,57.1746605 47.7071541,55.8702163 C49.7118395,49.1787436 52.0988467,42.6024871 55.349465,36.192803 C58.3573768,30.263633 61.8076979,24.4099342 65.5672931,18.7348651 C67.3210246,16.088911 69.0989091,13.4527816 70.8656007,10.8121864 C72.0219914,9.08349646 73.1230073,6.31562756 74.733,4.65928264 C64.3260729,14.1739995 52.9559778,23.7574888 46.353417,35.1741665" id="Fill-27"></path>
        </g>
        <g id="Top-Leaves" transform="translate(412.000000, 116.000000)" fill="#F2F2F2">
            <path d="M211.459988,136.913619 C211.697988,126.527619 207.442988,116.955619 202.732988,107.921619 C193.563988,90.3346193 188.977988,79.8126193 190.459988,58.9256193 C191.331988,46.6416193 192.373988,33.6626193 186.103988,22.5076193 C181.538988,14.3846193 171.962988,5.69461932 161.850988,7.16361932 C145.843988,10.8096193 136.907988,26.0616193 133.481988,41.2056193 C129.235988,59.9756193 134.097988,73.9796193 148.271988,86.0066193 C156.258988,92.7816193 160.763988,99.7606193 162.941988,110.078619 C164.684988,118.329619 164.189988,127.791619 167.170988,135.726619 C171.627988,147.588619 179.674988,154.832619 191.778988,157.035619 C187.410988,133.523619 181.274988,109.229619 171.435988,87.4316193 C170.552988,85.2746193 164.205988,76.0546193 166.846988,73.7256193 C169.755988,71.1616193 174.556988,85.9036193 174.518988,85.8116193 C177.307988,92.3626193 179.660988,99.1256193 181.922988,105.916619 C181.910988,105.918619 181.897988,105.917619 181.884988,105.919619 C184.219988,112.892619 186.494988,119.937619 188.667988,127.028619 C189.511988,130.003619 190.301988,132.995619 191.003988,136.027619 C192.033988,140.476619 192.155988,152.193619 195.076988,155.672619 C195.701988,156.416619 196.337988,156.925619 196.978988,157.258619 C198.148988,162.164619 199.240988,167.081619 200.197988,172.008619 C202.696988,184.876619 204.141988,198.075619 202.521988,211.160619 C202.048988,214.979619 197.189988,228.261619 198.799988,231.652619 C201.742988,237.854619 203.397988,228.290619 204.025988,225.445619 C209.218988,201.883619 207.341988,179.762619 201.675988,156.694619 C206.884988,153.106619 211.362988,141.121619 211.459988,136.913619" id="Leaf" transform="translate(171.734760, 120.352443) rotate(-18.000000) translate(-171.734760, -120.352443) "></path>
            <path d="M115.85853,100.65925 C108.257019,101.771171 101.081536,111.378886 97.541036,117.784796 C93.1599315,125.711405 90.104439,134.755685 87.8025125,143.463054 C84.0100599,157.806497 83.4975663,173.726407 83.4506116,188.416535 C83.4448854,190.186755 83.0755464,211.810007 85.6036573,211.455273 C88.1082908,211.103988 86.5221374,188.659157 86.7357241,184.011394 C87.1903832,174.09264 86.510685,164.31072 88.8372342,154.517877 C91.2456677,144.377773 95.6617019,134.821802 101.24187,126.063265 C101.958215,124.939269 103.473937,120.760077 105.195801,121.725391 C106.879872,122.669432 102.214748,128.236513 101.552229,129.318538 C98.8168301,133.786922 96.4416084,138.518625 94.4746637,143.379689 C90.7892908,152.487211 88.8744544,162.017885 88.9397329,171.831426 C94.724898,172.719698 99.7650864,169.33219 101.705691,163.687492 C103.382318,158.808606 103.546087,153.133437 105.450616,148.52017 C106.762485,145.343087 108.849107,142.644924 111.400695,140.363587 C118.131826,134.346332 125.159001,132.841156 127.165456,122.85456 C128.738439,115.02569 126.785237,99.0684087 115.85853,100.65925" id="Leaf" transform="translate(105.535828, 156.004078) scale(-1, 1) rotate(58.000000) translate(-105.535828, -156.004078) "></path>
            <path d="M2.35176464,80 L3.05533376e-13,80 C0.164757456,77.0154001 0.379352103,74.0356557 0.883673399,71.0844844 C2.77417712,60.0223263 8.68534409,43.7749092 21.6499002,41.9794028 C22.1281833,41.9124864 23.8875448,41.9012485 26.0187329,42.0248651 C27.0287844,41.4665469 28.1602067,41.1288998 29.3523143,41.0512563 C40.3903669,40.2462156 52.7172123,49.0556901 58.0415826,58.2232442 C62.3337871,65.6147029 61.6107055,75.3206535 58.9595774,83.1733759 C57.1842731,88.4306594 53.3096661,95.9263239 46.8482165,95.9993701 C38.7642046,96.0908055 38.3743782,86.2065813 38.2180362,80.4282689 C38.0102659,72.7461579 37.0290143,66.0540017 30.910077,60.8176615 C29.4839707,59.597841 27.9251794,58.5246237 26.4846732,57.3216599 C24.2290287,55.4388046 21.7362997,53.5109978 21.4457299,50.3960624 C21.0445893,46.0985958 23.4966899,45.3252255 27.240669,46.1236256 C27.878894,46.2595018 34.3079438,49.1134119 33.3560062,46.8576634 C33.0654364,46.1685771 32.0039566,45.6225184 30.6642498,45.2133575 C27.1974692,44.8404643 23.0631495,44.407806 21.8741275,44.6662772 C9.04688492,47.450206 4.05268426,65.0277791 2.72634882,76.1956755 C2.5761854,77.4602545 2.45616417,78.7291607 2.35176454,80 Z" id="Leaf-Me-Alone!" transform="translate(30.552422, 68.500000) scale(-1, 1) translate(-30.552422, -68.500000) "></path>
        </g>
        <g id="Group" transform="translate(128.000000, 351.000000)">
            <g id="Head/Front/Chongo" transform="translate(71.540000, 0.000000)">
                <g id="Head" stroke-width="1" transform="translate(53.602941, 30.701923)" fill="#B28B67">
                    <path d="M8.20152187,34.1584909 C3.62749402,28.8017473 0.531696303,22.2369841 1.04900592,14.8809784 C2.53951897,-6.3137223 32.1106738,-1.6511582 37.8628756,9.04610664 C43.6150775,19.7433715 42.9315664,46.8778709 35.497358,48.7897705 C32.532606,49.5522334 26.2168026,47.6845046 19.7887884,43.81888 L23.8235294,72.2980769 L0,72.2980769 L8.20152187,34.1584909 Z"></path>
                </g>
                <path d="M82.0556752,28.0971881 C78.8003472,27.1068035 74.0747546,26.7709323 72.0868383,26.9981463 C73.2176557,24.2949704 73.6663807,21.2833073 73.3005615,18.3509215 C72.9450011,15.5015654 71.6688895,13.0754214 70.4886782,10.5331156 C69.9446609,9.36127897 69.3281485,8.19582927 68.4089651,7.2995076 C67.4726079,6.38634048 66.2873052,5.78357673 65.0444016,5.49600652 C63.7724695,5.20165024 62.4424805,5.22615997 61.1685727,5.49329209 C60.6050258,5.61144975 60.0993837,5.86852251 59.5467035,6.01142941 C58.9807249,6.15784911 58.7061705,5.80441399 58.2953649,5.44922248 C57.3053582,4.59337779 55.8540122,4.17088431 54.6015337,4.01967444 C53.1963139,3.85010222 51.7382047,4.06158847 50.398033,4.52248319 C49.0935769,4.97116296 47.8404145,5.69974866 46.8972941,6.76117171 C46.4773696,7.23364269 46.0962003,7.77141972 45.8484707,8.36516198 C45.7468711,8.60882224 45.7300772,8.75316619 45.486375,8.84242313 C45.2609867,8.92505366 44.997375,8.92744874 44.7647675,9.00608746 C42.5155952,9.76612864 40.5925749,11.5000125 39.5454993,13.7262466 C38.9346102,15.0250228 38.6452377,17.3117088 38.7244959,19.874708 C38.8037542,22.4377072 41.1232939,29.1253036 43.292752,31.5646206 C45.2292226,33.7419151 48.0756057,35.1787282 50.8225929,35.8076782 C48.9992724,37.8870136 47.7855492,40.4853645 46.8880232,43.1279446 C45.9131387,45.9984573 45.3097727,48.98106 45.086968,52.0200272 C44.875334,54.9073853 44.8557284,57.9608029 45.5341732,60.7865274 C46.1688474,63.4290277 47.526117,65.5968216 49.7919313,66.972081 C50.829812,67.6020689 51.9464951,68.0753383 53.0696375,68.5078911 C54.1765178,68.9341369 55.2867417,69.3485669 56.4462076,69.5877564 C58.6405906,70.0402683 61.1690286,69.9625876 62.8593654,68.2199217 C63.4685827,67.5916902 64.1385926,66.8022693 64.5830621,66.0348034 C64.7428705,65.7588094 64.8392267,65.5782996 64.6450705,65.3085329 C64.412463,64.9854356 64.0362332,64.7378633 63.7374378,64.4851017 C62.0334987,63.0439774 60.9787479,61.1200833 60.7128565,58.8337325 C60.4430896,56.5139304 61.067657,53.5196715 63.3282279,52.5072679 C66.1186819,51.2575111 69.1917452,52.692009 71.6719291,54.0291865 C72.7259959,50.3174392 74.8902866,46.9754136 78.2834987,45.2728255 C82.0375145,43.3892487 86.3451984,43.1688208 90.2030175,41.5526954 C91.2082983,41.1315591 92.2321968,40.6534996 92.9723461,39.7954195 C93.2816282,39.436795 93.6444837,38.9715892 93.7679685,38.4972819 C93.9302087,37.8742398 93.527458,37.3518711 93.2163522,36.8661474 C91.5667464,34.2907095 85.3110033,29.0875727 82.0556752,28.0971881 Z" id="hair" fill="#191847"></path>
            </g>
            <g id="Bottom/Standing/Shorts" transform="translate(0.000000, 180.000000)">
                <polygon id="Leg" fill="#997659" points="119.466667 9.9475983e-14 154.588782 114.788243 171.602811 212.40825 184.942984 212.40825 166.964909 9.9475983e-14"></polygon>
                <path d="M106.901879,0 C109.287458,63.0249151 106.479954,95.5343077 105.946032,101.260395 C105.412111,106.986483 98.1009832,144.114741 80.7927749,214.330497 L95.0077262,209.449903 C122.361736,145.051664 131.683007,111.582762 134.820305,103.126504 C137.957602,94.6702459 146.29011,60.2947445 159.817826,0 L106.901879,0 Z" id="Leg" fill="#B28B67"></path>
                <g id="Accessories/Shoe/Flat-Sneaker" transform="translate(78.400000, 185.677824)" fill="#E4E4E4">
                    <path d="M2.45011055,23.6358495 C1.43965434,26.3287489 0.93442623,28.3493809 0.93442623,29.6977455 C0.93442623,31.3657853 1.21514114,33.7998701 1.77657097,37 C3.73133322,37 21.2991108,37 54.4799037,37 C55.8494765,32.5179192 55.0588796,30.098188 52.1081132,29.7408064 C49.1573467,29.3834248 46.7060949,29.0607379 44.7543577,28.7727455 L20.314647,17.9873098 C19.8093764,17.7643299 19.2190127,17.9931718 18.9960328,18.4984425 C18.9932065,18.5048468 18.9904476,18.5112806 18.9877564,18.5177428 L17.4393958,22.2357929 C14.7077579,23.4974532 12.4880184,24.1282834 10.7801775,24.1282834 C9.41379932,24.1282834 7.53477429,23.5903609 5.14310236,22.514516 L5.14310412,22.5145121 C4.13575707,22.0613775 2.95180279,22.5106555 2.49866821,23.5180025 C2.4812344,23.556759 2.46504029,23.5960613 2.45011055,23.6358495 Z" id="shoe"></path>
                </g>
                <g id="Accessories/Shoe/Flat-Sneaker" transform="translate(166.133333, 185.677824)" fill="#E4E4E4">
                    <path d="M2.45011055,23.6358495 C1.43965434,26.3287489 0.93442623,28.3493809 0.93442623,29.6977455 C0.93442623,31.3657853 1.21514114,33.7998701 1.77657097,37 C3.73133322,37 21.2991108,37 54.4799037,37 C55.8494765,32.5179192 55.0588796,30.098188 52.1081132,29.7408064 C49.1573467,29.3834248 46.7060949,29.0607379 44.7543577,28.7727455 L20.314647,17.9873098 C19.8093764,17.7643299 19.2190127,17.9931718 18.9960328,18.4984425 C18.9932065,18.5048468 18.9904476,18.5112806 18.9877564,18.5177428 L17.4393958,22.2357929 C14.7077579,23.4974532 12.4880184,24.1282834 10.7801775,24.1282834 C9.41379932,24.1282834 7.53477429,23.5903609 5.14310236,22.514516 L5.14310412,22.5145121 C4.13575707,22.0613775 2.95180279,22.5106555 2.49866821,23.5180025 C2.4812344,23.556759 2.46504029,23.5960613 2.45011055,23.6358495 Z" id="shoe"></path>
                </g>
                <polygon id="Bottom" fill="#69A1AC" points="114.8 0 129.733333 58.4834016 175.34563 58.4834016 168.544651 0"></polygon>
                <path d="M106.4,-3.55271368e-15 C101.48641,14.7241079 100.553077,34.2185751 103.6,58.4834016 L150.14563,58.4834016 L162.944651,-3.55271368e-15 L106.4,-3.55271368e-15 Z" id="Bottom" fill="#89C5CC"></path>
            </g>
            <g id="Body/Jacket" transform="translate(21.000000, 83.000000)">
                <path d="M181.158648,82.9268289 L207.605402,108.640701 C215.300433,111.912097 221.605414,115.524379 226.520347,119.477547 C227.625642,120.806341 228.828935,123.352379 223.628578,122.213063 C218.428222,121.073748 212.906816,120.108458 211.929419,121.794014 C210.952022,123.47957 213.832003,126.062441 212.025651,128.2684 C210.821417,129.739039 206.771481,125.061223 199.875845,114.234952 L172.374718,98.0750225 L181.158648,82.9268289 Z M63.7718547,86.553268 L83.2815291,86.6297346 C71.2352054,125.387693 64.7319806,145.952423 63.7718547,148.323924 C61.6115715,153.659803 66.1830212,161.786253 68.1379546,166.153347 C61.7708018,168.992959 62.4492288,158.476715 54.4172368,162.201025 C47.086007,165.600403 41.5091588,171.759848 33.0389821,166.550912 C31.9976236,165.910504 30.8564644,163.499253 33.6136493,161.614987 C40.4828025,156.920595 50.3816682,148.704562 51.7191609,146.000191 C53.5430711,142.312298 57.5606357,122.496657 63.7718547,86.553268 Z" id="Skin" fill="#B28B67"></path>
                <path d="M113.934117,8.60194216 L121.856017,6.52353391 C138.718052,39.7852956 165.632188,68.9935874 202.598425,94.1484094 L179.289303,127.99755 C141.28233,90.9006741 116.397131,51.3733651 113.934117,8.60194216 Z" id="Coat-Back" fill="#191847" transform="translate(158.266271, 67.260542) rotate(5.000000) translate(-158.266271, -67.260542) "></path>
                <path d="M84.0234375,106.074866 L155.910156,106.074866 C139.255656,65.7153772 130.928405,31.4304701 130.928405,3.22014477 L109.243733,0 C92.2016188,27.3174481 87.3888808,60.9507577 84.0234375,106.074866 Z" id="Shirt" fill="#DDE3E9"></path>
                <path d="M108.784617,0.0152783788 C108.787464,0.0101847004 108.790311,0.00509190741 108.793157,-4.26325641e-14 L110.208644,-4.26325641e-14 C111.902395,0.0581300834 114.482197,0.162862971 117.948048,0.314198662 L123.187843,15.2383804 C123.742097,33.434447 126.978857,70.1044309 132.898122,125.248332 L85.7749356,125.248332 C85.8984686,129.056894 86.1021548,132.901033 86.3859943,136.780749 L51.3476563,136.780749 C56.5887736,77.8477519 75.7286786,32.2541691 108.767371,1.42108547e-14 L108.784617,0.0152783729 Z" id="Coat-Front" fill="#2F3676"></path>
                <path d="M88.8876758,76.5163616 C90.2287955,100.257397 93.5865494,116.623601 98.9609375,125.614973 L85.7870717,125.614973 C85.2103246,108.533993 86.2438595,92.1678081 88.8876747,76.5163681 Z" id="Shade" fill-opacity="0.1" fill="#000000"></path>
                <polygon id="Light" fill-opacity="0.2" fill="#FFFFFF" points="96.2636908 96.7700535 119.5 86.0037074 119.5 96.7700535"></polygon>
            </g>
        </g>
    </g>
</svg>