<?xml version="1.0" encoding="UTF-8"?>
<svg width="595px" height="842px" viewBox="0 0 595 842" version="1.1" xmlns="http://www.w3.org/2000/svg" xmlns:xlink="http://www.w3.org/1999/xlink">
    <!-- Generator: Sketch 55.2 (78181) - https://sketchapp.com -->
    <title>A4</title>
    <desc>Created with Sketch.</desc>
    <g id="A4" stroke="none" stroke-width="1" fill="none" fill-rule="evenodd">
        <rect fill="#FFFFFF" x="0" y="0" width="595" height="842"></rect>
        <g id="Image" transform="translate(35.000000, 215.000000)">
            <g id="Web" transform="translate(66.000000, 0.000000)">
                <rect id="Container" fill="#F2F2F2" x="0" y="0" width="396" height="346" rx="8"></rect>
                <path d="M8,0 L388,0 C392.418278,-8.11624501e-16 396,3.581722 396,8 L396,27 L0,27 L0,8 C-5.41083001e-16,3.581722 3.581722,8.11624501e-16 8,0 Z" id="Header" fill="#C5CFD6"></path>
                <g id="Buttons" transform="translate(9.000000, 10.000000)" fill="#F2F2F2">
                    <circle id="buttons" cx="4" cy="4" r="4"></circle>
                    <circle id="buttons" cx="16" cy="4" r="4"></circle>
                    <circle id="buttons" cx="28" cy="4" r="4"></circle>
                </g>
                <g id="Content" transform="translate(16.000000, 43.000000)">
                    <g id="Components" transform="translate(294.000000, 89.000000)">
                        <rect id="Background" fill="#FFFFFF" x="0" y="0" width="70" height="194" rx="8"></rect>
                        <g id="Rows" transform="translate(18.000000, 18.000000)">
                            <rect id="Data" fill="#DDE3E9" x="0" y="0" width="34" height="26" rx="4"></rect>
                            <rect id="Data" fill="#AFB9C5" x="0" y="34" width="34" height="25" rx="4"></rect>
                            <rect id="Data" fill="#DDE3E9" x="0" y="67" width="34" height="25" rx="4"></rect>
                            <rect id="Data" fill="#DDE3E9" x="0" y="133" width="34" height="25" rx="4"></rect>
                            <rect id="Data" fill="#C5CFD6" x="0" y="100" width="34" height="25" rx="4"></rect>
                        </g>
                    </g>
                    <g id="Profile" transform="translate(294.000000, 0.000000)">
                        <rect id="Background" fill="#FFFFFF" x="0" y="0" width="70" height="81" rx="8"></rect>
                        <g id="Profile-Info" transform="translate(10.000000, 15.000000)" fill="#DDE3E9">
                            <circle id="Avatar" cx="25" cy="16" r="16"></circle>
                            <rect id="Name" x="0" y="36" width="50" height="6" rx="3"></rect>
                            <rect id="Name" x="8" y="46" width="34" height="6" rx="3"></rect>
                        </g>
                    </g>
                    <g id="Rows">
                        <g id="Row">
                            <rect id="Container" fill="#FFFFFF" x="0" y="0" width="286" height="47" rx="4"></rect>
                            <g id="Text-Stuff" transform="translate(9.000000, 14.100000)" fill="#DDE3E9">
                                <rect id="Label" x="0" y="0" width="228" height="7.05" rx="3"></rect>
                                <rect id="Label" x="0" y="11.75" width="153.041096" height="7.05" rx="3"></rect>
                            </g>
                            <g id="Check" transform="translate(248.435115, 16.500000)">
                                <circle id="Background" fill="#DDE3E9" cx="7" cy="7" r="7"></circle>
                                <circle id="Indicator" fill="#F2F2F2" cx="7" cy="7" r="3"></circle>
                            </g>
                        </g>
                        <g id="Row" transform="translate(0.000000, 55.000000)">
                            <rect id="Container" fill="#FFFFFF" x="0" y="0" width="286" height="39" rx="4"></rect>
                            <g id="Text-Stuff" transform="translate(9.000000, 11.700000)" fill="#DDE3E9">
                                <rect id="Label" x="0" y="0" width="228" height="5.85" rx="2.925"></rect>
                                <rect id="Label" x="0" y="9.75" width="153.041096" height="5.85" rx="2.925"></rect>
                            </g>
                            <g id="Check" transform="translate(248.435115, 12.500000)">
                                <circle id="Background" fill="#DDE3E9" cx="7" cy="7" r="7"></circle>
                                <circle id="Indicator" fill="#F2F2F2" cx="7" cy="7" r="3"></circle>
                            </g>
                        </g>
                        <g id="Row" transform="translate(0.000000, 102.000000)">
                            <rect id="Container" fill="#FFFFFF" x="0" y="0" width="286" height="39" rx="4"></rect>
                            <g id="Text-Stuff" transform="translate(9.000000, 11.700000)" fill="#DDE3E9">
                                <rect id="Label" x="0" y="0" width="228" height="5.85" rx="2.925"></rect>
                                <rect id="Label" x="0" y="9.75" width="153.041096" height="5.85" rx="2.925"></rect>
                            </g>
                            <g id="Check" transform="translate(248.435115, 12.500000)">
                                <circle id="Background" fill="#DDE3E9" cx="7" cy="7" r="7"></circle>
                                <circle id="Indicator" fill="#AFB9C5" cx="7" cy="7" r="3"></circle>
                            </g>
                        </g>
                        <g id="Row" transform="translate(0.000000, 243.000000)">
                            <rect id="Container" fill="#FFFFFF" x="0" y="0" width="286" height="39" rx="4"></rect>
                            <g id="Text-Stuff" transform="translate(9.000000, 11.700000)" fill="#DDE3E9">
                                <rect id="Label" x="0" y="0" width="228" height="5.85" rx="2.925"></rect>
                                <rect id="Label" x="0" y="9.75" width="153.041096" height="5.85" rx="2.925"></rect>
                            </g>
                            <g id="Check" transform="translate(248.435115, 12.500000)">
                                <circle id="Background" fill="#DDE3E9" cx="7" cy="7" r="7"></circle>
                                <circle id="Indicator" fill="#F2F2F2" cx="7" cy="7" r="3"></circle>
                            </g>
                        </g>
                        <g id="Row" transform="translate(0.000000, 196.000000)">
                            <rect id="Container" fill="#FFFFFF" x="0" y="0" width="286" height="39" rx="4"></rect>
                            <g id="Text-Stuff" transform="translate(9.000000, 11.700000)" fill="#DDE3E9">
                                <rect id="Label" x="0" y="0" width="228" height="5.85" rx="2.925"></rect>
                                <rect id="Label" x="0" y="9.75" width="153.041096" height="5.85" rx="2.925"></rect>
                            </g>
                            <g id="Check" transform="translate(248.435115, 12.500000)">
                                <circle id="Background" fill="#DDE3E9" cx="7" cy="7" r="7"></circle>
                                <circle id="Indicator" fill="#F2F2F2" cx="7" cy="7" r="3"></circle>
                            </g>
                        </g>
                        <g id="Row" transform="translate(0.000000, 149.000000)">
                            <rect id="Container" fill="#FFFFFF" x="0" y="0" width="286" height="39" rx="4"></rect>
                            <g id="Text-Stuff" transform="translate(9.000000, 11.700000)" fill="#DDE3E9">
                                <rect id="Label" x="0" y="0" width="228" height="5.85" rx="2.925"></rect>
                                <rect id="Label" x="0" y="9.75" width="153.041096" height="5.85" rx="2.925"></rect>
                            </g>
                            <g id="Check" transform="translate(248.435115, 12.500000)">
                                <circle id="Background" fill="#DDE3E9" cx="7" cy="7" r="7"></circle>
                                <circle id="Indicator" fill="#F2F2F2" cx="7" cy="7" r="3"></circle>
                            </g>
                        </g>
                    </g>
                </g>
            </g>
            <g id="Group-3" transform="translate(239.000000, 315.000000) scale(-1, 1) translate(-239.000000, -315.000000) translate(0.000000, 142.000000)">
                <g id="Humaaan" transform="translate(358.000000, 173.500000) scale(-1, 1) translate(-358.000000, -173.500000) translate(238.000000, 1.000000)">
                    <g id="Head/Front/Chongo" transform="translate(102.314434, 48.947038) rotate(-8.000000) translate(-102.314434, -48.947038) translate(48.018818, 7.598638)">
                        <g id="Head" stroke-width="1" transform="translate(43.279412, 24.740385)" fill="#B28B67">
                            <path d="M6.62196951,27.5257742 C2.92886554,23.209175 0.429295534,17.9191231 0.84697515,11.991468 C2.05042643,-5.0877568 25.9263959,-1.33054495 30.5707663,7.28958108 C35.2151366,15.9097071 34.6632647,37.7753717 28.6608298,39.3160286 C26.267067,39.9304405 21.1676407,38.4253775 15.9776143,35.3103596 L19.2352941,58.2596154 L0,58.2596154 L6.62196951,27.5257742 Z"></path>
                        </g>
                        <path d="M66.25236,22.6414234 C63.623984,21.8433465 59.8085056,21.572693 58.2034472,21.7557878 C59.1164775,19.5775005 59.4787814,17.1506262 59.1834163,14.7876358 C58.8963342,12.4915527 57.8659923,10.5365046 56.9130809,8.48785041 C56.4738373,7.5435549 55.9760606,6.60440611 55.2339052,5.88212748 C54.4778834,5.14627437 53.5208612,4.66055212 52.5173316,4.42882079 C51.4903642,4.19162107 50.4165213,4.21137163 49.3879587,4.42663343 C48.9329467,4.52184786 48.5246876,4.72900357 48.0784495,4.84416156 C47.6214742,4.96215025 47.3997969,4.67734331 47.0681094,4.39112103 C46.2687707,3.70145977 45.0969431,3.36100386 44.0856828,3.23915513 C42.9510979,3.10250956 41.7738097,3.27293052 40.6917451,3.64433111 C39.6385176,4.0058886 38.626705,4.59300134 37.8652226,5.44832283 C37.5261725,5.82905187 37.2184136,6.26240619 37.0183948,6.74085868 C36.9363626,6.93720627 36.9228031,7.05352227 36.7260362,7.12544776 C36.5440559,7.19203353 36.3312139,7.19396355 36.1434049,7.25733261 C34.3274065,7.86979298 32.7747457,9.26700036 31.9293291,11.060956 C31.4360927,12.1075427 31.2024511,13.9502119 31.2664449,16.0155414 C31.3304386,18.0808709 33.2032521,23.4699048 34.9548886,25.4355681 C36.5184093,27.1900869 38.8166001,28.3479072 41.034538,28.854731 C39.5623755,30.5303119 38.5824064,32.6241286 37.8577373,34.7535864 C37.0706083,37.066718 36.5834461,39.4701746 36.4035519,41.9190511 C36.232677,44.2457571 36.2168473,46.706278 36.7646287,48.9833182 C37.2770694,51.1127117 38.3729389,52.8595747 40.2023741,53.9677935 C41.0403668,54.4754536 41.941985,54.856826 42.8488184,55.205388 C43.7425218,55.5488676 44.6389248,55.8828258 45.5750861,56.0755707 C47.3468472,56.4402162 49.3883268,56.3776191 50.7531173,54.973335 C51.2450038,54.4670902 51.7859748,53.8309549 52.1448427,53.2125114 C52.2738732,52.9901086 52.3516719,52.8446492 52.1949088,52.6272644 C52.0070998,52.3669044 51.703329,52.1674044 51.4620794,51.9637228 C50.0863063,50.8024284 49.2346928,49.252106 49.0200101,47.4097068 C48.8021983,45.5403517 49.3064787,43.1275023 51.1316803,42.3116819 C53.3847135,41.3045963 55.8659276,42.4605509 57.8684465,43.5380823 C58.7195078,40.5470626 60.4669722,37.853974 63.2066767,36.4819856 C66.2376969,34.9641518 69.7157528,34.7865255 72.8305845,33.4842108 C73.6422557,33.1448486 74.4689589,32.7596162 75.0665609,32.0681536 C75.3162776,31.7791649 75.6092498,31.4042903 75.7089524,31.0220816 C75.8399462,30.5200185 75.5147624,30.0990806 75.2635732,29.7076721 C73.9316693,27.6323193 68.880736,23.4395003 66.25236,22.6414234 Z" id="hair" fill="#191847"></path>
                    </g>
                    <g id="Bottom/Standing/Jogging" transform="translate(0.000000, 154.072016)">
                        <polygon id="Leg" fill="#997659" points="104 0 163.44513 98.7577939 208.011876 182.249184 217.611157 182.249184 142.93895 4.04674481e-13"></polygon>
                        <g id="Accessories/Shoe/Flat-Sneaker" transform="translate(200.000000, 158.200837)" fill="#E4E4E4">
                            <path d="M1.99845071,20.7339315 C1.20166936,22.9174568 0.803278689,24.5676585 0.803278689,25.6845367 C0.803278689,27.1271656 1.04459502,29.2323201 1.52722767,32 C3.20763733,32 18.3097619,32 46.8336014,32 C48.0109535,28.1236058 47.3313176,26.0308653 44.7946938,25.7217785 C42.25807,25.4126917 40.1508535,25.1336111 38.4730443,24.8845367 L17.5977708,15.6162205 C17.0930006,15.39211 16.502126,15.6196295 16.2780155,16.1243997 C16.2745823,16.1321324 16.2712473,16.1399084 16.2680115,16.1477257 L14.9917613,19.230956 C12.6435111,20.3221217 10.7353141,20.8677046 9.2671701,20.8677046 C8.14318411,20.8677046 6.61566695,20.4417086 4.68461862,19.5897167 L4.68462776,19.589696 C3.6740374,19.1438165 2.49333531,19.6016051 2.04745583,20.6121955 C2.02979357,20.6522272 2.01344973,20.6928277 1.99845071,20.7339315 Z" id="shoe"></path>
                        </g>
                        <path d="M195.634445,168.879703 L214.146491,163.314849 C206.035859,139.220612 196.095129,112.705787 184.324299,83.7703743 C172.55347,54.8349619 159.912037,26.9115038 146.4,2.84217094e-14 L94.1152585,2.84217094e-14 C109.137738,34.0418166 125.06358,64.9731769 141.892786,92.7940806 C158.721991,120.614984 176.635878,145.976858 195.634445,168.879703 Z" id="Pant" fill="#DB2721"></path>
                        <path d="M100.093302,2.84217094e-14 C94.4827986,34.7041669 83.6616728,79.0427574 82.6404504,80.4110594 C81.9596354,81.3232608 57.4501211,89.4845934 9.11190748,104.895057 L11.1854681,113.306729 C68.8286744,105.041998 99.2017282,98.6298792 102.304629,94.0703734 C106.958981,87.2311147 130.198789,33.2008202 139.2,2.84217094e-14 L100.093302,2.84217094e-14 Z" id="Leg" fill="#B28B67"></path>
                        <path d="M26.1036062,97.6238102 L29.7559575,111.171416 C72.8697173,114.929029 99.2864702,112.213918 109.006216,103.026082 C118.725962,93.8382466 129.803603,59.4962192 142.23914,-1.13686838e-13 L92.3825167,-1.13686838e-13 C84.5036534,48.7193979 80.0988561,74.10169 79.1681247,76.1468764 C78.2373933,78.1920628 60.5492205,85.3510407 26.1036062,97.6238102 Z" id="Pant" fill="#FF4133"></path>
                        <g id="Accessories/Shoe/Flat-Sneaker" transform="translate(19.600000, 122.426778) rotate(80.000000) translate(-19.600000, -122.426778) translate(-4.800000, 106.527197)" fill="#E4E4E4">
                            <path d="M1.99845071,20.7339315 C1.20166936,22.9174568 0.803278689,24.5676585 0.803278689,25.6845367 C0.803278689,27.1271656 1.04459502,29.2323201 1.52722767,32 C3.20763733,32 18.3097619,32 46.8336014,32 C48.0109535,28.1236058 47.3313176,26.0308653 44.7946938,25.7217785 C42.25807,25.4126917 40.1508535,25.1336111 38.4730443,24.8845367 L17.5977708,15.6162205 C17.0930006,15.39211 16.502126,15.6196295 16.2780155,16.1243997 C16.2745823,16.1321324 16.2712473,16.1399084 16.2680115,16.1477257 L14.9917613,19.230956 C12.6435111,20.3221217 10.7353141,20.8677046 9.2671701,20.8677046 C8.14318411,20.8677046 6.61566695,20.4417086 4.68461862,19.5897167 L4.68462776,19.589696 C3.6740374,19.1438165 2.49333531,19.6016051 2.04745583,20.6121955 C2.02979357,20.6522272 2.01344973,20.6928277 1.99845071,20.7339315 Z" id="shoe"></path>
                        </g>
                    </g>
                    <g id="Body/Pointing-Forward" transform="translate(115.997087, 146.193790) rotate(-8.000000) translate(-115.997087, -146.193790) translate(13.793574, 71.846185)">
                        <path d="M126.414688,34.02318 L154.074045,18.8758473 C158.673627,13.4144001 163.205496,9.17282107 167.669653,6.15111033 C169.033755,5.58167954 171.419225,5.23701935 169.188357,9.19617403 C166.95749,13.1553287 164.789028,17.4200851 165.925567,18.639815 C167.062107,19.8595449 169.896169,18.155636 171.252043,20.1822276 C172.155959,21.5332886 167.314188,23.6675847 156.726728,26.5851158 L136.628834,44.9849662 L126.414688,34.02318 Z M169.734375,46.8034017 L181.883948,40.1297688 C183.588705,33.6436508 185.626534,30.3802655 187.997436,30.3396129 C189.818782,29.4922479 186.646921,37.6880639 190.099616,36.9773241 C193.552311,36.2665844 201.979353,29.9997466 203.431374,31.2721515 C205.579546,33.1545925 203.664104,38.9347772 201.407258,41.8101096 C197.189216,47.1841022 193.696859,49.0218456 185.064957,51.4283815 C180.551753,52.6866427 175.672181,55.208719 170.426241,58.9946104 L169.734375,46.8034017 Z" id="Skin" fill="#997659"></path>
                        <path d="M113.839902,27.6884245 C123.424722,29.1028992 136.504826,29.1031111 151.488544,22.6181191 L154.947085,35.3877131 C144.079747,43.2194182 129.661939,48.7847554 118.166996,46.6317768 C109.108348,44.9351111 106.200958,33.1935403 113.839902,27.6884245 Z" id="Sleeve" fill="#2026A2" transform="translate(132.200221, 34.858161) rotate(-9.000000) translate(-132.200221, -34.858161) "></path>
                        <path d="M125.989338,50.0076144 C136.274436,52.5723829 153.52191,49.5478122 177.731759,40.9339022 C183.736802,53.3559589 186.512783,62.2119326 186.059702,67.5018234 C165.291218,78.3493387 147.490834,83.1856915 132.825696,83.5049646 C133.291735,92.2057975 132.232575,100.484841 128.67454,108.049674 C121.359823,123.601687 78.5280929,109.198788 64.1267526,112.033631 C55.1082098,82.7478433 72.5458352,70.8462177 72.5598657,52.1074639 C72.5752307,31.5865316 89.0542955,-1.42108547e-13 91.4788598,-1.42108547e-13 L113.589551,-1.42108547e-13 C114.809527,15.6721063 120.950007,32.9441253 125.989338,50.0076144 Z" id="Clothes" fill="#1F28CF"></path>
                    </g>
                </g>
                <g id="Humaaan">
                    <g id="Head/Front/Airy" transform="translate(131.751195, 48.366203) rotate(7.000000) translate(-131.751195, -48.366203) translate(77.455579, 7.006792)">
                        <g id="Head" stroke-width="1" transform="translate(43.279412, 24.740385)" fill="#B28B67">
                            <path d="M6.62196951,27.5257742 C2.92886554,23.209175 0.429295534,17.9191231 0.84697515,11.991468 C2.05042643,-5.0877568 25.9263959,-1.33054495 30.5707663,7.28958108 C35.2151366,15.9097071 34.6632647,37.7753717 28.6608298,39.3160286 C26.267067,39.9304405 21.1676407,38.4253775 15.9776143,35.3103596 L19.2352941,58.2596154 L0,58.2596154 L6.62196951,27.5257742 Z"></path>
                        </g>
                        <path d="M62.8865482,22.0949645 C60.3513921,21.6809869 53.5253726,21.3963658 52.2665326,21.3965496 C51.4620745,21.3965496 50.5902869,21.5795596 50.1138299,20.8440282 C49.7236502,20.2417119 49.8665873,19.2230293 49.7501405,18.5240631 C49.6149297,17.7120937 49.4228752,16.9105977 49.2286132,16.111123 C48.6758127,13.8361754 47.8398974,11.6718424 46.6702781,9.6398058 C44.4756325,5.82746335 41.2605593,2.84123867 37.2016606,1.10356166 C32.7194693,-0.815104227 27.6475015,-1.25443866 22.8262715,-0.865266628 C17.6669226,-0.448900327 12.99654,1.24706655 8.12527278,2.84307612 C3.48322005,4.36393396 -1.37884912,4.96257536 -6.2339278,4.21987784 C-11.1256146,3.47166797 -14.8217437,0.831618979 -18.947788,-1.67411237 C-23.1716991,-4.23937712 -27.9988158,-5.91715324 -32.9922326,-5.53147236 C-37.6534172,-5.17133205 -41.9494407,-3.2548711 -45.8037757,-0.694751214 C-49.4099483,1.70054936 -52.3855052,4.58240684 -54.0654301,8.63839524 C-55.8726555,13.0014216 -55.8709999,17.7905528 -52.8991222,21.6464428 C-48.5915092,27.2356 -40.5945735,28.6809386 -33.9414674,28.53725 C-30.0932032,28.454381 -26.31374,27.7548635 -22.6805252,26.482429 C-17.8351965,24.7853597 -13.6480774,21.9090145 -9.1151131,19.5752686 C-6.98779687,18.480148 -4.78892011,17.580716 -2.48408225,16.9328309 C-0.247493636,16.3038715 1.95543025,16.0153918 3.98046459,17.3607731 C6.12268159,18.7840623 8.04230671,20.1821785 10.493025,21.0731583 C12.8440369,21.9279403 15.3343067,22.4060449 17.8391094,22.3867517 C22.7125841,22.3492677 27.5167058,20.8372296 32.2500028,19.8244269 C36.1098565,18.9986766 40.239764,18.1756824 44.1748575,18.9694611 C45.8168866,19.3007534 48.2153602,19.9846525 48.808448,21.6839268 C38.8265814,23.4853634 34.9062139,35.7779077 37.7202537,44.8018112 C39.2390294,49.6723415 48.3685991,55.3659398 51.9182959,52.8054285 C54.167131,51.183271 52.8018569,49.0536719 51.9182959,47.6478384 C50.2262296,44.9556059 49.6473067,41.4973401 52.77831,39.6229568 C55.4790303,38.0063678 58.3186517,41.8453377 58.3723681,41.8411115 C59.1146476,41.7828644 65.5285881,38.1708586 69.9476764,32.900026 C74.3071234,33.1573552 74.9685146,30.2950196 73.9275641,27.954167 C72.8866135,25.6133143 66.3893351,22.6673304 62.8865482,22.0949645 Z" id="hair" fill="#191847"></path>
                    </g>
                    <g id="Bottom/Standing/Sprint" transform="translate(0.000000, 155.009414)">
                        <path d="M165.590747,-7.92254811 C150.392114,4.48060151 156.510599,113.640043 155.497737,115.011132 C155.047577,115.620505 130.918477,120.745624 83.1104381,130.386488 L85.2002275,138.839922 C141.149047,136.222472 170.74798,132.837362 173.997027,128.684595 C178.648731,122.739021 184.321269,89.4272407 191.014641,28.7492543 L165.590747,-7.92254811 Z" id="Leg" fill="#B28B67" transform="translate(137.062540, 65.458687) rotate(-55.000000) translate(-137.062540, -65.458687) "></path>
                        <path d="M91.2115262,121.513011 L94.888698,135.128802 C136.614564,140.052196 164.094807,134.192343 173.746355,124.994232 C180.18072,118.862157 185.868387,85.6410025 190.809356,25.3307668 L163.613074,-13.5095485 C127.427185,13.8030926 149.310014,103.628691 148.389271,105.6798 C147.468528,107.730909 125.475659,109.289805 91.2115262,121.513011 Z" id="Pant" fill="#2F3676" transform="translate(141.010441, 61.703134) rotate(-55.000000) translate(-141.010441, -61.703134) "></path>
                        <g id="Accessories/Shoe/Flat-Sneaker" transform="translate(178.707132, 148.882983) rotate(20.000000) translate(-178.707132, -148.882983) translate(154.307132, 132.983402)" fill="#E4E4E4">
                            <path d="M1.99845071,20.7339315 C1.20166936,22.9174568 0.803278689,24.5676585 0.803278689,25.6845367 C0.803278689,27.1271656 1.04459502,29.2323201 1.52722767,32 C3.20763733,32 18.3097619,32 46.8336014,32 C48.0109535,28.1236058 47.3313176,26.0308653 44.7946938,25.7217785 C42.25807,25.4126917 40.1508535,25.1336111 38.4730443,24.8845367 L17.5977708,15.6162205 C17.0930006,15.39211 16.502126,15.6196295 16.2780155,16.1243997 C16.2745823,16.1321324 16.2712473,16.1399084 16.2680115,16.1477257 L14.9917613,19.230956 C12.6435111,20.3221217 10.7353141,20.8677046 9.2671701,20.8677046 C8.14318411,20.8677046 6.61566695,20.4417086 4.68461862,19.5897167 L4.68462776,19.589696 C3.6740374,19.1438165 2.49333531,19.6016051 2.04745583,20.6121955 C2.02979357,20.6522272 2.01344973,20.6928277 1.99845071,20.7339315 Z" id="shoe"></path>
                        </g>
                        <polygon id="Leg" fill="#997659" points="104 0 62.6032301 98.7577939 21.9166485 182.249184 31.51593 182.249184 136.53895 0"></polygon>
                        <g id="Accessories/Shoe/Flat-Sneaker" transform="translate(19.200000, 158.200837)" fill="#E4E4E4">
                            <path d="M1.99845071,20.7339315 C1.20166936,22.9174568 0.803278689,24.5676585 0.803278689,25.6845367 C0.803278689,27.1271656 1.04459502,29.2323201 1.52722767,32 C3.20763733,32 18.3097619,32 46.8336014,32 C48.0109535,28.1236058 47.3313176,26.0308653 44.7946938,25.7217785 C42.25807,25.4126917 40.1508535,25.1336111 38.4730443,24.8845367 L17.5977708,15.6162205 C17.0930006,15.39211 16.502126,15.6196295 16.2780155,16.1243997 C16.2745823,16.1321324 16.2712473,16.1399084 16.2680115,16.1477257 L14.9917613,19.230956 C12.6435111,20.3221217 10.7353141,20.8677046 9.2671701,20.8677046 C8.14318411,20.8677046 6.61566695,20.4417086 4.68461862,19.5897167 L4.68462776,19.589696 C3.6740374,19.1438165 2.49333531,19.6016051 2.04745583,20.6121955 C2.02979357,20.6522272 2.01344973,20.6928277 1.99845071,20.7339315 Z" id="shoe"></path>
                        </g>
                        <path d="M25.5908391,164.904807 L46.9205487,168.879703 C63.4126204,144.785465 132.432614,45.9910017 140,2.84217094e-14 L92.5152585,2.84217094e-14 C67.2439045,33.2468376 41.3111894,140.412005 25.5908391,164.904807 Z" id="Pant" fill="#5C63AB"></path>
                    </g>
                    <g id="Body/Jacket-2" transform="translate(119.769742, 145.862621) rotate(7.000000) translate(-119.769742, -145.862621) translate(17.566229, 71.495220)">
                        <path d="M157.78125,61.8446313 L186.655671,49.1653578 C191.713796,44.1255309 196.598137,40.2950294 201.308693,37.6738533 C202.717239,37.2254663 205.123674,37.0900033 202.556196,40.8396796 C199.988718,44.589356 197.456771,48.6489096 198.482668,49.9630436 C199.508565,51.2771776 202.480364,49.8267315 203.654431,51.9637711 C204.437142,53.3884642 199.427759,55.0926946 188.626282,57.0764625 L167.001046,73.6548328 L157.78125,61.8446313 Z M41.0456629,65.3368984 L57.375,68.5765286 C40.9530656,99.1774747 32.1462772,115.395994 30.9546348,117.232086 C28.2734393,121.363294 30.775049,128.934591 31.6991331,132.921688 C25.9019473,134.271007 28.1881793,125.546448 20.8519526,127.368056 C14.1557851,129.030736 8.47824253,133.297765 2.2343406,127.542996 C1.46668955,126.835481 0.904732684,124.623989 3.52204398,123.489725 C10.0427209,120.663861 19.6764719,115.372487 21.2385854,113.318162 C23.3688062,110.516724 29.9711654,94.5229689 41.0456629,65.3368984 Z" id="Skin" fill="#B28B67"></path>
                        <path d="M98.2393144,7.87042529 L105.000771,6.09258461 C121.220978,19.2865689 130.370562,53.5936411 140.738105,57.3336684 C150.540197,60.8697129 163.52548,55.4820056 178.900893,48.3960116 L184.712314,58.8309953 C171.654397,75.6949649 142.081277,91.5645596 128.968233,85.1291999 C108.003201,74.8403973 99.6468161,32.2715546 98.2393144,7.87042529 Z" id="Coat-Back" fill="#DB2721" transform="translate(141.475814, 46.342999) rotate(5.000000) translate(-141.475814, -46.342999) "></path>
                        <path d="M71.71875,90.8342246 C99.3478055,90.8342246 119.67116,90.8342246 132.688812,90.8342246 C135.474833,90.8342246 134.949861,86.8117322 134.547124,84.7819605 C129.899062,61.3559421 111.754789,36.1038278 111.754789,2.75748029 L94.1681532,0 C79.6217458,23.3925274 74.591346,52.1934649 71.71875,90.8342246 Z" id="Shirt" fill="#DDE3E9"></path>
                        <path d="M65.6376013,67.1162689 C53.2084443,89.5337272 42.7610652,105.673224 34.2954641,115.534759 L21.515625,113.031894 C29.7478161,61.982942 53.5871428,24.305644 93.0336051,-9.9475983e-14 L96.2078848,-9.9475983e-14 L99.9969734,0 C115.785079,53.8128621 120.13758,89.6684771 113.054477,107.566845 L58.171875,107.566845 C59.0401724,94.4703429 61.8242689,80.6203137 65.6376025,67.1162661 Z" id="Coat-Front" fill="#FF4133"></path>
                    </g>
                </g>
            </g>
            <g transform="translate(213.868948, 195.140170) rotate(-14.000000) translate(-213.868948, -195.140170) translate(163.368948, 161.140170)">
                <path d="M50.8280383,54.6067275 C50.8260383,54.6117275 50.8240383,54.6167275 50.8210383,54.6227275 C50.8240383,54.6177275 50.8280383,54.5977275 50.8280383,54.6067275" id="Fill-35" fill="#C5CFD6"></path>
                <path d="M50.8233815,54.6143262 C50.8233815,54.6153262 50.8223815,54.6173262 50.8223815,54.6193262 C50.8223815,54.6143262 50.8313815,54.5993262 50.8233815,54.6143262" id="Fill-37" fill="#C5CFD6"></path>
                <path d="M50.8581098,54.5297294 C50.8511098,54.5497294 50.8421098,54.5687294 50.8341098,54.5887294 C50.8381098,54.5787294 50.8421098,54.5707294 50.8461098,54.5607294 C50.7421098,54.8207294 50.8081098,54.6517294 50.8581098,54.5297294" id="Fill-39" fill="#C5CFD6"></path>
                <path d="M50.8357258,54.5899536 C50.8317258,54.5989536 50.8277258,54.6089536 50.8237258,54.6179536 C50.7947258,54.6739536 50.8357258,54.5899536 50.8357258,54.5899536" id="Fill-41" fill="#C5CFD6"></path>
                <polygon id="Fill-43" fill="#C5CFD6" points="50.8245383 54.6140786 50.8245383 54.6140786 50.8245383 54.6130786"></polygon>
                <path d="M50.8240383,54.6145786 C50.8240383,54.6135786 50.8240383,54.6135786 50.8250383,54.6125786 C50.8240383,54.6135786 50.8240383,54.6135786 50.8240383,54.6145786" id="Fill-45" fill="#C5CFD6"></path>
                <path d="M50.8192941,54.621754 C50.8132941,54.633754 50.8472941,54.575754 50.8192941,54.621754" id="Fill-47" fill="#C5CFD6"></path>
                <path d="M50.8235383,54.6145786 L50.8255383,54.6125786 C50.8245383,54.6135786 50.8245383,54.6145786 50.8235383,54.6145786" id="Fill-49" fill="#C5CFD6"></path>
                <rect id="Photo-Background" fill="#2B44FF" x="0.574535623" y="0.818446954" width="100" height="66" rx="4"></rect>
                <g id="icons8-night_landscape" transform="translate(9.057629, 20.092572)" fill="#000000" fill-opacity="0.2">
                    <polygon id="Mountains" points="29.3115079 0 0.47121868 47 58.1517972 47"></polygon>
                    <polygon id="Mountains" points="59.0474583 12.5892857 33.5509707 47 84.543946 47"></polygon>
                </g>
                <circle id="Sun" fill="#FFFFFF" cx="79.0165764" cy="23.6424793" r="9.5"></circle>
            </g>
        </g>
    </g>
</svg>